<?xml version="1.0" encoding="UTF-8"?>
<svg id="Capa_2" data-name="Capa 2" xmlns="http://www.w3.org/2000/svg" viewBox="0 0 445.62 524.23">
  <defs>
    <style>
      .cls-1 {
        fill: #c68e8e;
      }

      .cls-2, .cls-3, .cls-4 {
        fill: #fff;
      }

      .cls-5 {
        fill: #181411;
      }

      .cls-6 {
        fill: #ffc840;
      }

      .cls-7 {
        fill: #ea567e;
      }

      .cls-7, .cls-8 {
        opacity: .35;
      }

      .cls-9 {
        stroke: #c19083;
        stroke-linecap: round;
        stroke-width: .25px;
      }

      .cls-9, .cls-10, .cls-11, .cls-4, .cls-12 {
        stroke-miterlimit: 10;
      }

      .cls-9, .cls-11 {
        fill: none;
      }

      .cls-13 {
        fill: #fdffff;
      }

      .cls-14 {
        fill: #d0cfd0;
      }

      .cls-15 {
        fill: #260e0c;
      }

      .cls-16 {
        fill: #ede891;
      }

      .cls-17 {
        fill: #e2b8ac;
      }

      .cls-18 {
        fill: #3d8284;
      }

      .cls-19 {
        fill: #200d09;
      }

      .cls-20 {
        fill: #c69d7b;
      }

      .cls-3 {
        opacity: .8;
      }

      .cls-21 {
        fill: #3d1910;
      }

      .cls-22 {
        fill: #cc3232;
      }

      .cls-23 {
        fill: #f2c9a7;
      }

      .cls-24 {
        fill: #a9cfd3;
      }

      .cls-8 {
        fill: #e88745;
      }

      .cls-25 {
        fill: #c9a2cb;
      }

      .cls-26 {
        fill: #b18077;
      }

      .cls-27 {
        fill: #dfc3e5;
      }

      .cls-28 {
        fill: #d68f7f;
      }

      .cls-10 {
        fill: #26100d;
      }

      .cls-10, .cls-11 {
        stroke: #26100d;
        stroke-width: .5px;
      }

      .cls-29 {
        fill: #336b91;
      }

      .cls-30 {
        fill: #edbab7;
      }

      .cls-31 {
        fill: #ce3434;
      }

      .cls-32 {
        fill: #e54850;
      }

      .cls-33 {
        fill: #c184ad;
      }

      .cls-4, .cls-12 {
        stroke: #1d1d1b;
      }

      .cls-34 {
        fill: #aed4ed;
      }

      .cls-35 {
        fill: #e4f2f4;
      }

      .cls-36 {
        fill: #a0ccea;
      }

      .cls-12, .cls-37 {
        fill: #1d1d1b;
      }

      .cls-38 {
        fill: #80b2a8;
      }

      .cls-39 {
        fill: #4f2e18;
      }

      .cls-40 {
        fill: #261f1a;
      }

      .cls-41 {
        fill: #c19083;
      }

      .cls-42 {
        fill: #cd9e73;
      }
    </style>
  </defs>
  <g id="Capa_5" data-name="Capa 5">
    <g>
      <ellipse class="cls-6" cx="219.08" cy="488.63" rx="213.47" ry="35.6"/>
      <path class="cls-12" d="m233.75,269.37c6.13-2.56,6.75-5.23,6.55-7.51-.13-1.53-1.32-2.74-2.88-2.94-2.75-.35-6.82-1.81-6.84-1.81-3.29-1.37-5.88-4.94-7.47-7.69-1.58-2.73-4.53-4.42-7.71-4.42h-.18c-2.95-.73-3.89-3.72-3.9-3.75l-.07-.14c-2.09-3-4.35-18.61-4.37-18.76-3.89-27.78-15.74-59.13-17.19-62.88,1.73-1.12,3.5-2.59,5.1-4.56l.23-.28-2.59-3.94-1.38,1.28c-5.21-9.29-20.24-34.22-20.41-34.5-5.69-8.23-12.01-12.31-13.88-13.41.07-.08.14-.15.21-.24.41-.5.39-1.25-.05-1.74l-1.19-1.34c-.28-.32-.67-.5-1.1-.53-.43-.02-.84.12-1.16.41h0s-.08.06-.11.09c-.54-2.45-.37-5.11-.28-6.06,4.33-.5,10.11-1.91,15.73-5.58.02.91-.1,2.17-.71,2.65l-.55.43.59.38c.33.21,1.26.98,1.19,1.64-.05.49-.67.98-1.75,1.38-.26.1-.39.39-.29.65.08.2.27.32.47.32.06,0,.12-.01.18-.03,1.49-.56,2.3-1.31,2.4-2.21.1-.97-.65-1.79-1.17-2.23.64-.9.7-2.28.66-3.15,1.59.44,5.43,1.23,8.39-.26,1.53-.77,2.59-2.04,3.18-3.77,1.12-.2,4.51-1.17,4.73-5.7.52-.5,2.01-2.18,2.26-5.15.51-.59,2.19-2.89.76-5.81,2.72-2.62,3.58-5.77,3.82-7.95.68.47,1.67,1.34,1.83,2.56.17,1.34-.7,2.82-2.58,4.39l-.85.71,1.1.17c.59.09,1.31.38,1.35.62,0,.02.07.59-2.22,1.77-.25.13-.34.43-.21.68.09.17.27.27.45.27.08,0,.16-.02.23-.06,2.02-1.05,2.89-1.95,2.74-2.83-.11-.62-.69-.98-1.24-1.19,1.67-1.59,2.42-3.15,2.22-4.66-.26-1.97-2.05-3.17-2.75-3.57.02-.56,0-.98-.02-1.24,2.32-2.05,1.9-4.71,1.65-5.68,1.33-1.01,2-2.17,1.99-3.43-.02-1.94-1.66-3.57-2.6-4.34,1.32-.83,1.95-1.75,1.88-2.73-.14-1.92-2.99-3.3-4.26-3.83,1.19-2.14,1.44-3.86.72-5.12-.78-1.37-2.47-1.77-3.38-1.88.61-3.09.24-5.4-1.1-6.87-1.25-1.37-2.98-1.63-3.92-1.66.39-2.4-.03-4.22-1.25-5.42-1.77-1.74-4.7-1.61-6.03-1.45.21-2.08-.26-3.66-1.4-4.68-1.86-1.65-4.91-1.32-6.22-1.08-.11-2.16-.8-3.65-2.07-4.44-1.78-1.1-4.14-.45-5.2-.06-.53-1.65-1.46-2.77-2.78-3.32-2.37-.99-5.24.18-6.34.72-.62-1.01-1.47-1.66-2.52-1.95-2.19-.6-4.59.59-5.34,1.02-1.09-.44-5.5-2.03-8.86-.4-1.63.79-2.76,2.21-3.36,4.22-1.25-.39-4.42-1.15-6.83.16-1.26.68-2.11,1.82-2.55,3.38-1.02-.51-3.17-1.31-5.37-.52-2.11.76-3.69,2.78-4.7,5.99-.95.01-3.31.22-4.86,1.92-1.15,1.26-1.58,3.05-1.29,5.31-1.22-.11-3.78-.11-5.61,1.45-1.37,1.17-2.04,2.96-1.99,5.33-.91.41-3.38,1.73-4,4.15-.43,1.69.14,3.53,1.68,5.48-3.2,1.13-5.63,3.97-6.26,7.48-.7,3.92-1.03,9.73,1.87,13.85-.39.8-1.28,3.01-.41,4.75.5.99,1.46,1.64,2.87,1.94-.21,1.06-.49,3.46.75,5.21.75,1.06,1.93,1.69,3.49,1.89,0,1.12.21,3.86,2.01,5.04,1.03.68,2.38.71,4.02.11-.23.93-.34,2.22.44,3.06.77.83,2.12.96,4.13.4-.21,1.79-.4,5.84,2.01,6.8l.56.22.13-.58s.8-3.47,3.86-3.64c.43.26,1.74.94,3.1.76,0,.62.15,1.44.82,1.99-.14.48-.28,1.32.13,2.02.33.55.91.89,1.73,1.03.08.43.3,1.06.88,1.45.32.22.7.32,1.14.32s.93-.11,1.47-.32c.26-.1.39-.39.28-.65-.1-.26-.4-.38-.66-.28-.52.21-1.23.39-1.66.1-.47-.31-.48-1.06-.48-1.07v-.47s-.47-.03-.47-.03c-.69-.05-1.15-.25-1.35-.58-.29-.49-.06-1.25.06-1.5l.2-.43-.42-.22c-.68-.36-.69-1.25-.64-1.7,0,0,.02,0,.02-.01,3.67,3.16,8.68,6.41,15.06,8.23.43.78,2.35,4.58,1.04,7.48-.59-.25-1.29-.13-1.73.38l-2.27,2.61c-1.07.42-8.25,3.59-13.07,15.31-.28.67-.53,1.42-.79,2.36-1,3.61-5.03,14.75-10.52,19.6-.56-.66-.86-1.06-.88-1.08l-.35-.47-3.49,3.44.24.34c2.83,4.07,6.36,7.51,9.97,10.35-.94,1.97-6.34,12.15-16.83,12.15h-.02c-.12.02-11.96,1.16-31.64-21.41.64-1.58,3.22-8.99-.58-18.14-.51-1.24-.45-2.61.18-3.76,1.27-2.34,3.75-5.57,8.33-7.62,1.49-.67,2.37-2.14,2.19-3.66-.27-2.3-1.54-6.36-7.04-7.63-2.1-.48-4.32-.28-6.25.56-2.93,1.28-8.07,4.71-10.06,13.31-1.27-.56-4.38-1.67-7.74-.96-.45-2.66-2.98-14.04-14.36-20.69-1.19-.69-2.39-1.11-3.57-1.23-3.25-.32-5.41,1-6.09,3.75-.17.7,0,1.48.45,2.07l12.67,16.54c.23.31.21.73-.05,1.01-.29.3-.76.35-1.1.1-3.79-2.81-16.85-11.76-25.94-8.95-1.99.62-3.45,2.27-3.81,4.32-.34,1.98.05,3.79,1.15,5.24,1.05,1.4,2.75,2.33,4.65,2.56,10.7,1.28,17.86,3.19,18.82,4.99l-.05.72c-3.17-.33-18.93-1.6-24.56,5.41-.11.12-2.66,2.95-2.09,5.94.31,1.64,1.5,2.98,3.55,4,.22.09,5.5,2.09,19.55-4,.18-.08.39-.08.57,0,.18.08.31.23.36.42.05.18-.04.36-.21.43-2.52.99-11.08,4.71-15.31,11.16-1.26,1.93-1.79,4.13-1.48,6.21.25,1.68.96,2.94,2.13,3.75,1.49,1.04,3.66,1.28,6.47.72.43-.09.86-.25,1.27-.49,1.84-1.07,8.45-4.93,17.08-9.94.47-.27,1.07-.23,1.48.1,2.59,2.07,11.68,8.27,20.99,2.06,2.59,2.96,20.13,22.59,33.08,27.19.08.03,3.06,1.15,7.64,1.15,7.55,0,19.45-3.04,29.83-18.99,3.08,1.46,5.13,2.18,5.2,2.2l.46.16,1.89-4.85-.5-.17c-.06-.02-.13-.05-.19-.07,1.07-2.35,1.49-7.49,1.65-11.99,1.7,9.89,4.96,32.26,2.43,46.11-.03.23-3.43,23.7-10.12,42.22-.6,1.66-1.21,3.24-1.83,4.72l-.29.69h5.52c-.88,6.16-8.85,61.43-17.94,97.89-.11.43-10.69,43.17-17.36,68.26-.09.34-.25.64-.45.92,0,0,0,0,0,0,0,0,0,0,0,0-.13.17-.28.34-.45.48l-10.86,9.05c-.37.31-.58.75-.59,1.23s.18.93.54,1.25l3.99,3.65-7.74,7.65c-.37.36-.54.86-.47,1.36.06.5.35.94.79,1.19,1.95,1.15,6.64,3.46,14.69,5.07v7.5l-12.78,6.77c-2.71-.65-31.72-6.91-40.56,21.22,0,0,0,0,0,0,0,0,0,0,0,.01-.33,1.05-.63,2.15-.89,3.26-.28,1.2.12,2.45,1.04,3.27,3.39,3.01,14.07,10.72,34.22,10.72,6.87,0,14.84-.9,24-3.18.19-.03,19.12-2.89,32.74-14.2l.17-.14v-.21c.02-.07.2-2.87.33-7.46,5.08,6.53,11.02,11.97,14.24,14.72,1.37,1.17,2.9,2.1,4.55,2.77,11.12,4.48,16.98,4.53,17.17,4.52,14.78,1.83,26.35,2.57,35.41,2.57,19.17,0,27.04-3.34,30.05-6.79,1.81-2.08,1.57-3.93,1.48-4.35.37-8.47-4.27-14.29-4.51-14.58-12.33-12.17-30.19-5.22-32.1-4.42-27.29-6.59-29.26-16.81-29.36-18.92,6.39-.48,11.66-1.3,14.4-1.79.68-.12,1.22-.57,1.45-1.21.23-.64.11-1.33-.34-1.85l-5.29-6.15,4.78-8.09c.46-.78.43-1.73-.08-2.48l-.91-1.36c-.48-.71-.71-1.53-.68-2.37.76-19.06,5.08-53.14,5.12-53.48,5.05-40.32,5.71-78.66,5.79-87.64.83,2.31,2.32,6.54,2.21,13.08-.02,1,.43,1.91,1.2,2.43.31.21.62.31.93.33-.54,1.05-.77,2.31-.6,3.6.19,1.45.88,2.61,1.89,3.18.5.28,1.05.42,1.67.42.58,0,1.21-.13,1.89-.38.58.43,1.45.87,2.42.87.77,0,1.59-.28,2.34-1.05.8.85,1.92,1.34,3.08,1.34.29,0,.57-.03.86-.09,2.4-.5,5.68-2.58,7.71-9.6.03-.11,2.55-10.58,1.26-22.11,2.83,1.8,5.51,2.3,7.56,2.3,2.3,0,3.83-.6,3.95-.65Z"/>
      <path class="cls-25" d="m191.29,153.11l.95-.88,1.53,2.32c-4.66,5.53-10.87,6.94-12.53,7.22-.2-.87-.41-1.75-.62-2.63,6.14-.91,10.37-5.69,10.67-6.04Z"/>
      <path class="cls-27" d="m169.79,118c.16.26,15.44,25.62,20.52,34.7-.95,1.01-4.8,4.76-9.92,5.48-2.57-10.77-5.68-22.11-8.7-28.99-.32-.74-7.77-17.94-15.74-24.27.04-.04.08-.08.12-.11,1.5.87,8.02,4.94,13.73,13.19Z"/>
      <path class="cls-40" d="m187.52,73.45l-.13.13v.19c-.23,3.2-2.08,4.76-2.1,4.78l-.18.15v.23c-.12,4.68-3.99,4.98-4.15,4.99l-.36.02-.1.34c-.48,1.62-1.4,2.78-2.76,3.47-2.47,1.25-5.79.66-7.39.25,3.1-2.27,6.1-5.28,8.74-9.25.37-.56.75-1.13,1.15-1.68.69-.95,2.01-2.94,3.34-5.72,2.13-.42,3.94-1.72,4.77-2.42,1.07,2.58-.75,4.44-.83,4.52Z"/>
      <path class="cls-30" d="m188.16,67.76s-1.78,1.74-4.05,2.44c1.65-3.76,3.15-8.73,3.25-14.47.27-.04.53-.09.73-.14.18,1.01.62,1.76,1.32,2.22.61.41,1.31.53,1.9.53.27,0,.5-.03.71-.06.05,1.55-.14,6.11-3.85,9.48Z"/>
      <path class="cls-40" d="m96.37,32.92c.62-2.42,3.68-3.59,3.71-3.61l.34-.13-.02-.36c-.11-2.21.44-3.85,1.63-4.87,2.06-1.76,5.42-1.14,5.45-1.14l.73.14-.13-.72c-.41-2.27-.1-3.99.94-5.13,1.59-1.76,4.42-1.58,4.45-1.58l.41.03.11-.39c.91-3.1,2.32-5.01,4.18-5.69,2.5-.91,5.06.74,5.09.75l.63.41.14-.74c.31-1.6,1.05-2.73,2.2-3.35,2.59-1.41,6.48.06,6.51.07l.54.21.13-.56c.48-1.99,1.47-3.37,2.96-4.09,3.36-1.63,8.2.49,8.25.52l.25.11.23-.14s2.62-1.62,4.76-1.03c.91.25,1.63.88,2.13,1.88l.24.48.47-.27s3.43-1.93,5.9-.9c1.15.48,1.93,1.56,2.35,3.19l.15.6.56-.27s2.93-1.37,4.78-.22c1.07.66,1.61,2.08,1.61,4.21v.65s.64-.17.64-.17c.04-.01,3.96-1.02,5.91.72.99.89,1.33,2.39.99,4.45l-.12.72.72-.15s3.9-.8,5.81,1.07c1.06,1.04,1.35,2.77.85,5.12l-.14.67.69-.07s2.33-.22,3.73,1.33c1.18,1.31,1.43,3.51.74,6.55l-.14.6h.63s2.33.04,3.11,1.43c.57,1.01.22,2.6-1,4.62l-.32.52.58.21c1.05.37,4.05,1.75,4.16,3.18.06.87-1.06,1.66-2.01,2.16l-.74.39.7.47s2.75,1.86,2.77,3.99c0,1.01-.61,1.96-1.86,2.82l-.32.23.14.36c.05.12,1.12,2.96-1.35,5.03-.32.08-1.46.31-2.27-.24-.56-.38-.88-1.08-.95-2.08l-.05-.68-.64.24s-2.18.82-3.5-.1c-.76-.53-1.13-1.56-1.09-3.07v-.37s-.35-.12-.35-.12c-.13-.04-3.1-1.06-2.05-4.74l.32-1.13-1.05.55s-2.57,1.33-4.47.32c-1.23-.65-1.97-2.17-2.2-4.5l-.06-.65-.62.23s-4.17,1.52-6.27.08c-.81-.55-1.22-1.51-1.22-2.86v-.64l-.63.15s-2.1.5-3.43-.64c-.92-.79-1.29-2.2-1.1-4.19l.07-.69-.68.15s-2.19.48-3.37-.51c-.57-.48-.83-1.26-.77-2.32l.04-.74-.71.24c-1.41.48-4.01,2.14-3.77,5.03l.04.17s1.41,3.08-.02,4.38l-.15.14v.2c-.03.27-.12,2.61,1.08,3.49-.49.12-1.02.13-1.48-.09-1.12-.52-1.73-2.32-1.77-5.21v-.29s-.26-.14-.26-.14c-.01,0-1.27-.71-1.61-2.06-.22-.9.02-1.9.73-2.97l.19-.29-.2-.28s-1.49-2.09-.65-4.12c.02-.05.04-.09.04-.1l-.93-.39s-.02.05-.03.08c-.19.42-1.38,2.86-3.7,3.77-1.42.56-3.02.45-4.75-.32l-.57-.25-.14.6s-.85,3.61-3.72,5.36c-1.66,1.01-3.69,1.23-6.04.65l-.46-.11-.14.45s-.9,2.7-3.25,3.81c-1.44.68-3.15.66-5.08-.08l-.31-.12-.23.24s-1.95,1.97-4.21,1.9c-1.14-.03-2.18-.57-3.1-1.62l-.76-.86-.12,1.13c-.05.41-.31,1.57-.97,1.99-.3.19-.67.21-1.12.07-.09-.03-.17-.03-.25-.01-1.48-2.77-4.42-6.37-9.39-5.27-1.52-1.8-2.11-3.46-1.74-4.91Z"/>
      <path class="cls-30" d="m91.81,45.8c.61-3.38,3.05-6.1,6.23-6.93.66-.17,1.28-.25,1.86-.25,5.35,0,7.52,6.57,7.81,7.53-.09.56-.48,3.08-.58,6.6-2.2-3.91-5.44-5.18-8.03-5.51-.02,0-.04-.02-.06-.03-.06-.01-.12,0-.18,0-2.16-.23-3.8.18-3.84.19-.27.07-.43.35-.36.61.07.27.35.43.62.35.13-.03,1.38-.35,3.07-.24-.76,4.57,1.02,8.23,1.1,8.39.09.18.27.28.45.28.08,0,.15-.02.22-.05.25-.12.35-.42.23-.67-.02-.04-1.72-3.56-1-7.83,2.63.43,5.89,2.01,7.75,6.83.02,1.81.13,3.79.38,5.86-2.46,2.91-7.05,2.12-7.09,2.11-9.82-1.97-9.6-11.65-8.6-17.25Z"/>
      <path class="cls-40" d="m119.85,84.34c-1.34.4-2.87-.59-2.88-.61l-.13-.09h-.16c-2.75.06-4.22,2.22-4.78,3.77-1.31-1.22-1.03-4.78-.79-6.18l.15-.83-.81.27c-1.96.66-3.29.7-3.84.11-.69-.74-.16-2.48.11-3.08l.55-1.26-1.24.61c-1.77.88-3.14,1.01-4.06.41-1.75-1.14-1.55-4.59-1.55-4.63l.03-.5-.5-.03c-1.49-.1-2.57-.6-3.21-1.51-1.33-1.87-.49-4.87-.49-4.9l.16-.55-.57-.08c-1.35-.19-2.24-.69-2.64-1.48-.55-1.09-.13-2.55.21-3.41,1.51,1.71,3.7,3.04,6.82,3.66.21.04,4.57.8,7.45-1.83.74,4.83,2.32,9.99,5.47,14.3.05.08,2.28,3.77,6.73,7.81,0,0-.02.01-.02.02Z"/>
      <path class="cls-30" d="m113.98,75.97c-3.24-4.44-4.78-9.8-5.44-14.74.03-.05.07-.09.1-.14l-.13-.09c-1.02-7.9.19-14.67.21-14.78l.02-.11-.03-.11s-.22-.77-.69-1.81c.51.06.98-.04,1.39-.3.22-.14.4-.33.56-.53,1.07.73,3.96,2.9,4.03,5.05.03.92-.47,1.72-1.52,2.46l-.37.26.22.39s.75,1.39.33,2.66c-.24.71-.8,1.27-1.69,1.67l-.56.26.36.49s2.13,2.95.92,6.32c-.09.26.04.55.31.64.06.02.11.03.17.03.21,0,.4-.13.48-.33,1.1-3.05-.12-5.7-.74-6.76.86-.51,1.44-1.18,1.72-2.01.4-1.22.03-2.44-.22-3.05,1.1-.88,1.65-1.91,1.61-3.06-.09-2.68-3.4-5.13-4.53-5.89.05-.13.11-.26.14-.38.95.83,2.02,1.26,3.17,1.29,2.24.07,4.06-1.4,4.71-1.97,2.09.73,3.97.71,5.59-.06,2.15-1.02,3.22-3.07,3.6-3.97,2.44.51,4.59.22,6.38-.88,2.53-1.55,3.63-4.24,4.01-5.42.84.32,1.65.49,2.43.53-.03.7-.2,2.06-1.1,2.91-.69.65-1.7.91-3.02.76l-.58-.07v.57c.03.78-.17,2.94-1.27,3.54-.67.36-1.66.13-2.94-.7-.23-.15-.55-.09-.7.14-.15.23-.09.54.14.69,1.06.69,1.99,1.04,2.81,1.04.43,0,.82-.1,1.18-.29,1.42-.77,1.72-2.88,1.79-3.88,1.37.06,2.48-.3,3.29-1.08,1.19-1.13,1.39-2.83,1.41-3.67.53-.06,1.05-.18,1.55-.38,1.32-.52,2.31-1.44,3.01-2.3.14,1.09.61,1.99.87,2.42-.73,1.21-.96,2.38-.69,3.48.34,1.36,1.36,2.2,1.85,2.53.09,3.18.87,5.14,2.35,5.83,2.02.95,4.44-.94,4.55-1.02l-.57-.82c-.62.36-1.09.45-1.41.26-.58-.35-.76-1.63-.74-2.48,1.59-1.7.38-4.73.13-5.29-.12-2,1.49-3.14,2.44-3.63.08,1.01.46,1.79,1.12,2.35,1.1.92,2.69.91,3.58.82-.09,2.01.41,3.49,1.49,4.41,1.23,1.05,2.86,1.04,3.73.95.12,1.4.66,2.44,1.63,3.1,2.01,1.38,5.25.63,6.6.23.33,2.34,1.23,3.91,2.66,4.67,1.59.84,3.41.44,4.48.07-.43,3.07,1.7,4.42,2.56,4.84.02,1.69.54,2.89,1.53,3.58.64.44,1.39.6,2.09.61-.21,10.58-5.33,18.49-6.92,20.69-.4.56-.79,1.13-1.17,1.71-2.74,4.12-5.88,7.17-9.11,9.43l-.51-.18.07.48c-10.83,7.32-22.43,5.86-22.64,5.83-21.43-.19-31.95-17.58-32.08-17.79Z"/>
      <path class="cls-30" d="m137.07,93.64c2.74.68,5.71,1.09,8.92,1.12.05,0,1.1.14,2.85.14.9,0,1.99-.04,3.21-.15-.1,1.2-.24,4.04.43,6.62-3.27,2.19-7.76,2.23-7.79,2.23-3.2-.08-5.63-1.34-7.03-2.3,1.33-2.74.17-6.04-.59-7.67Z"/>
      <path class="cls-25" d="m133.48,104.51l2.35-2.71c.1-.11.24-.17.38-.17.11,0,.21.03.3.1.07.05.16.11.23.17,0,0,0,0,0,0,0,0,0,0,0,0,1.43,1.05,4.18,2.62,7.91,2.71.22,0,5.14-.04,8.69-2.62,0,0,.01,0,.02-.01.27-.19.52-.4.77-.62.12-.1.27-.16.42-.15.15,0,.29.08.39.19l1.19,1.34c.11.13.12.33.02.45-4.27,5.19-10.79,4.38-10.91,4.37-5.68-.09-10.12-2.03-11.76-2.86-.04-.02-.06-.06-.06-.08s0-.06.03-.1Z"/>
      <path class="cls-30" d="m90.47,178.9c-13.48-4.79-32.77-27.02-32.97-27.25l-.3-.35-.38.27c-8.62,6.06-16.96.79-20.15-1.76-.74-.59-1.8-.67-2.63-.19-8.63,5.01-15.24,8.86-17.08,9.94-.31.18-.63.31-.95.37-2.52.5-4.43.31-5.69-.56-.93-.65-1.5-1.68-1.71-3.08-.27-1.84.2-3.8,1.33-5.52,4.07-6.21,12.38-9.82,14.83-10.78.66-.26,1-.96.81-1.63-.13-.46-.46-.84-.9-1.05-.44-.21-.96-.21-1.41-.02-13.56,5.88-18.71,4-18.72,4-1.72-.85-2.72-1.95-2.98-3.27-.48-2.5,1.83-5.06,1.87-5.11,5.81-7.22,24.01-5.02,24.19-5l.53.07.15-2.01-.04-.11c-1.25-3.06-12.87-4.88-19.68-5.7-1.63-.19-3.07-.98-3.96-2.16-.94-1.24-1.26-2.75-.96-4.47.29-1.67,1.49-3.03,3.11-3.53,8.63-2.68,21.34,6.05,25.03,8.79.75.56,1.8.46,2.44-.21.61-.64.66-1.6.13-2.3l-12.67-16.54c-.28-.36-.38-.82-.28-1.23.56-2.27,2.24-3.28,5-2.99,1.03.1,2.09.47,3.16,1.09,12.43,7.26,13.94,20.37,13.95,20.5l.06.59.57-.15c4.1-1.11,8.1,1.01,8.14,1.03l.6.32.14-.66c1.71-8.19,6.17-11.71,9.62-13.22,1.73-.76,3.72-.94,5.61-.5,4.65,1.07,5.97,4.27,6.26,6.77.13,1.09-.52,2.15-1.6,2.64-4.84,2.17-7.46,5.58-8.81,8.06-.77,1.42-.85,3.1-.22,4.61,4.02,9.7.5,17.57.46,17.65l-.13.29.21.24c20.15,23.22,32.23,22.05,32.67,21.99h.03c10.69,0,16.33-10.01,17.58-12.52,4.27,3.25,8.59,5.67,11.93,7.3-16.2,24.78-35.98,17.44-36.19,17.35Z"/>
      <path class="cls-37" d="m103.13,61.66c1.25,0,2.27-1.01,2.27-2.24s-1.02-2.24-2.27-2.24-2.27,1.01-2.27,2.24,1.02,2.24,2.27,2.24Z"/>
      <path class="cls-34" d="m103.13,58.17c.69,0,1.26.56,1.26,1.24s-.56,1.24-1.26,1.24-1.26-.56-1.26-1.24.56-1.24,1.26-1.24Z"/>
      <path class="cls-25" d="m132.65,163.08c-2.89-1.08-18.66-7.43-27.63-20.04l2.07-2.04c.2.25.51.62.87,1.04,0,.01,0,.02.02.03,0,0,.02.01.03.02,3.23,3.74,12.46,13.34,25.8,18.01l-1.16,2.97Z"/>
      <path class="cls-27" d="m129.36,235.94c6.73-18.61,10.14-42.18,10.17-42.39,3.3-18-3.08-50.11-3.33-51.39,0-1.63-.02-2.74-.03-2.91,0-.27-.23-.49-.51-.49h-.01c-.28,0-.5.24-.49.51,0,.16.33,15.59-1.66,19.65-12.38-4.54-21.07-13.32-24.42-17.14,5.68-5.02,9.82-16.41,10.84-20.1.25-.9.49-1.61.75-2.25,4.03-9.81,9.86-13.45,11.87-14.46.1.25.26.47.52.6,1.71.86,6.31,2.88,12.14,2.97.07,0,.54.07,1.29.07,1.89,0,5.52-.4,8.7-3.02,7.81,6.08,15.49,23.8,15.57,23.98,7.03,16,14.55,56.42,14.63,56.84,5.05,24.3,6.82,46.17,7.08,49.78h-63.2c.03-.09.06-.17.1-.26Z"/>
      <path class="cls-4" d="m195.31,236.27l-1.83-.06c-.21-2.84-1.47-18.66-4.84-38.06,3.32,10.3,9.24,30.33,10.28,45.04-.8.54-3.26,2.39-5.41,5.58v-7.76h1.75c.62,0,1.13-.5,1.13-1.11v-2.53c0-.6-.47-1.08-1.08-1.1Z"/>
      <path class="cls-25" d="m127.8,240.01c.37-.9.73-1.85,1.09-2.82h64.11l2.27.08c.05,0,.1.05.1.1v2.53c0,.06-.05.11-.11.11h-67.46Z"/>
      <path class="cls-36" d="m192.5,241.01v9.44c-.12.22-.24.42-.36.65l-8.19-10.09h8.54Z"/>
      <path class="cls-36" d="m132.83,241.01h10.45l-12.62,14.62c1.19-7.75,1.96-13.11,2.18-14.62Z"/>
      <path class="cls-32" d="m96.96,447.13v-7.91c3.98.74,8.73,1.3,14.32,1.49v5.7l-17,14.73c-3.8-4.39-7.96-6.55-9.85-7.37l12.53-6.64Z"/>
      <path class="cls-31" d="m112.3,446.86v-6.12c.96.02,1.95.04,2.96.04,5.22,0,11.1-.33,17.67-1.11.26,5.03.38,9.85.4,14.22-2.38.69-14.39,5.05-14.81,23.15-8.14,3.46-14.68,5.13-16.66,5.59-.19-9.56-3.32-16.2-6.95-20.7l17.37-15.05Z"/>
      <path class="cls-13" d="m83.1,454.31c.43.14,17.42,5.98,17.77,28.54-34.26,9.01-54.74-6.35-57.19-8.33,9.05-28.06,38.13-20.56,39.42-20.21Z"/>
      <path class="cls-14" d="m132.89,473.78c-13.38,11.01-31.88,13.81-32.12,13.85-35.58,8.87-52.89-3.35-57.34-7.3-.65-.57-.92-1.45-.73-2.3.2-.84.42-1.66.66-2.47,2.85,2.21,15.67,11.12,36.65,11.12,6.41,0,13.59-.83,21.47-2.94.11-.02,7.76-1.63,17.68-5.88.03-.01.06-.02.09-.04,4.31-1.85,9.05-4.21,13.79-7.14-.07,1.61-.13,2.69-.16,3.12Z"/>
      <path class="cls-13" d="m133.34,457.21c0,2.73-.05,5.22-.1,7.4-.18.17-.21.44-.06.64.01.02.03.04.04.06-.04,1.56-.09,2.95-.13,4.13-4.63,2.92-9.28,5.27-13.54,7.14.57-16.7,11.1-20.88,13.79-21.67,0,.77,0,1.53,0,2.27,0,0,0,.02,0,.02Z"/>
      <path class="cls-29" d="m133.87,438.54c-.05-.24-.26-.43-.52-.4-.28.01-.49.25-.48.52-32.05,3.81-47.19-3.26-51.11-5.56-.17-.1-.28-.27-.31-.46-.02-.2.04-.39.19-.53l7.82-7.72c1.45.95,7.07,4.3,14.28,4.3.83,0,1.68-.04,2.55-.14.28-.03.48-.28.45-.55s-.28-.47-.56-.44c-8.94,1.02-16.23-4.03-16.47-4.2l-4.35-3.98c-.14-.13-.22-.3-.21-.49s.09-.36.23-.49l10.86-9.05c.1-.08.19-.18.28-.27,1.53,1.02,7.47,4.47,18.51,4.81h.02c.27,0,.5-.21.51-.48,0-.28-.21-.51-.49-.52-10.62-.33-16.47-3.67-17.93-4.62.15-.27.27-.54.35-.84,6.68-25.1,17.26-67.84,17.37-68.27,6.44-25.82,12.31-61.04,15.51-81.64l14.24-16.49h18.4c.32,4.8,0,9.87-.97,15.88-5.57-.62-9.32-2.82-9.38-2.86-.24-.14-.55-.07-.7.17-.15.24-.07.54.17.69.06.04,3.96,2.33,9.76,2.99l-20.91,137.76c-.12.84-.19,1.69-.19,2.54v32.96c0,.91-.34,1.78-.96,2.46l-3.77,4.12c-.37.4-.87.66-1.42.73-.27.03-.52.06-.79.1Z"/>
      <path class="cls-31" d="m133.94,439.54c.29-.04.57-.07.86-.1.67-.09,1.28-.38,1.78-.82,7.09,2.8,15.61,3.77,23.64,3.86.41.73,1.95,3.55,5.47,10.89,3.01,6.27,8.24,11.18,14.74,13.83,4.23,1.72,8.13,2.71,11.62,2.97-1.82,3.33-3.39,7.75-4.04,13.48-7.28-.45-13.18-1.15-16.39-1.58-2.18-.29-4.32-.9-6.35-1.79l-10.86-4.78c-1.66-.73-3.15-1.75-4.43-3.02l-.75-.75c-1.43-9.47-4.87-12.2-5.4-12.56-3.8-4.05-7.92-4.05-9.46-3.88-.01-4.75-.13-10.12-.42-15.74Z"/>
      <path class="cls-13" d="m147.98,470.5l-13.63-13.51c0-.23,0-.47,0-.71,1.22-.16,5.12-.31,8.76,3.6l.1.08s3.22,2.16,4.77,10.54Z"/>
      <path class="cls-14" d="m234.85,483.74c-3.49,4-16.52,9.82-64.62,3.87-.06,0-5.95-.06-16.85-4.45-1.55-.62-2.99-1.5-4.27-2.6-3.35-2.87-9.68-8.67-14.86-15.57.05-1.96.09-4.17.1-6.59l14.9,14.77c1.37,1.36,2.97,2.44,4.74,3.23l10.86,4.78c2.12.93,4.35,1.56,6.62,1.87,5.02.68,16.56,2.01,29.75,2.01,11.47,0,24.17-1.02,34.93-4.33,0,.62-.18,1.73-1.29,3.01Z"/>
      <path class="cls-13" d="m200.76,462.01c.48-.21,18.74-8.05,31.07,4.12.05.06,4.49,5.64,4.25,13.59-14.72,4.58-33.22,4.77-47.08,3.98.67-5.83,2.35-10.26,4.25-13.55.14-.08.25-.23.25-.41,0,0,0-.02,0-.02,3.29-5.49,7.09-7.62,7.25-7.71Z"/>
      <path class="cls-32" d="m199.28,461.76c-1.46,1.01-4.22,3.3-6.69,7.43-3.5-.19-7.46-1.17-11.78-2.93-6.26-2.55-11.31-7.28-14.21-13.33-3.01-6.27-4.56-9.22-5.22-10.45.03,0,.06,0,.09,0,3,0,5.91-.12,8.64-.3.08,2.57,2.18,12.82,29.17,19.57Z"/>
      <path class="cls-29" d="m188.57,363.22c-.04.34-4.37,34.46-5.13,53.57-.01.33.02.66.07.98-4.83,1.51-13.1-.13-13.18-.15-.27-.06-.54.12-.6.39s.12.54.39.59c.24.05,4.1.82,8.15.82,1.92,0,3.87-.19,5.5-.7.14.35.3.7.52,1.02l.91,1.36c.29.43.31.97.04,1.42l-4.85,8.2c-11.5,2.41-19.67.31-19.75.29-.27-.07-.55.09-.62.35-.07.27.09.54.36.61.22.06,3.56.92,8.97.92,3.11,0,6.9-.29,11.18-1.18l5.33,6.19c.21.24.27.57.16.87-.11.3-.36.51-.68.56-7.14,1.26-31.46,4.83-48.03-1.51l3.27-3.58c.79-.86,1.22-1.97,1.22-3.13v-32.96c0-.8.06-1.61.18-2.4l20.91-137.81c.66.05,1.34.09,2.04.09,2.99,0,6.34-.51,9.83-1.92.26-.1.38-.4.28-.65-.11-.26-.4-.38-.66-.27-4.12,1.67-8.01,2.02-11.34,1.78.98-6.03,1.29-11.14.98-15.98h18.63l9.02,11.11c-1.14,2.62-1.89,5.81-1.69,9.6-.02.28-.43,6.84,4.37,12.18-.01,3.09-.25,45.01-5.8,89.31Z"/>
      <path class="cls-30" d="m201.5,297.46c-1.04-.59-1.32-1.91-1.39-2.45-.16-1.19.05-2.34.59-3.24,3.07-5.13,1.57-13.25,1.02-15.69.88.08,1.87.13,2.94.13.79,0,1.62-.03,2.48-.1.82,3.85-.23,7.87-.97,9.97-.33.95-.84,1.82-1.49,2.83-1.97,3.05-1.06,7.21-.67,8.59-1.02.34-1.86.33-2.51-.04Z"/>
      <path class="cls-30" d="m208.62,297.46c-1.43,1.5-3.12.38-3.55.05-.24-.77-1.45-5.12.46-8.06.6-.93,1.21-1.93,1.59-3.04.77-2.19,1.86-6.35,1.03-10.4,1.16-.14,2.36-.36,3.56-.69.26,1.5,1.49,9.89-2.09,13.96-.45.52-.76.98-.96,1.46-.63,1.53-1.39,4.33.04,6.66-.03.02-.06.03-.09.06Z"/>
      <path class="cls-30" d="m221.9,266.29l-.18-.13-.22.04c-.42.07-10.23,1.71-14.24-6.95-.12-.25-.42-.36-.67-.25-.25.11-.37.41-.25.66,3.79,8.2,12.58,7.83,14.81,7.59,1.42,11.57-1.15,22.24-1.17,22.32-1.89,6.53-4.82,8.43-6.94,8.88-1.16.25-2.39-.18-3.14-1.09-1.66-2.03-.91-4.78-.31-6.24.16-.38.4-.75.78-1.18,4.02-4.57,2.53-13.65,2.3-14.91,2.65-.87,5.23-2.33,7.32-4.68.18-.21.16-.52-.05-.71-.21-.18-.53-.16-.71.05-3.14,3.54-7.58,4.91-11.58,5.33-.08-.02-.16-.03-.25,0-.03,0-.05.03-.08.04-2.36.22-4.55.12-6.19-.05,0,0,0,0,0,0-1.76-.18-2.88-.44-2.92-.45-.27-.07-.54.1-.61.37-.06.27.1.54.38.6.15.04,1.15.26,2.68.45.39,1.69,1.94,9.2-.3,14.27-.04.03-.09.05-.12.09-.23.25-.46.34-.89.05-.49-.33-.77-.92-.76-1.59.11-6.81-1.46-11.18-2.3-13.53l-.16-.45c-.18-.51-.48-.99-.88-1.42-4.65-5.04-4.25-11.53-4.24-11.66-.64-12.06,8.61-17.81,8.71-17.86l.26-.16-.02-.3c-1.37-20.52-12.33-51.53-12.6-52.28-.31-1.62-.64-3.26-.98-4.9-.04-.21-2.03-10.91-4.91-23.47,1.19-.2,4.12-.86,7.36-2.75,1.71,4.46,13.24,35.2,17.06,62.48.09.65,2.29,15.8,4.5,19.13.18.54,1.34,3.6,4.67,4.38h.36c2.81.01,5.43,1.52,6.83,3.94,1.67,2.88,4.41,6.63,7.98,8.12.17.06,4.21,1.51,7.08,1.87,1.08.14,1.91.98,2,2.03.18,2.02-.42,4.2-5.93,6.5-.05.02-5.55,2.19-11.46-2.16Z"/>
      <path class="cls-1" d="m39.84,122.63c-7.6,8.37-6.08,19.78-6.07,19.9.04.25.25.43.5.43.02,0,.05,0,.07,0,.28-.04.47-.29.43-.56-.02-.11-1.46-11.07,5.82-19.09.19-.21.17-.52-.04-.71-.21-.18-.53-.17-.71.04Z"/>
      <path class="cls-1" d="m49.65,126.3c-.21.18-.23.5-.04.71.05.05,4.8,5.42,5.69,10.83.04.25.26.42.5.42.03,0,.05,0,.08,0,.28-.04.46-.3.42-.57-.94-5.69-5.73-11.1-5.93-11.33-.18-.21-.5-.23-.71-.04Z"/>
      <path class="cls-5" d="m116.28,33.13c.1,0,.21-.03.3-.1.23-.16.28-.48.11-.7-.01-.02-1.2-1.68-.62-2.92.43-.92,1.79-1.48,3.94-1.64l.64-.05-.19-.6c-.45-1.41-.83-3.71-.2-4.15.14-.1.73-.31,2.59,1.05.22.17.54.12.71-.1.17-.22.12-.53-.1-.7-1.74-1.28-2.97-1.63-3.78-1.06-1.2.84-.69,3.41-.35,4.67-2.21.25-3.61.98-4.17,2.16-.84,1.79.65,3.84.72,3.93.1.13.25.21.41.21Z"/>
      <path class="cls-5" d="m171.99,28.01c.48-.11,1.97-.28,2.53.34.33.36.35,1,.04,1.91l-.3.88.9-.23c1.44-.37,3.77-.61,4.21.06.1.15.32.8-1.17,2.67-.17.22-.14.53.08.7.09.07.2.11.31.11.15,0,.3-.06.4-.19,1.39-1.73,1.79-2.99,1.23-3.83-.78-1.18-3.16-.92-4.49-.67.15-.88,0-1.57-.47-2.07-1.06-1.16-3.26-.7-3.51-.64-.27.06-.44.33-.38.6.06.27.33.44.61.38Z"/>
      <ellipse class="cls-8" cx="126.53" cy="53.07" rx="8.78" ry="8.68"/>
      <ellipse class="cls-8" cx="173.1" cy="59.89" rx="8.78" ry="8.68"/>
      <ellipse class="cls-3" cx="147.04" cy="52.02" rx="7.67" ry="5.98" transform="translate(65.82 185.17) rotate(-78.1)"/>
      <ellipse class="cls-3" cx="161.87" cy="53.07" rx="5.98" ry="7.67" transform="translate(-4.02 14.37) rotate(-5.02)"/>
      <path class="cls-26" d="m128,50.42c1.91-.86,4.2-.78,6.8.22.19.08.42-.02.49-.21.08-.19-.02-.41-.22-.49-2.8-1.08-5.29-1.15-7.4-.2-3.04,1.37-4.14,4.34-4.19,4.47-.07.19.03.41.23.48.04.02.09.02.13.02.16,0,.3-.1.36-.25.01-.03,1.05-2.81,3.8-4.04Z"/>
      <path class="cls-26" d="m169.81,64.46c-1.38-1.94-3.56-2.26-3.66-2.28-.21-.03-.4.11-.43.32-.03.2.11.39.32.42.02,0,1.96.3,3.15,1.97.95,1.35,1.19,3.21.7,5.53-.04.2.09.4.29.44.03,0,.05,0,.08,0,.18,0,.33-.12.37-.3.54-2.54.26-4.61-.82-6.13Z"/>
      <path class="cls-28" d="m149.95,58.41c.14.15.38.16.54.02.14-.13,3.44-3.08,5.66-.87.79.78,1.09,2.01.79,3.2-.24.96-.93,1.73-1.82,2.07-1.16.44-2.59.13-4.13-.9-.17-.12-.41-.07-.53.1s-.07.4.1.52c1.39.92,2.55,1.22,3.46,1.22.55,0,1-.1,1.37-.24,1.13-.43,1.98-1.39,2.29-2.59.37-1.45-.01-2.95-.99-3.92-2.19-2.17-5.35-.39-6.72.85-.15.14-.16.38-.02.53Z"/>
      <path class="cls-37" d="m159.95,67.11c-1.26-.94-2.83-1.25-4.73-.93-.12.04-1.08.35-2.5.51-.07,0-.13,0-.19.02-1.6.16-3.73.13-5.97-.62-.02,0-.03-.02-.05-.02-2.59-.88-5.29-2.72-7.41-6.35-.17-.45-1.79-4.52-6.21-4.39-2.23.07-4.32,1.29-5.61,3.27-2.12,3.27-4.84,10.31.8,20.66.26.47.57.89.88,1.3l.09.12c1.8,2.4,6.2,5.48,12.02,6.14,0,0,0,0,0,0,0,0,0,0,0,0,.73.08,1.49.13,2.26.13,2.67,0,5.58-.55,8.63-1.86.02,0,.05,0,.07-.02.02,0,.03-.02.04-.03,1.41-.62,2.84-1.38,4.3-2.35.23-.14,5.63-3.48,5.7-10.87.02-1.97-.76-3.69-2.15-4.72Z"/>
      <path class="cls-2" d="m129.04,79.37c-.1-.15-.2-.3-.28-.45-5.46-10.01-2.86-16.77-.83-19.9,1.15-1.77,3.01-2.87,4.99-2.93.06,0,.13,0,.19,0,3.89,0,5.24,3.76,5.29,3.92l.03.07c.07.13.15.25.23.37-1.66,1.03-9.1,6.4-9.61,18.92Z"/>
      <path class="cls-2" d="m129.75,80.35c.15-12.91,7.75-18.3,9.3-19.27,2.01,2.99,4.45,4.65,6.83,5.52-1.67,1.94-8.45,10.58-5.36,19.41-5.17-.76-9.07-3.48-10.76-5.66Z"/>
      <path class="cls-2" d="m141.36,86.12c-3.42-9,4.17-17.98,5.3-19.25,2,.61,3.91.7,5.44.6-.87,2.24-3.75,10.67-.72,17.1-3.61,1.5-7.01,1.86-10.01,1.55Z"/>
      <path class="cls-2" d="m155.99,82.07c-1.33.89-2.64,1.6-3.92,2.18-3.06-6.5.32-15.49.88-16.87,1.49-.17,2.45-.48,2.46-.48,1.63-.28,3,0,4.08.8,1.19.89,1.87,2.39,1.85,4.12-.07,6.96-5.28,10.21-5.35,10.25Z"/>
      <path class="cls-37" d="m167.89,47.38c.05.2.22.34.42.34h.01l.36-.05.05-.31c.11-.66.28-1.98.21-3.36-.08-1.55-1.08-2.82-2.6-3.32-1.51-.49-3.07-.06-4.06,1.13l-.42.51.51.17s4.77,1.64,5.51,4.88Z"/>
      <path class="cls-40" d="m166.11,41.4c.95.31,2,1.17,2.08,2.64.04.67,0,1.34-.04,1.91-1.19-2.2-3.85-3.48-4.99-3.95.92-.84,2.1-.88,2.95-.6Z"/>
      <ellipse class="cls-37" cx="150.19" cy="52.35" rx="1.44" ry="1.97"/>
      <ellipse class="cls-19" cx="150.19" cy="52.35" rx=".68" ry="1.22"/>
      <path class="cls-37" d="m158.81,55.04c.81,0,1.44-.87,1.44-1.97s-.63-1.97-1.44-1.97-1.44.87-1.44,1.97.63,1.97,1.44,1.97Z"/>
      <path class="cls-19" d="m158.81,51.85c.32,0,.68.5.68,1.22s-.36,1.22-.68,1.22-.68-.5-.68-1.22.36-1.22.68-1.22Z"/>
      <path class="cls-37" d="m136.78,43.34l.36.09.17-.26c1.8-2.8,6.8-2.74,6.85-2.76h.54s-.22-.61-.22-.61c-.53-1.45-1.84-2.38-3.44-2.42-1.62-.04-2.97.82-3.58,2.26-.56,1.32-.85,2.7-.95,3.23-.04.2.07.4.26.47Z"/>
      <path class="cls-40" d="m138.16,39.92c.56-1.33,1.79-1.8,2.78-1.8.03,0,.05,0,.08,0,.9.02,2,.45,2.58,1.55-1.23.06-4.17.39-6.05,2.06.15-.55.35-1.18.61-1.81Z"/>
      <ellipse class="cls-2" cx="150.19" cy="51.52" rx=".58" ry=".57"/>
      <ellipse class="cls-2" cx="158.81" cy="52.09" rx=".58" ry=".57"/>
      <path class="cls-12" d="m444.48,190.56c-.53-.71-1.35-1.13-2.22-1.16l-12.22-.9,8.83-10.64v-.16c.11-1.15-.16-2-.78-2.53-.93-.79-2.28-.49-2.34-.47l-12.81,8.44c-.37.24-.86.21-1.19-.09-.34-.31-.42-.8-.21-1.2l6.14-11.4c.29-.54.43-1.11.41-1.66-.03-.82-.29-1.45-.77-1.88-.5-.45-1.19-.65-2.08-.6-.92.05-1.8.48-2.43,1.19l-9.94,11.18c-.34.38-.88.54-1.37.39-.47-.14-.81-.55-.85-1.04-.56-6.03-2.32-11.44-3.05-13.49-.35-.99-1.07-1.74-1.97-2.05-.77-.27-1.56-.21-2.33.18-1.24.62-2.02,1.92-2.06,3.39l-.34,15.33c-.02.72-.16,1.47-.43,2.23-4.19,11.84.97,17.46,2.48,18.79-14.98,21.72-21.77,19.3-21.83,19.27l-.12-.04c-5.47-1.01-7.94-15.07-8.29-17.29,1.88-1.22,2.9-1.98,2.93-2l.4-.3-2.68-3.53-.4.3c-.16.12-.33.24-.5.36-.75-1.85-1.73-4.13-2.83-6.6h17.96l-1.48-.92c-9.08-5.67-10.7-29.4-10.72-29.62l-.53-36.35c1.34-1.18,2.83-2.87,4.01-5.17.57-.18,1.14-.41,1.69-.71,1.76-.98,2.68-2.91,2.24-4.71-.25-1.02-.99-2.27-2.98-2.69l-.02-.12c-.51-3.6-2.16-6.18-4.4-6.88-1.78-.56-3.29-.63-4.58-.43-1.62-13-6.71-22.87-15.14-29.32-12.16-9.31-27.66-8.54-30.99-8.25.09-1.17.04-3.64-1.71-5.06-1.76-1.43-4.68-1.36-8.67.2l-2.36.92,2.54.04s4.38.1,5.99,2.06c.43.52.62,1.12.58,1.82-3.31-.48-21.1-2.06-34.28,16.29-.09.1-7.75,9.02-8.74,25.79,0,.05-.01.09,0,.14-.13,2.33-.14,4.81.02,7.44,0,0,0,.01,0,.02,0,0,0,.04,0,.07.04.63.09,1.26.15,1.9l4.32,27.02c.07.35,6.88,35.68-3.82,49.56l-.62.8h8.9c.08.53.28,1.5.71,2.83-.51,2.19-7.09,29.76-18.25,44.12l-28.12,40.03-1.2-.79-2.79,4.4,1.62,1.04-8.06,6.55c-1.61,1.31-2.72,3.15-3.12,5.17-.36,1.8-.77,4.6-.68,7.73.05,1.7.32,3.44.82,5.34l2.12,7.91c.68,2.55,1.04,5.19,1.07,7.84l.08,7.85c.01.96.78,1.77,1.74,1.84.09,0,.18,0,.28,0,1.16,0,2.77-.49,4.32-2.58.64-.86,1.04-1.89,1.16-2.96l.35-3.13,3.17,4.78.07.08c.08.07.69.66,1.45.66.1,0,.2-.01.31-.03.59-.12,1.04-.59,1.35-1.39l.05-.12-.02-.13c-.02-.12-1.72-12.45-4.5-20.62l.13-1.19c.04-.06.06-.08.07-.09.01,0,.05.02.1.06l6.08,11.2c.5.96,1.54,1.5,2.64,1.39,1.07-.11,1.91-.81,2.21-1.91.2-.79.2-1.81,0-3.02-.66-3.94-.95-7.17-.91-10.16.02-1.11,0-2.16-.05-3.13-.13-2.42-.67-4.81-1.65-7.18-.5-1.21-.18-2.6.75-3.5l1.6,1.03,2.64-4.24-1.24-.82s0,0,0,0c4.32-8.38,26.09-30.07,31.1-35,.02,1.03.71,1.95,1.73,2.23.22.06.44.11.66.17-.77,2.21-3.92,11.67-6.29,23.97-.03.07-.05.15-.04.23-1.74,9.08-3.04,19.68-2.63,30.04,0,.17.78,17.54,4.07,32.69,1.55,7.12,2.44,14.33,2.65,21.43l2.38,79.78-1.56-.12-1.13,8.1,2.86.24c-1.54,2.09-3.89,3.47-6.55,3.81l-1.25.16c-3.34.42-8.38,1.04-12.92,2.19-4.54,1.15-8.32,3.98-10.64,7.96-2.26,3.89-2.82,8.4-1.58,12.7l.12.41c.8,2.58,3.23,4.34,6.04,4.38,10.58.15,34.79.49,37.2.49.09,0,.15,0,.17,0,.07,0,.13-.02.18-.04.96,1.53,2.83,2.5,4.88,2.5.14,0,.28,0,.43-.01l42.38-2.78c2.1-.14,3.85-1.44,4.64-3.3.02-.04.04-.08.06-.13.13-.34.24-.69.31-1.06.76-4.48,1.09-11.01-1.64-16.62-.03-.08-3.01-7.91-2.44-13.71l2.97-.72-2.07-8.18-4.04,1.03c.13-20-5.56-60.18-5.62-60.61-1.52-7.52,5.26-16.86,5.34-16.97,8.52-12.43,16.35-33.29,16.41-33.45,6.06-12.36,4.95-34.84,4.94-35.07-.31-6.73-2.85-14.28-5.85-21.01-.02-.07-.04-.14-.09-.19-3.97-8.88-8.71-16.29-10.13-18.43,1.24-.27,2.07-1.4,1.93-2.65l-.62-5.71c-.06-.54-.36-1.01-.82-1.3-.42-.26-.92-.33-1.39-.22-6.14-8.5-1.61-35.29-.39-41.8l2.22,4.33c-.51.2-.81.32-.83.33l-.43.16,1.26,4.49.52-.2c.56-.21,1.1-.43,1.65-.65,1.4,3.28,9.9,22.74,18.23,31.03,2.18,2.17,5.03,3.39,7.9,3.39.16,0,.32,0,.48-.01,1.9-.09,3.81-.63,5.67-1.61,1.3-.69,2.55-1.62,3.81-2.85,4.16-4.05,18.32-18.73,26.76-38.23,5.8.35,7.98-2.33,8.7-3.7,4.25,4.14,8.32,4.57,8.5,4.58h.05s.05,0,.05,0c1.15-.13,1.97-.57,2.44-1.3.76-1.2.25-2.7.23-2.76l-4.74-7.17c9.23,1,13.8-1.26,14-1.36l.09-.05c2-1.59,1.78-3.41.91-4.59Z"/>
      <path class="cls-15" d="m384.32,191.59h-15.12c-2.36-5.28-5.08-11.16-6.89-15.03-2-4.26-5.12-7.65-9.04-9.81-4.95-2.73-9.48-3.26-11.74-3.34-.89-.03-1.7-.38-2.28-.98-3.78-3.9-2.44-11.55-2.14-13.02,1.17-.36,2.32-.78,3.45-1.25,7.16-3.01,15.33-8.52,20.38-18.54.4.06,1.12.15,2.18.23-.02.87.19,2.59,1.96,3.43.59.28,1.23.42,1.87.42.99,0,1.98-.32,2.8-.95,1.11-.85,1.8-2.11,2-3.65.05-.41.06-.83.04-1.24.4-.21,1.16-.64,2.08-1.34l.52,35.57c.06.95,1.52,22.38,9.93,29.5Z"/>
      <path class="cls-17" d="m314.5,149.76c3.56.96,7.2,1.44,10.8,1.44s7.25-.5,10.72-1.47c-.39,2.11-1.11,7.85,1.37,11.9l-19.08,9.45-5.67-10.22c.06-.06.14-.11.2-.18,3.26-3.46,2.24-8.8,1.66-10.92Z"/>
      <path class="cls-17" d="m283.84,108.2c.01-.06,0-.12,0-.17,7.28-3.08,20.49-9.49,27.82-17.99-1.22,6.73,2.19,10.46,2.35,10.63l.99,1.04-.12-1.42c-.74-9.11,3.17-14.48,4.53-16.06,14.01,25.65,41.05,26.31,45.27,26.27-1.22,22.34-13.98,32.31-24.52,36.75-8.38,3.53-17.96,3.91-26.97,1.1-34.33-10.74-29.41-39.84-29.36-40.13Z"/>
      <path class="cls-16" d="m286.33,128.66c-.7.43-1.34.61-1.89.52-.66-.11-.98-.56-1.03-.62-1.4-1.67-.96-4.43-.7-5.52.47.13.96.21,1.48.23.53,1.75,1.23,3.56,2.14,5.38Z"/>
      <path class="cls-22" d="m317.89,172.4l20.07-9.94c.18.23.35.46.56.67.43.44.95.76,1.53.98l-23.41,12.24-7.1-13.73c.86-.24,1.64-.61,2.32-1.09l6.04,10.88Z"/>
      <path class="cls-16" d="m367.27,124.54c-.01-.07-.03-.12-.03-.15,0-.35.04-.8.3-.98.26-.18.73-.09.95-.02.26.22.5.46.72.7,1.19,1.31,1.77,3.13,1.54,4.87-.17,1.28-.71,2.29-1.62,2.98-1.04.8-2.46.97-3.61.42-1.17-.56-1.38-1.67-1.39-2.36,1.11.22,1.97.05,2.58-.5,1.38-1.27.77-4.05.57-4.96Z"/>
      <path class="cls-17" d="m371.66,126.78c-.25-1.23-.84-2.39-1.71-3.35-.27-.29-.56-.58-.87-.84l-.14-.08c-.12-.05-1.18-.45-1.98.09-.51.35-.76.96-.74,1.82,0,.08.02.17.06.35.57,2.59.17,3.62-.27,4.02-.42.39-1.15.43-2.17.14l-.26-.06-.03.02c-.98-.07-1.7-.14-2.17-.2,1.56-3.3,2.78-7.08,3.53-11.39.5-.53,3.42-3.54,6.73-4.34.03.1.07.21.11.33-1.31.58-3.52,2.39-2.55,5.15.26.72.81,1.33,1.55,1.74-.3.5-.74,1.08-1.14,1.26-.26.11-.37.41-.26.66.08.19.27.3.46.3.07,0,.14-.01.21-.04.76-.33,1.36-1.24,1.66-1.78.11.03.21.06.32.09.85.19,2.06.38,3.41.38.68,0,1.4-.05,2.13-.18-2,3.42-4.71,5.25-5.9,5.93Z"/>
      <path class="cls-24" d="m379.96,113.48c1.01.3,1.63.91,1.86,1.87.33,1.37-.39,2.85-1.75,3.61-2.73,1.52-6.08,1.1-7.82.72-1.03-.23-1.8-.81-2.07-1.57-.8-2.26,1.24-3.51,1.85-3.83.09.42.17.88.2,1.37.06.9.71,1.63,1.59,1.78.62.1,1.32.18,2.03.18,1.14,0,2.3-.2,3.14-.82,1.02-.75,1.08-2.14.97-3.3Z"/>
      <path class="cls-17" d="m375.1,106.38c1.86.58,3.25,2.85,3.7,6.06l.02.16s-.05.1-.05.16c-.02.15.04.29.13.4.13,1,.2,2.29-.52,2.82-1.13.84-3.24.65-4.4.46-.41-.07-.72-.42-.75-.85-.07-1.14-.36-2.17-.56-2.79.55-.05,1.08-.03,1.59.07.27.05.54-.12.6-.39.05-.27-.12-.53-.4-.59-.79-.15-1.62-.15-2.47,0-.04,0-.08.01-.13.02-.13.02-.26.04-.39.07-2.63.61-4.96,2.44-6.27,3.64.25-1.75.43-3.58.52-5.51.25-.6,2.63-5.83,9.38-3.71Z"/>
      <path class="cls-15" d="m287.58,84.31c14.15-19.7,33.62-15.88,33.82-15.84l.51.11.1-.5c.23-1.21-.01-2.26-.73-3.12-1.06-1.28-2.95-1.89-4.47-2.17,2.53-.7,4.39-.58,5.54.35,1.85,1.5,1.29,4.73,1.28,4.76l-.12.68.69-.09c.17-.02,17.6-2.19,30.88,7.99,8.23,6.3,13.19,15.98,14.76,28.74-3.04.89-4.52,3.39-4.96,4.28-3.12.08-30.95.01-44.91-26.35l-.31-.58-.49.45c-.24.22-5.62,5.32-5.4,15.58-1-1.81-2.2-5.33-.64-10.41,1.08-1.49,1.99-3.03,2.63-4.62.1-.26-.02-.55-.28-.65-.26-.1-.55.02-.66.28-5.52,13.7-31.08,23.9-35.73,25.66,1.13-15.94,8.37-24.4,8.48-24.53Z"/>
      <path class="cls-17" d="m279.03,109.94c.6-.22,1.92-.71,3.74-1.46-.2,1.57-.71,7.11,1.12,13.78-.48-.05-.95-.13-1.37-.29-2.9-1.1-3.42-4.61-3.46-4.94-.16-2.5-.16-4.86-.04-7.08Z"/>
      <path class="cls-15" d="m286.82,195.44h-6.72c10.14-14.69,3.71-48.11,3.43-49.53l-4-25.05c.53.73,1.25,1.4,2.23,1.86-.29,1.16-.87,4.4.86,6.46.02.03.56.8,1.63,1,.17.03.34.05.51.05.65,0,1.33-.23,2.05-.65,4.01,7.53,11.67,15.22,26.09,19.73.15.05.31.09.46.13.38,1.2,2.02,7.1-1.25,10.57-.95,1-2.35,1.68-3.94,1.89-4.34.58-17.55,2.34-18.29,20.68-2.39,3.61-3.87,7.94-3.04,12.87Z"/>
      <path class="cls-17" d="m244.39,333.48c-.12.29-.31.59-.57.65-.29.07-.66-.19-.8-.32l-3.81-5.74,1.42-12.73c2.2,7.45,3.58,16.93,3.76,18.15Z"/>
      <path class="cls-17" d="m248.61,299.27c.9,2.2,1.43,4.48,1.55,6.79.05.95.07,1.98.05,3.06-.05,3.06.25,6.34.92,10.34.18,1.08.19,1.96,0,2.68-.17.62-.66,1.02-1.32,1.09-.54.06-1.25-.14-1.63-.86l-6.13-11.3-.12-.14c-.33-.28-.67-.4-1-.34-.33.06-.61.28-.83.67l-.16,1.42c-.06.1-.07.23-.04.35l-1.71,15.04s0,.05,0,.08l-.51,4.5c-.1.9-.44,1.76-.97,2.48-1.4,1.9-2.81,2.23-3.71,2.16-.44-.03-.79-.4-.8-.85l-.08-7.85c-.03-2.73-.4-5.45-1.1-8.08l-2.12-7.91c-.49-1.82-.75-3.5-.79-5.11-.08-3.03.32-5.76.66-7.51.36-1.79,1.34-3.42,2.77-4.59l8.31-6.75,9.54,6.13c-1.1,1.18-1.44,2.92-.79,4.5Z"/>
      <polygon class="cls-22" points="251.55 294.95 250.46 294.26 250.46 294.26 238.73 286.72 240.44 284.03 253.14 292.41 251.55 294.95"/>
      <path class="cls-17" d="m285.12,251.28l-.53,3.39c-2.11,2.05-27.22,26.63-32.16,36.07l-10.26-6.77,28.09-39.99c10.1-13,16.47-36.63,18.06-43.01.7,1.73,1.74,3.82,3.3,6.14.4.6.61,1.26.61,1.94v12.16c0,5.31-.57,10.63-1.69,15.82l-2.71,12.88c-.15-.04-.31-.08-.45-.11-.5-.13-1.03-.04-1.47.24-.43.28-.72.73-.8,1.24Z"/>
      <path class="cls-39" d="m286.39,257.56c-.67-.19-1.09-.85-.98-1.54l.71-4.59c.04-.23.16-.42.36-.55.14-.09.29-.13.44-.13.07,0,.14,0,.21.03,1.22.31,2.94.72,5.06,1.15l-.71,6.86c-1.72-.35-3.43-.75-5.1-1.22Z"/>
      <path class="cls-38" d="m287.76,258.94c2.03.52,4.1.95,6.2,1.32l-1.01,7.91c-.63,4.93-3.34,9.23-7.44,11.8-1.17.74-2.48,1.42-3.87,2.05,2.37-11.97,5.43-21.08,6.12-23.07Z"/>
      <path class="cls-42" d="m292.49,258.97l.71-6.86c.41.08.83.16,1.27.24l-.41,6.91c-.52-.09-1.04-.19-1.56-.29Z"/>
      <path class="cls-18" d="m285.55,367.02c-.21-7.17-1.11-14.44-2.67-21.61-3.28-15.06-4.04-32.35-4.05-32.52-.41-10.23.87-20.69,2.59-29.68,1.69-.72,3.25-1.52,4.64-2.4,4.35-2.73,7.23-7.29,7.9-12.52l1.01-7.87c5.69.92,11.51,1.33,17.17,1.39l-1.08,34.97c-.15,4.76,1.68,9.45,5.02,12.89l3.27,3.36c-5.22,12.45-12.26,31.08-15.37,47.54-.06.25-5.46,25.8,4.26,57.75.23.51,3.23,7.04,6.97,14.14-.36,1.34-2.71,9.9-5.92,16.05l-21.36-1.61-2.38-79.89Z"/>
      <path class="cls-39" d="m312.74,260.82s-.04-.02-.07-.02h-.02s-.05.01-.08.01c-5.77-.05-11.73-.45-17.52-1.39l.41-6.9c9.46,1.63,24.26,3.05,39.96.14l.19,6.75c-5.25.65-11.53,1.22-18.23,1.37-.02,0-.04-.01-.07-.01-.03,0-.06.01-.08.02-1.48.03-2.98.04-4.49.03Z"/>
      <path class="cls-38" d="m316.8,261.8v14.84h-4.12l.46-14.82c.25,0,.51,0,.76,0,.97,0,1.94-.01,2.9-.03Z"/>
      <path class="cls-2" d="m323.53,459.4c-.57.12-9.24,1.99-16.3,4.54-.33-3.28-.1-6.09.01-7.16l3.68.31.71-8.4-1.25-.09c2.68-5.27,4.74-12.08,5.52-14.83,3.09,5.79,6.6,11.72,9.45,14.97l-3.49.89,1.58,8.02,3.66-.89c-.44.91-1.41,2.1-3.56,2.65Z"/>
      <path class="cls-20" d="m328.29,456.46l10.08-2.46-3.77,9.98c-.76,1.49-2.2,2.57-3.86,2.88l-15.05,2.78c-2.45-3.11-5.39-4.49-7.19-5.08,6.93-2.39,15.12-4.15,15.26-4.18,3.14-.8,4.19-2.8,4.53-3.91Z"/>
      <polygon class="cls-38" points="285.37 453.9 286.22 447.78 310.54 449.61 309.99 456.01 285.37 453.9"/>
      <path class="cls-23" d="m296.25,483.29l-18.94-.24c1.35-7.88-.85-13.04-2-15.07l10.98-1.25c3.79-.43,7.22-2.61,9.19-5.84l2.96-4.87,7.78.67c-.13,1.16-.36,4.12.02,7.61-3.64,1.38-6.7,2.94-7.74,4.51-.06.06-5.08,5.43-2.26,14.48Z"/>
      <path class="cls-20" d="m266.62,462.19c4.47-1.13,9.28-1.73,12.79-2.17l1.26-.16c3.15-.4,5.9-2.12,7.59-4.71l9.07.78-2.71,4.45c-1.8,2.96-4.96,4.97-8.43,5.37l-11.45,1.3s-.03-.04-.03-.05c-2.81-3.5-6.06-4.5-8.46-4.69.13-.04.25-.08.39-.12Z"/>
      <path class="cls-13" d="m255.6,482.78h0s-.02,0-.04,0c-.13-.25-.23-.51-.32-.78l-.12-.39c-1.17-4.04-.64-8.28,1.48-11.93,1.56-2.68,3.83-4.79,6.55-6.18.7-.19,6.23-1.5,10.73,4.11.04.06,4.14,5.59,2.4,15.44l-20.69-.26Z"/>
      <path class="cls-20" d="m260.33,485.68c-1.63-.02-3.1-.74-4.08-1.89l40.34.51c.22.61.48,1.23.78,1.87-2.13,0-15.72-.19-37.04-.49Z"/>
      <path class="cls-13" d="m298.47,486.15c-5.05-10.37.52-16.39.82-16.72.98-1.47,3.97-2.95,7.54-4.28.75.11,5,.93,8.26,5.26.01.02.03.04.04.06,2.18,2.92,3.89,7.42,3.79,14.34l-20.45,1.34Z"/>
      <path class="cls-20" d="m345.49,485.83l-42.38,2.78c-1.58.1-3.08-.49-3.99-1.51l49.78-3.27c-.74,1.13-1.97,1.9-3.4,1.99Z"/>
      <path class="cls-13" d="m349.55,482.18c-.04.22-.1.42-.16.63l-7.09.47c-.7-3.39-.33-6.27,1.13-8.57,1.82-2.85,4.85-4.03,6.01-4.4.98,4.26.66,8.62.11,11.87Z"/>
      <path class="cls-23" d="m347.99,466.12c.51,1.04.9,2.12,1.21,3.21-1.26.38-4.56,1.64-6.61,4.83-1.6,2.49-2.02,5.58-1.3,9.18l-21.35,1.4c.08-6.63-1.5-11.15-3.6-14.21l14.58-2.69c1.97-.36,3.69-1.64,4.61-3.46l4.03-10.67,5.88-1.43c-.45,5.97,2.41,13.48,2.55,13.85Z"/>
      <path class="cls-38" d="m346.64,444.34l1.58,6.23-1.83.45c-.07-.07-.16-.13-.27-.14-.25-.03-.47.12-.54.34l-5.93,1.45s-.11-.09-.18-.11c-.26-.1-.55.03-.65.29v.02s-10.42,2.54-10.42,2.54c-.08-.14-.22-.24-.39-.26-.27-.02-.52.18-.55.46,0,0,0,.02,0,.03l-3.22.79-1.19-6.07,23.61-6.02Z"/>
      <path class="cls-18" d="m357.72,277.64c2.92,6.58,5.37,13.92,5.67,20.46.01.22,1.11,22.45-4.86,34.63-.08.21-7.87,20.96-16.31,33.27-.29.4-7.11,9.79-5.51,17.71.06.41,5.78,40.87,5.6,60.71l-15.87,4.05c-6.48-6.97-17.18-30.31-17.27-30.48-9.62-31.63-4.27-56.94-4.21-57.21,5.21-27.53,21.45-61.18,21.62-61.52.12-.25.01-.55-.24-.67-.25-.12-.55-.02-.68.24-.06.13-2.56,5.31-5.9,13.21l-2.97-3.05c-3.15-3.24-4.88-7.67-4.74-12.16l.59-19.17h5.16v-15.86c6.51-.16,12.6-.71,17.73-1.34-.26,1.89-.1,4.03.55,6.53.82,3.18,3.01,5.84,6,7.31,4.63,2.27,9.61,3.37,15.19,3.37.15,0,.29,0,.44,0Z"/>
      <path class="cls-38" d="m357.27,276.63c-5.4,0-10.25-1.06-14.73-3.26-2.73-1.33-4.72-3.76-5.47-6.66-.64-2.49-.79-4.58-.49-6.41,4.51-.58,8.21-1.21,10.69-1.68.99,1.48,5.86,8.91,10,18Z"/>
      <path class="cls-42" d="m336.43,252.47c.42-.08.85-.16,1.27-.25l.36,6.88c-.47.06-.95.13-1.44.19l-.19-6.82Z"/>
      <path class="cls-39" d="m347.59,249.52c.24-.08.49-.05.7.08.2.13.33.33.36.57l.62,5.7c.08.75-.42,1.43-1.17,1.58-1.98.39-5.11.95-9.03,1.51l-.36-6.96c2.95-.66,5.92-1.47,8.89-2.48Z"/>
      <path class="cls-35" d="m346.62,203.69l-.29,1.41c-.29,1.38-6.83,33.43.1,43.75-2.69.88-5.38,1.61-8.06,2.2-.07-.03-.14-.04-.22-.03-.14,0-.26.07-.35.16-16.77,3.6-32.82,2.02-42.67.28-.03,0-.07-.02-.1-.03-.01,0-.02,0-.03,0-2.49-.44-4.58-.9-6.17-1.28l2.72-12.91c1.14-5.26,1.71-10.65,1.71-16.03v-12.16c0-.87-.27-1.73-.78-2.49-3.26-4.85-4.21-8.75-4.46-10.13h.03l-.12-.6c-3.02-14.86,16.33-24.34,16.53-24.43.25-.12.36-.42.23-.67-.12-.25-.42-.35-.68-.23-.13.06-7.92,3.87-13.04,10.5,1.38-16.01,13.3-17.6,17.31-18.13.08-.01.15-.04.22-.05l7.69,14.87,25.42-13.29c2.2.09,6.47.63,11.15,3.21,3.73,2.05,6.71,5.29,8.61,9.36,2.81,6.01,7.85,16.88,10.23,22.79-7.21,4.91-17.37,9.26-21.42,10.9l-3.58-6.99Z"/>
      <path class="cls-22" d="m349.94,214.71l-.72-2.56c2.53-.99,15.62-6.26,23.95-12.22l1.47,1.94c-1.97,1.41-11.01,7.6-24.7,12.84Z"/>
      <path class="cls-17" d="m442.99,194.34c-.5.23-5.31,2.3-14.45,1.1l-1.1-.14,5.85,8.81c.07.23.29,1.17-.15,1.86-.29.45-.84.73-1.63.83-.48-.06-4.43-.71-8.35-4.81l-.63-.66-.23.88c-.05.21-1.4,5.06-10.38,3.41-.27-.05-.54.13-.59.4-.05.27.13.53.41.58.51.09.99.16,1.46.22-8.38,19.18-22.3,33.61-26.4,37.61-1.19,1.16-2.36,2.04-3.58,2.68-1.73.91-3.49,1.41-5.24,1.49-2.72.13-5.5-.99-7.61-3.08-8.09-8.05-16.63-27.5-18.01-30.69,8.82-3.56,15.53-7.4,19.43-9.86.56,3.35,3.12,16.52,8.99,17.67.15.05.51.16,1.1.16,2.64,0,9.77-2.1,22.17-20.19l.27-.4-.4-.28c-.07-.05-7.01-5.21-2.5-17.96.31-.86.47-1.71.49-2.54l.34-15.33c.02-1.1.6-2.07,1.5-2.52.52-.26,1.02-.31,1.53-.13.6.21,1.09.74,1.35,1.44.72,2.01,2.45,7.34,2.99,13.25.08.91.7,1.66,1.58,1.91.87.25,1.82-.02,2.42-.69l9.94-11.18c.45-.5,1.07-.81,1.72-.85.6-.03,1.05.08,1.34.34.27.24.42.64.44,1.18.02.37-.09.76-.29,1.15l-6.14,11.4c-.43.8-.26,1.79.42,2.41.68.61,1.68.69,2.44.18l12.55-8.31c.23-.04.93-.1,1.37.28.34.29.49.81.45,1.54l-8.88,10.7c-.06.07-.09.16-.1.24l-2.24-.16c-.28-.03-.52.19-.54.46-.02.28.19.52.47.54l15.62,1.15c.59.02,1.12.29,1.46.75.78,1.05.53,2.2-.68,3.18Z"/>
      <path class="cls-1" d="m412.94,184.35c-.2.19-.22.5-.03.71.03.04,3.4,3.7,2.77,9.26-.03.27.17.52.45.55.02,0,.04,0,.06,0,.25,0,.47-.19.5-.44.68-6.03-2.89-9.89-3.04-10.05-.19-.2-.51-.21-.71-.03Z"/>
      <ellipse class="cls-3" cx="306.72" cy="108.47" rx="5.47" ry="6.75"/>
      <ellipse class="cls-3" cx="321.31" cy="107.85" rx="5.47" ry="6.75"/>
      <ellipse class="cls-7" cx="341.31" cy="114.48" rx="8.57" ry="8.46"/>
      <path class="cls-11" d="m306.39,101.74s-1.57-.14-3,1.08c-.07.06-.13.11-.2.18-.45.43-.88,1.02-1.23,1.8-.43.97-.6,2.04-.6,3.1,0,3.21,1.35,8.21,7.43,6.95"/>
      <path class="cls-10" d="m303.52,102.71c-1.63,1.75-5.36,1.12-5.36,1.12,0,0,1.84.72,3.97.62"/>
      <path class="cls-10" d="m302.09,104.92c-1.6,1.07-3.52.74-3.52.74,0,0,1.64.66,2.97.53"/>
      <path class="cls-11" d="m321.8,101.11s1.57-.14,3,1.08c.07.06.13.11.2.18.45.43.88,1.02,1.23,1.8.43.97.6,2.04.6,3.1,0,3.21-1.35,8.21-7.43,6.95"/>
      <path class="cls-10" d="m324.67,102.09c1.63,1.75,5.36,1.12,5.36,1.12,0,0-1.84.72-3.97.62"/>
      <path class="cls-10" d="m326.1,104.29c1.6,1.07,3.52.74,3.52.74,0,0-1.64.66-2.97.53"/>
      <ellipse class="cls-7" cx="293.33" cy="119.25" rx="8.57" ry="8.46"/>
      <path class="cls-9" d="m312.95,110.59s.91-.47,2.12-.31"/>
      <path class="cls-37" d="m310.87,117.31c.91.33,2.02.5,3.21.5.4,0,.82-.02,1.23-.06,3.54-.34,6.17-2.02,5.99-3.81-.09-.91-.87-1.67-2.18-2.15-1.23-.45-2.81-.6-4.44-.44-3.54.34-6.17,2.02-5.99,3.81.09.91.87,1.67,2.18,2.15Z"/>
      <path class="cls-41" d="m314.75,112.09c.39-.04.78-.06,1.16-.06,1.09,0,2.11.16,2.94.46,1.01.37,1.63.92,1.69,1.52.12,1.19-1.99,2.67-5.31,3-1.52.15-2.98,0-4.11-.4-1.01-.37-1.63-.92-1.69-1.52-.12-1.19,1.99-2.67,5.31-3Z"/>
      <path class="cls-37" d="m340.26,112.97c-.94-1.88-3.06-1.99-4.06-1.79-.2.04-.34.24-.29.44.04.2.25.33.45.29.05-.01.78-.14,1.57.07l-.37.53c-13.51,19.29-30.13,11.72-30.29,11.64-.18-.09-.42-.01-.51.18s-.01.41.18.5c.05.03,1.73.79,4.43,1.26,0,0,0,0,0,0,.05.03,5.06,3.19,6.52,11.53-.67-.5-1.32-1.11-1.91-1.88-.13-.17-.37-.2-.53-.07-.17.13-.2.36-.07.53.84,1.1,1.79,1.91,2.79,2.52,0,0,0,0,0,0,1.9,1.16,3.96,1.55,5.85,1.55.94,0,1.82-.1,2.63-.23,0,0,0,0,0,0,.01,0,.03,0,.05,0,.01,0,.03,0,.04-.01.53-.09,1.04-.2,1.48-.31,1.83-.48,3.49-1.56,4.67-3.05,2.13-2.69,3.47-5.88,4.3-9.03.03-.05.04-.11.04-.17.89-3.45,1.18-6.86,1.22-9.53.02-.06.02-.12,0-.18.04-2.99-.21-5.03-.22-5.08l-.08-.63c.54.19,1.07.56,1.42,1.25.07.13.2.21.34.21.06,0,.11-.01.17-.04.19-.09.26-.32.17-.5Z"/>
      <path class="cls-33" d="m332.3,136.21c-1.08,1.36-2.59,2.35-4.26,2.78-.31.08-.66.16-1.02.23-.09-1.86.12-9.4,9.32-11.27-.82,2.9-2.08,5.79-4.03,8.25Z"/>
      <path class="cls-21" d="m336.54,127.15c-10.17,1.86-10.36,10.35-10.28,12.21-2.2.33-5.01.29-7.5-1.15-.52-3.55-1.63-6.23-2.83-8.2,1.87-.02,7.13-.36,12.77-3.35,3.51-1.86,6.53-4.42,8.98-7.61-.1,2.39-.41,5.22-1.13,8.1Z"/>
      <path class="cls-2" d="m328.34,125.99c-6.06,3.2-11.8,3.27-12.89,3.25-.94-1.38-1.88-2.34-2.58-2.95,6.13.66,16.01-.66,24.71-12.53.07.87.14,2.26.12,3.97-2.49,3.51-5.64,6.29-9.37,8.26Z"/>
      <path class="cls-37" d="m310.12,110.79c.74,0,1.32-.81,1.32-1.84s-.58-1.84-1.32-1.84-1.32.81-1.32,1.84.58,1.84,1.32,1.84Z"/>
      <path class="cls-19" d="m310.12,107.85c.26,0,.56.47.56,1.09s-.29,1.09-.56,1.09-.56-.47-.56-1.09.29-1.09.56-1.09Z"/>
      <path class="cls-37" d="m319.36,109.87c.74,0,1.32-.81,1.32-1.84s-.58-1.84-1.32-1.84-1.32.81-1.32,1.84.58,1.84,1.32,1.84Z"/>
      <path class="cls-19" d="m319.36,106.93c.26,0,.56.47.56,1.09s-.29,1.09-.56,1.09-.56-.47-.56-1.09.29-1.09.56-1.09Z"/>
      <path class="cls-37" d="m324.1,96.64c1.07.26,3.69,1.06,4.84,2.97.1.17.28.26.47.26.03,0,.07,0,.1,0,.22-.04.38-.21.42-.43.08-.51.14-1.3-.08-2.21-.48-2.01-2.54-3.37-4.6-3.02-.74.13-1.31.42-1.7.88-.21.25-.27.59-.17.91.11.33.38.57.71.65Z"/>
      <path class="cls-15" d="m324.14,95.56c.26-.32.68-.52,1.24-.62.18-.03.35-.04.53-.04,1.48,0,2.85,1.03,3.2,2.5.12.49.14.94.13,1.32-1.34-1.71-3.64-2.48-4.96-2.8-.08-.02-.15-.08-.17-.16-.01-.04-.03-.12.03-.19Z"/>
      <path class="cls-37" d="m303.31,96.07c-2.04-.35-4.11,1-4.6,3.02-.22.92-.16,1.71-.08,2.21.04.22.2.39.42.43.03,0,.07,0,.1,0,.19,0,.37-.1.47-.26,1.15-1.91,3.77-2.71,4.84-2.97.34-.08.6-.32.71-.65.11-.31.04-.65-.17-.91-.38-.46-.96-.75-1.7-.88Z"/>
      <path class="cls-15" d="m304.46,97.62c-.03.08-.09.14-.17.16-1.32.32-3.61,1.09-4.96,2.8-.01-.36.01-.82.13-1.32.35-1.46,1.72-2.5,3.2-2.5.18,0,.35.01.53.04.56.09.97.3,1.24.62.06.07.05.15.03.19Z"/>
      <ellipse class="cls-2" cx="310.12" cy="108.03" rx=".44" ry=".44"/>
      <ellipse class="cls-2" cx="319.24" cy="107.15" rx=".44" ry=".44"/>
    </g>
  </g>
</svg>