<?xml version="1.0" encoding="UTF-8"?>
<svg id="Capa_2" data-name="Capa 2" xmlns="http://www.w3.org/2000/svg" viewBox="0 0 440.15 524.23">
  <defs>
    <style>
      .cls-1 {
        fill: #c68e8e;
      }

      .cls-2, .cls-3, .cls-4 {
        fill: #fff;
      }

      .cls-5 {
        fill: #181411;
      }

      .cls-6 {
        fill: #ea567e;
      }

      .cls-6, .cls-7 {
        opacity: .35;
      }

      .cls-8 {
        stroke: #c19083;
        stroke-linecap: round;
        stroke-width: .25px;
      }

      .cls-8, .cls-9, .cls-10, .cls-4, .cls-11 {
        stroke-miterlimit: 10;
      }

      .cls-8, .cls-10 {
        fill: none;
      }

      .cls-12 {
        fill: #fdffff;
      }

      .cls-13 {
        fill: #d0cfd0;
      }

      .cls-14 {
        fill: #260e0c;
      }

      .cls-15 {
        fill: #ede891;
      }

      .cls-16 {
        fill: #e2b8ac;
      }

      .cls-17 {
        fill: #3d8284;
      }

      .cls-18 {
        fill: #200d09;
      }

      .cls-19 {
        fill: #c69d7b;
      }

      .cls-3 {
        opacity: .8;
      }

      .cls-20 {
        fill: #3d1910;
      }

      .cls-21 {
        fill: #cc3232;
      }

      .cls-22 {
        fill: #f2c9a7;
      }

      .cls-23 {
        fill: #a9cfd3;
      }

      .cls-7 {
        fill: #e88745;
      }

      .cls-24 {
        fill: #c9a2cb;
      }

      .cls-25 {
        fill: #b18077;
      }

      .cls-26 {
        fill: #dfc3e5;
      }

      .cls-27 {
        fill: #d68f7f;
      }

      .cls-9 {
        fill: #26100d;
      }

      .cls-9, .cls-10 {
        stroke: #26100d;
        stroke-width: .5px;
      }

      .cls-28 {
        fill: #336b91;
      }

      .cls-29 {
        fill: #edbab7;
      }

      .cls-30 {
        fill: #ce3434;
      }

      .cls-31 {
        fill: #e54850;
      }

      .cls-32 {
        fill: #8e8b2d;
        opacity: .66;
      }

      .cls-33 {
        fill: #c184ad;
      }

      .cls-4, .cls-11 {
        stroke: #1d1d1b;
      }

      .cls-34 {
        fill: #aed4ed;
      }

      .cls-35 {
        fill: #e4f2f4;
      }

      .cls-36 {
        fill: #a0ccea;
      }

      .cls-11, .cls-37 {
        fill: #1d1d1b;
      }

      .cls-38 {
        fill: #80b2a8;
      }

      .cls-39 {
        fill: #4f2e18;
      }

      .cls-40 {
        fill: #261f1a;
      }

      .cls-41 {
        fill: #c19083;
      }

      .cls-42 {
        fill: #cd9e73;
      }
    </style>
  </defs>
  <g id="Capa_6" data-name="Capa 6">
    <ellipse class="cls-32" cx="216.39" cy="488.63" rx="210.85" ry="35.6"/>
  </g>
  <g id="andres">
    <path class="cls-11" d="m230.88,269.37c6.05-2.56,6.66-5.23,6.47-7.51-.13-1.53-1.3-2.74-2.84-2.94-2.72-.35-6.74-1.81-6.76-1.81-3.25-1.37-5.8-4.94-7.38-7.69-1.56-2.73-4.48-4.42-7.61-4.42h-.18c-2.92-.73-3.84-3.72-3.85-3.75l-.07-.14c-2.06-3-4.3-18.61-4.32-18.76-3.84-27.78-15.55-59.13-16.98-62.88,1.71-1.12,3.46-2.59,5.03-4.56l.23-.28-2.55-3.94-1.36,1.28c-5.15-9.29-19.99-34.22-20.16-34.5-5.62-8.23-11.86-12.31-13.71-13.41.07-.08.14-.15.21-.24.41-.5.39-1.25-.05-1.74l-1.18-1.34c-.28-.32-.67-.5-1.09-.53-.42-.02-.83.12-1.14.41h0s-.08.06-.11.09c-.54-2.45-.37-5.11-.28-6.06,4.28-.5,9.98-1.91,15.53-5.58.02.91-.1,2.17-.7,2.65l-.54.43.58.38c.33.21,1.25.98,1.17,1.64-.05.49-.67.98-1.73,1.38-.26.1-.39.39-.29.65.08.2.27.32.47.32.06,0,.12-.01.18-.03,1.47-.56,2.27-1.31,2.37-2.21.1-.97-.64-1.79-1.16-2.23.63-.9.69-2.28.65-3.15,1.57.44,5.36,1.23,8.28-.26,1.51-.77,2.56-2.04,3.14-3.77,1.11-.2,4.46-1.17,4.67-5.7.51-.5,1.98-2.18,2.23-5.15.5-.59,2.16-2.89.75-5.81,2.69-2.62,3.54-5.77,3.77-7.95.67.47,1.65,1.34,1.81,2.56.17,1.34-.69,2.82-2.55,4.39l-.84.71,1.09.17c.58.09,1.29.38,1.33.62,0,.02.07.59-2.19,1.77-.24.13-.34.43-.21.68.09.17.26.27.44.27.08,0,.16-.02.23-.06,2-1.05,2.86-1.95,2.71-2.83-.1-.62-.68-.98-1.22-1.19,1.65-1.59,2.39-3.15,2.2-4.66-.25-1.97-2.02-3.17-2.72-3.57.01-.56,0-.98-.02-1.24,2.29-2.05,1.88-4.71,1.62-5.68,1.32-1.01,1.98-2.17,1.97-3.43-.02-1.94-1.64-3.57-2.56-4.34,1.3-.83,1.92-1.75,1.85-2.73-.14-1.92-2.95-3.3-4.21-3.83,1.18-2.14,1.42-3.86.71-5.12-.77-1.37-2.44-1.77-3.34-1.88.6-3.09.24-5.4-1.09-6.87-1.23-1.37-2.94-1.63-3.87-1.66.39-2.4-.03-4.22-1.23-5.42-1.75-1.74-4.64-1.61-5.96-1.45.21-2.08-.25-3.66-1.39-4.68-1.83-1.65-4.85-1.32-6.15-1.08-.11-2.16-.79-3.65-2.05-4.44-1.76-1.1-4.09-.45-5.14-.06-.52-1.65-1.44-2.77-2.74-3.32-2.34-.99-5.17.18-6.27.72-.61-1.01-1.45-1.66-2.49-1.95-2.16-.6-4.53.59-5.27,1.02-1.08-.44-5.43-2.03-8.76-.4-1.61.79-2.73,2.21-3.32,4.22-1.23-.39-4.37-1.15-6.75.16-1.24.68-2.09,1.82-2.52,3.38-1.01-.51-3.13-1.31-5.3-.52-2.09.76-3.65,2.78-4.65,5.99-.94.01-3.27.22-4.8,1.92-1.13,1.26-1.56,3.05-1.27,5.31-1.21-.11-3.73-.11-5.54,1.45-1.35,1.17-2.02,2.96-1.97,5.33-.9.41-3.34,1.73-3.95,4.15-.43,1.69.14,3.53,1.66,5.48-3.16,1.13-5.56,3.97-6.18,7.48-.7,3.92-1.02,9.73,1.85,13.85-.38.8-1.26,3.01-.4,4.75.49.99,1.44,1.64,2.83,1.94-.21,1.06-.49,3.46.75,5.21.75,1.06,1.9,1.69,3.45,1.89,0,1.12.21,3.86,1.98,5.04,1.02.68,2.35.71,3.97.11-.22.93-.33,2.22.44,3.06.76.83,2.1.96,4.08.4-.21,1.79-.39,5.84,1.99,6.8l.55.22.13-.58s.79-3.47,3.81-3.64c.43.26,1.72.94,3.07.76,0,.62.15,1.44.81,1.99-.14.48-.28,1.32.13,2.02.32.55.9.89,1.71,1.03.08.43.29,1.06.86,1.45.32.22.69.32,1.12.32s.92-.11,1.45-.32c.26-.1.38-.39.28-.65-.1-.26-.39-.38-.65-.28-.51.21-1.21.39-1.64.1-.47-.31-.48-1.06-.48-1.07v-.47s-.46-.03-.46-.03c-.68-.05-1.13-.25-1.33-.58-.29-.49-.06-1.25.06-1.5l.19-.43-.41-.22c-.67-.36-.68-1.25-.63-1.7,0,0,.02,0,.02-.01,3.62,3.16,8.58,6.41,14.88,8.23.42.78,2.32,4.58,1.03,7.48-.59-.25-1.28-.13-1.71.38l-2.24,2.61c-1.06.42-8.15,3.59-12.91,15.31-.27.67-.52,1.42-.78,2.36-.99,3.61-4.97,14.75-10.39,19.6-.55-.66-.85-1.06-.87-1.08l-.35-.47-3.44,3.44.24.34c2.8,4.07,6.29,7.51,9.85,10.35-.93,1.97-6.26,12.15-16.62,12.15h-.02c-.11.02-11.81,1.16-31.25-21.41.63-1.58,3.18-8.99-.57-18.14-.51-1.24-.44-2.61.18-3.76,1.26-2.34,3.71-5.57,8.23-7.62,1.47-.67,2.34-2.14,2.16-3.66-.27-2.3-1.52-6.36-6.95-7.63-2.07-.48-4.27-.28-6.17.56-2.89,1.28-7.97,4.71-9.94,13.31-1.26-.56-4.33-1.67-7.64-.96-.44-2.66-2.94-14.04-14.19-20.69-1.18-.69-2.36-1.11-3.52-1.23-3.21-.32-5.35,1-6.02,3.75-.17.7,0,1.48.45,2.07l12.52,16.54c.23.31.21.73-.05,1.01-.29.3-.75.35-1.08.1-3.74-2.81-16.64-11.76-25.62-8.95-1.97.62-3.41,2.27-3.76,4.32-.34,1.98.05,3.79,1.13,5.24,1.04,1.4,2.71,2.33,4.6,2.56,10.56,1.28,17.64,3.19,18.59,4.99l-.05.72c-3.13-.33-18.7-1.6-24.26,5.41-.11.12-2.63,2.95-2.07,5.94.31,1.64,1.48,2.98,3.51,4,.22.09,5.43,2.09,19.31-4,.18-.08.39-.08.57,0,.18.08.3.23.36.42.05.18-.04.36-.21.43-2.49.99-10.94,4.71-15.12,11.16-1.25,1.93-1.77,4.13-1.46,6.21.24,1.68.95,2.94,2.1,3.75,1.47,1.04,3.62,1.28,6.39.72.43-.09.85-.25,1.25-.49,1.82-1.07,8.34-4.93,16.87-9.94.46-.27,1.05-.23,1.46.1,2.56,2.07,11.54,8.27,20.73,2.06,2.56,2.96,19.88,22.59,32.67,27.19.08.03,3.02,1.15,7.55,1.15,7.46,0,19.21-3.04,29.46-18.99,3.04,1.46,5.07,2.18,5.13,2.2l.46.16,1.87-4.85-.49-.17c-.06-.02-.12-.05-.19-.07,1.05-2.35,1.48-7.49,1.63-11.99,1.68,9.89,4.9,32.26,2.4,46.11-.03.23-3.38,23.7-10,42.22-.59,1.66-1.2,3.24-1.81,4.72l-.28.69h5.45c-.87,6.16-8.74,61.43-17.72,97.89-.1.43-10.56,43.17-17.15,68.26-.09.34-.24.64-.45.92,0,0,0,0,0,0,0,0,0,0,0,0-.13.17-.27.34-.44.48l-10.73,9.05c-.36.31-.58.75-.59,1.23s.18.93.53,1.25l3.94,3.65-7.65,7.65c-.36.36-.53.86-.47,1.36.06.5.35.94.78,1.19,1.93,1.15,6.55,3.46,14.51,5.07v7.5l-12.62,6.77c-2.67-.65-31.33-6.91-40.06,21.22,0,0,0,0,0,0,0,0,0,0,0,.01-.33,1.05-.62,2.15-.88,3.26-.28,1.2.12,2.45,1.02,3.27,3.35,3.01,13.9,10.72,33.8,10.72,6.78,0,14.66-.9,23.7-3.18.19-.03,18.88-2.89,32.34-14.2l.16-.14v-.21c.02-.07.19-2.87.33-7.46,5.01,6.53,10.89,11.97,14.06,14.72,1.35,1.17,2.86,2.1,4.5,2.77,10.98,4.48,16.77,4.53,16.96,4.52,14.6,1.83,26.03,2.57,34.97,2.57,18.94,0,26.71-3.34,29.68-6.79,1.79-2.08,1.55-3.93,1.46-4.35.37-8.47-4.22-14.29-4.45-14.58-12.18-12.17-29.82-5.22-31.7-4.42-26.96-6.59-28.9-16.81-29-18.92,6.31-.48,11.51-1.3,14.22-1.79.67-.12,1.2-.57,1.43-1.21.23-.64.1-1.33-.34-1.85l-5.23-6.15,4.72-8.09c.45-.78.42-1.73-.07-2.48l-.9-1.36c-.47-.71-.71-1.53-.67-2.37.75-19.06,5.02-53.14,5.06-53.48,4.98-40.32,5.64-78.66,5.72-87.64.82,2.31,2.29,6.54,2.18,13.08-.02,1,.43,1.91,1.18,2.43.31.21.61.31.91.33-.54,1.05-.76,2.31-.59,3.6.19,1.45.87,2.61,1.86,3.18.49.28,1.04.42,1.65.42.57,0,1.2-.13,1.86-.38.57.43,1.44.87,2.39.87.76,0,1.58-.28,2.32-1.05.79.85,1.9,1.34,3.04,1.34.28,0,.57-.03.85-.09,2.37-.5,5.61-2.58,7.62-9.6.03-.11,2.52-10.58,1.25-22.11,2.8,1.8,5.44,2.3,7.47,2.3,2.27,0,3.78-.6,3.9-.65Z"/>
    <path class="cls-24" d="m188.95,153.11l.94-.88,1.51,2.32c-4.6,5.53-10.73,6.94-12.38,7.22-.2-.87-.4-1.75-.61-2.63,6.07-.91,10.24-5.69,10.54-6.04Z"/>
    <path class="cls-26" d="m167.71,118c.15.26,15.25,25.62,20.27,34.7-.94,1.01-4.74,4.76-9.8,5.48-2.54-10.77-5.61-22.11-8.6-28.99-.32-.74-7.68-17.94-15.55-24.27.04-.04.08-.08.12-.11,1.48.87,7.92,4.94,13.56,13.19Z"/>
    <path class="cls-40" d="m185.22,73.45l-.13.13v.19c-.23,3.2-2.06,4.76-2.07,4.78l-.18.15v.23c-.12,4.68-3.94,4.98-4.1,4.99l-.35.02-.1.34c-.47,1.62-1.39,2.78-2.73,3.47-2.44,1.25-5.72.66-7.3.25,3.06-2.27,6.03-5.28,8.63-9.25.37-.56.74-1.13,1.14-1.68.68-.95,1.99-2.94,3.3-5.72,2.11-.42,3.89-1.72,4.72-2.42,1.06,2.58-.74,4.44-.82,4.52Z"/>
    <path class="cls-29" d="m185.85,67.76s-1.76,1.74-4,2.44c1.63-3.76,3.11-8.73,3.21-14.47.27-.04.52-.09.72-.14.18,1.01.61,1.76,1.3,2.22.6.41,1.29.53,1.88.53.27,0,.5-.03.7-.06.05,1.55-.14,6.11-3.81,9.48Z"/>
    <path class="cls-40" d="m95.19,32.92c.61-2.42,3.64-3.59,3.67-3.61l.34-.13-.02-.36c-.11-2.21.43-3.85,1.61-4.87,2.03-1.76,5.35-1.14,5.39-1.14l.72.14-.13-.72c-.41-2.27-.1-3.99.92-5.13,1.57-1.76,4.37-1.58,4.39-1.58l.4.03.11-.39c.9-3.1,2.29-5.01,4.13-5.69,2.47-.91,5,.74,5.02.75l.63.41.14-.74c.31-1.6,1.04-2.73,2.18-3.35,2.56-1.41,6.4.06,6.43.07l.54.21.13-.56c.47-1.99,1.46-3.37,2.92-4.09,3.32-1.63,8.1.49,8.15.52l.25.11.23-.14s2.58-1.62,4.7-1.03c.9.25,1.61.88,2.11,1.88l.24.48.46-.27s3.39-1.93,5.83-.9c1.13.48,1.91,1.56,2.32,3.19l.15.6.55-.27s2.9-1.37,4.72-.22c1.06.66,1.59,2.08,1.59,4.21v.65s.63-.17.63-.17c.04-.01,3.91-1.02,5.83.72.98.89,1.31,2.39.98,4.45l-.12.72.72-.15s3.85-.8,5.73,1.07c1.05,1.04,1.33,2.77.84,5.12l-.14.67.68-.07s2.3-.22,3.68,1.33c1.17,1.31,1.41,3.51.73,6.55l-.14.6h.62s2.3.04,3.08,1.43c.56,1.01.22,2.6-.99,4.62l-.31.52.57.21c1.03.37,4,1.75,4.11,3.18.06.87-1.05,1.66-1.99,2.16l-.73.39.69.47s2.72,1.86,2.74,3.99c0,1.01-.61,1.96-1.83,2.82l-.32.23.14.36c.05.12,1.1,2.96-1.34,5.03-.32.08-1.44.31-2.24-.24-.55-.38-.87-1.08-.93-2.08l-.05-.68-.63.24s-2.15.82-3.46-.1c-.75-.53-1.11-1.56-1.08-3.07v-.37s-.34-.12-.34-.12c-.12-.04-3.06-1.06-2.02-4.74l.32-1.13-1.03.55s-2.54,1.33-4.41.32c-1.22-.65-1.95-2.17-2.17-4.5l-.06-.65-.61.23s-4.12,1.52-6.2.08c-.8-.55-1.2-1.51-1.2-2.86v-.64l-.62.15s-2.07.5-3.39-.64c-.91-.79-1.28-2.2-1.08-4.19l.07-.69-.67.15s-2.17.48-3.33-.51c-.56-.48-.82-1.26-.76-2.32l.04-.74-.71.24c-1.39.48-3.96,2.14-3.73,5.03l.04.17s1.39,3.08-.02,4.38l-.15.14v.2c-.03.27-.12,2.61,1.07,3.49-.49.12-1,.13-1.46-.09-1.1-.52-1.71-2.32-1.75-5.21v-.29s-.26-.14-.26-.14c-.01,0-1.26-.71-1.59-2.06-.22-.9.02-1.9.72-2.97l.19-.29-.2-.28s-1.47-2.09-.64-4.12c.02-.05.04-.09.04-.1l-.92-.39s-.02.05-.03.08c-.19.42-1.36,2.86-3.66,3.77-1.4.56-2.98.45-4.69-.32l-.56-.25-.13.6s-.84,3.61-3.67,5.36c-1.64,1.01-3.64,1.23-5.96.65l-.45-.11-.14.45s-.89,2.7-3.21,3.81c-1.42.68-3.11.66-5.02-.08l-.31-.12-.23.24s-1.93,1.97-4.16,1.9c-1.12-.03-2.15-.57-3.06-1.62l-.75-.86-.12,1.13c-.04.41-.3,1.57-.96,1.99-.3.19-.66.21-1.11.07-.09-.03-.17-.03-.25-.01-1.46-2.77-4.37-6.37-9.27-5.27-1.5-1.8-2.08-3.46-1.72-4.91Z"/>
    <path class="cls-29" d="m90.68,45.8c.6-3.38,3.02-6.1,6.16-6.93.65-.17,1.26-.25,1.84-.25,5.28,0,7.43,6.57,7.71,7.53-.09.56-.48,3.08-.58,6.6-2.17-3.91-5.38-5.18-7.93-5.51-.02,0-.04-.02-.06-.03-.06-.01-.12,0-.18,0-2.14-.23-3.75.18-3.79.19-.27.07-.42.35-.35.61.07.27.35.43.61.35.13-.03,1.36-.35,3.03-.24-.75,4.57,1.01,8.23,1.09,8.39.09.18.26.28.45.28.07,0,.15-.02.22-.05.25-.12.35-.42.23-.67-.02-.04-1.7-3.56-.99-7.83,2.6.43,5.82,2.01,7.66,6.83.02,1.81.13,3.79.38,5.86-2.43,2.91-6.96,2.12-7,2.11-9.7-1.97-9.48-11.65-8.49-17.25Z"/>
    <path class="cls-40" d="m118.38,84.34c-1.33.4-2.83-.59-2.85-.61l-.13-.09h-.16c-2.71.06-4.17,2.22-4.72,3.77-1.29-1.22-1.02-4.78-.78-6.18l.14-.83-.8.27c-1.94.66-3.25.7-3.79.11-.69-.74-.16-2.48.11-3.08l.54-1.26-1.23.61c-1.75.88-3.1,1.01-4.01.41-1.73-1.14-1.53-4.59-1.53-4.63l.03-.5-.5-.03c-1.47-.1-2.53-.6-3.17-1.51-1.32-1.87-.49-4.87-.48-4.9l.16-.55-.57-.08c-1.34-.19-2.21-.69-2.61-1.48-.55-1.09-.13-2.55.21-3.41,1.49,1.71,3.65,3.04,6.73,3.66.2.04,4.52.8,7.36-1.83.73,4.83,2.29,9.99,5.4,14.3.05.08,2.25,3.77,6.65,7.81,0,0-.02.01-.02.02Z"/>
    <path class="cls-29" d="m112.59,75.97c-3.2-4.44-4.72-9.8-5.37-14.74.03-.05.06-.09.1-.14l-.13-.09c-1-7.9.19-14.67.21-14.78l.02-.11-.03-.11s-.22-.77-.68-1.81c.51.06.97-.04,1.37-.3.22-.14.39-.33.55-.53,1.06.73,3.91,2.9,3.98,5.05.03.92-.46,1.72-1.5,2.46l-.36.26.21.39s.75,1.39.33,2.66c-.23.71-.79,1.27-1.66,1.67l-.55.26.36.49s2.11,2.95.9,6.32c-.09.26.04.55.3.64.06.02.11.03.17.03.21,0,.4-.13.47-.33,1.09-3.05-.12-5.7-.73-6.76.85-.51,1.42-1.18,1.69-2.01.4-1.22.03-2.44-.22-3.05,1.09-.88,1.62-1.91,1.59-3.06-.09-2.68-3.36-5.13-4.48-5.89.05-.13.1-.26.14-.38.94.83,1.99,1.26,3.13,1.29,2.21.07,4.01-1.4,4.65-1.97,2.06.73,3.92.71,5.52-.06,2.13-1.02,3.18-3.07,3.56-3.97,2.41.51,4.53.22,6.3-.88,2.5-1.55,3.59-4.24,3.96-5.42.83.32,1.63.49,2.4.53-.03.7-.19,2.06-1.09,2.91-.68.65-1.68.91-2.98.76l-.57-.07v.57c.03.78-.17,2.94-1.25,3.54-.66.36-1.64.13-2.9-.7-.23-.15-.54-.09-.69.14-.15.23-.09.54.14.69,1.04.69,1.97,1.04,2.77,1.04.42,0,.81-.1,1.17-.29,1.4-.77,1.7-2.88,1.77-3.88,1.35.06,2.45-.3,3.25-1.08,1.18-1.13,1.38-2.83,1.4-3.67.53-.06,1.04-.18,1.53-.38,1.31-.52,2.28-1.44,2.97-2.3.14,1.09.6,1.99.86,2.42-.72,1.21-.95,2.38-.68,3.48.33,1.36,1.35,2.2,1.82,2.53.08,3.18.86,5.14,2.32,5.83,2,.95,4.39-.94,4.49-1.02l-.56-.82c-.61.36-1.08.45-1.39.26-.57-.35-.75-1.63-.73-2.48,1.57-1.7.37-4.73.13-5.29-.12-2,1.47-3.14,2.41-3.63.08,1.01.45,1.79,1.11,2.35,1.09.92,2.66.91,3.54.82-.08,2.01.41,3.49,1.47,4.41,1.21,1.05,2.82,1.04,3.68.95.11,1.4.65,2.44,1.61,3.1,1.99,1.38,5.19.63,6.52.23.33,2.34,1.21,3.91,2.63,4.67,1.57.84,3.37.44,4.43.07-.42,3.07,1.68,4.42,2.53,4.84.02,1.69.53,2.89,1.51,3.58.63.44,1.37.6,2.06.61-.21,10.58-5.26,18.49-6.83,20.69-.4.56-.78,1.13-1.16,1.71-2.7,4.12-5.81,7.17-9,9.43l-.5-.18.07.48c-10.7,7.32-22.16,5.86-22.36,5.83-21.17-.19-31.56-17.58-31.69-17.79Z"/>
    <path class="cls-29" d="m135.39,93.64c2.7.68,5.64,1.09,8.81,1.12.04,0,1.09.14,2.82.14.89,0,1.96-.04,3.17-.15-.1,1.2-.24,4.04.42,6.62-3.23,2.19-7.66,2.23-7.7,2.23-3.16-.08-5.56-1.34-6.94-2.3,1.31-2.74.17-6.04-.58-7.67Z"/>
    <path class="cls-24" d="m131.84,104.51l2.32-2.71c.1-.11.24-.17.38-.17.1,0,.21.03.3.1.07.05.16.11.23.17,0,0,0,0,0,0,0,0,0,0,0,0,1.41,1.05,4.13,2.62,7.82,2.71.22,0,5.08-.04,8.59-2.62,0,0,.01,0,.02-.01.26-.19.52-.4.76-.62.11-.1.27-.16.41-.15.15,0,.29.08.39.19l1.18,1.34c.11.13.12.33.02.45-4.22,5.19-10.65,4.38-10.78,4.37-5.61-.09-9.99-2.03-11.62-2.86-.04-.02-.06-.06-.06-.08s0-.06.03-.1Z"/>
    <path class="cls-29" d="m89.36,178.9c-13.32-4.79-32.37-27.02-32.56-27.25l-.3-.35-.37.27c-8.51,6.06-16.75.79-19.9-1.76-.73-.59-1.78-.67-2.6-.19-8.53,5.01-15.05,8.86-16.87,9.94-.31.18-.62.31-.94.37-2.49.5-4.38.31-5.62-.56-.92-.65-1.49-1.68-1.69-3.08-.27-1.84.2-3.8,1.31-5.52,4.02-6.21,12.23-9.82,14.65-10.78.65-.26.99-.96.8-1.63-.13-.46-.46-.84-.89-1.05-.44-.21-.95-.21-1.39-.02-13.39,5.88-18.48,4-18.49,4-1.7-.85-2.69-1.95-2.94-3.27-.47-2.5,1.8-5.06,1.85-5.11,5.73-7.22,23.71-5.02,23.89-5l.52.07.14-2.01-.04-.11c-1.24-3.06-12.71-4.88-19.44-5.7-1.61-.19-3.04-.98-3.91-2.16-.93-1.24-1.25-2.75-.95-4.47.29-1.67,1.47-3.03,3.07-3.53,8.52-2.68,21.08,6.05,24.72,8.79.74.56,1.78.46,2.41-.21.6-.64.65-1.6.12-2.3l-12.52-16.54c-.27-.36-.37-.82-.27-1.23.55-2.27,2.21-3.28,4.94-2.99,1.02.1,2.07.47,3.12,1.09,12.28,7.26,13.77,20.37,13.78,20.5l.06.59.57-.15c4.05-1.11,8,1.01,8.04,1.03l.59.32.14-.66c1.69-8.19,6.1-11.71,9.5-13.22,1.71-.76,3.68-.94,5.54-.5,4.59,1.07,5.9,4.27,6.19,6.77.13,1.09-.51,2.15-1.58,2.64-4.78,2.17-7.37,5.58-8.7,8.06-.76,1.42-.84,3.1-.22,4.61,3.98,9.7.49,17.57.46,17.65l-.13.29.21.24c19.9,23.22,31.84,22.05,32.27,21.99h.03c10.56,0,16.13-10.01,17.36-12.52,4.22,3.25,8.48,5.67,11.78,7.3-16,24.78-35.53,17.44-35.75,17.35Z"/>
    <path class="cls-37" d="m101.87,61.66c1.24,0,2.24-1.01,2.24-2.24s-1.01-2.24-2.24-2.24-2.24,1.01-2.24,2.24,1.01,2.24,2.24,2.24Z"/>
    <path class="cls-34" d="m101.87,58.17c.68,0,1.24.56,1.24,1.24s-.56,1.24-1.24,1.24-1.24-.56-1.24-1.24.56-1.24,1.24-1.24Z"/>
    <path class="cls-24" d="m131.02,163.08c-2.85-1.08-18.43-7.43-27.29-20.04l2.04-2.04c.2.25.5.62.86,1.04,0,.01,0,.02.02.03,0,0,.02.01.03.02,3.19,3.74,12.31,13.34,25.48,18.01l-1.15,2.97Z"/>
    <path class="cls-26" d="m127.77,235.94c6.65-18.61,10.01-42.18,10.04-42.39,3.26-18-3.04-50.11-3.29-51.39,0-1.63-.02-2.74-.03-2.91,0-.27-.23-.49-.5-.49h-.01c-.28,0-.5.24-.49.51,0,.16.33,15.59-1.63,19.65-12.22-4.54-20.81-13.32-24.12-17.14,5.61-5.02,9.7-16.41,10.71-20.1.25-.9.48-1.61.74-2.25,3.98-9.81,9.73-13.45,11.73-14.46.1.25.26.47.51.6,1.68.86,6.23,2.88,11.99,2.97.07,0,.54.07,1.27.07,1.87,0,5.45-.4,8.59-3.02,7.72,6.08,15.3,23.8,15.38,23.98,6.94,16,14.37,56.42,14.45,56.84,4.99,24.3,6.73,46.17,7,49.78h-62.42c.03-.09.06-.17.09-.26Z"/>
    <path class="cls-4" d="m192.91,236.27l-1.81-.06c-.21-2.84-1.45-18.66-4.78-38.06,3.28,10.3,9.13,30.33,10.15,45.04-.79.54-3.22,2.39-5.34,5.58v-7.76h1.73c.61,0,1.11-.5,1.11-1.11v-2.53c0-.6-.47-1.08-1.06-1.1Z"/>
    <path class="cls-24" d="m126.23,240.01c.36-.9.72-1.85,1.08-2.82h63.33l2.24.08c.05,0,.1.05.1.1v2.53c0,.06-.05.11-.11.11h-66.63Z"/>
    <path class="cls-36" d="m190.14,241.01v9.44c-.12.22-.24.42-.35.65l-8.09-10.09h8.44Z"/>
    <path class="cls-36" d="m131.2,241.01h10.32l-12.47,14.62c1.18-7.75,1.94-13.11,2.15-14.62Z"/>
    <path class="cls-31" d="m95.77,447.13v-7.91c3.93.74,8.62,1.3,14.15,1.49v5.7l-16.79,14.73c-3.75-4.39-7.86-6.55-9.73-7.37l12.38-6.64Z"/>
    <path class="cls-30" d="m110.92,446.86v-6.12c.95.02,1.92.04,2.92.04,5.15,0,10.96-.33,17.46-1.11.26,5.03.37,9.85.4,14.22-2.35.69-14.22,5.05-14.63,23.15-8.04,3.46-14.5,5.13-16.45,5.59-.19-9.56-3.27-16.2-6.86-20.7l17.16-15.05Z"/>
    <path class="cls-12" d="m82.08,454.31c.43.14,17.21,5.98,17.55,28.54-33.84,9.01-54.06-6.35-56.48-8.33,8.94-28.06,37.67-20.56,38.94-20.21Z"/>
    <path class="cls-13" d="m131.26,473.78c-13.22,11.01-31.49,13.81-31.72,13.85-35.14,8.87-52.24-3.35-56.64-7.3-.64-.57-.91-1.45-.72-2.3.19-.84.41-1.66.65-2.47,2.82,2.21,15.47,11.12,36.2,11.12,6.33,0,13.42-.83,21.21-2.94.11-.02,7.67-1.63,17.46-5.88.03-.01.06-.02.09-.04,4.26-1.85,8.94-4.21,13.62-7.14-.07,1.61-.13,2.69-.15,3.12Z"/>
    <path class="cls-12" d="m131.71,457.21c0,2.73-.04,5.22-.1,7.4-.17.17-.21.44-.06.64.01.02.03.04.04.06-.04,1.56-.09,2.95-.13,4.13-4.57,2.92-9.16,5.27-13.37,7.14.57-16.7,10.96-20.88,13.62-21.67,0,.77,0,1.53,0,2.27,0,0,0,.02,0,.02Z"/>
    <path class="cls-28" d="m132.23,438.54c-.05-.24-.26-.43-.51-.4-.27.01-.49.25-.47.52-31.66,3.81-46.61-3.26-50.48-5.56-.17-.1-.28-.27-.3-.46-.02-.2.04-.39.18-.53l7.72-7.72c1.43.95,6.98,4.3,14.11,4.3.82,0,1.66-.04,2.52-.14.27-.03.47-.28.44-.55s-.28-.47-.55-.44c-8.83,1.02-16.03-4.03-16.26-4.2l-4.3-3.98c-.14-.13-.21-.3-.21-.49s.09-.36.23-.49l10.73-9.05c.1-.08.19-.18.28-.27,1.51,1.02,7.37,4.47,18.28,4.81h.02c.27,0,.49-.21.5-.48,0-.28-.21-.51-.48-.52-10.49-.33-16.27-3.67-17.71-4.62.15-.27.27-.54.35-.84,6.59-25.1,17.05-67.84,17.15-68.27,6.36-25.82,12.16-61.04,15.32-81.64l14.07-16.49h18.18c.31,4.8,0,9.87-.96,15.88-5.5-.62-9.2-2.82-9.26-2.86-.24-.14-.54-.07-.69.17-.14.24-.07.54.17.69.06.04,3.91,2.33,9.64,2.99l-20.65,137.76c-.12.84-.18,1.69-.18,2.54v32.96c0,.91-.34,1.78-.95,2.46l-3.72,4.12c-.36.4-.86.66-1.4.73-.26.03-.52.06-.78.1Z"/>
    <path class="cls-30" d="m132.29,439.54c.28-.04.56-.07.85-.1.66-.09,1.26-.38,1.75-.82,7.01,2.8,15.42,3.77,23.35,3.86.41.73,1.93,3.55,5.41,10.89,2.97,6.27,8.14,11.18,14.56,13.83,4.18,1.72,8.03,2.71,11.47,2.97-1.8,3.33-3.35,7.75-3.99,13.48-7.19-.45-13.02-1.15-16.18-1.58-2.15-.29-4.26-.9-6.27-1.79l-10.73-4.78c-1.64-.73-3.11-1.75-4.38-3.02l-.74-.75c-1.41-9.47-4.81-12.2-5.33-12.56-3.75-4.05-7.82-4.05-9.35-3.88-.01-4.75-.12-10.12-.41-15.74Z"/>
    <path class="cls-12" d="m146.17,470.5l-13.46-13.51c0-.23,0-.47,0-.71,1.21-.16,5.06-.31,8.65,3.6l.1.08s3.18,2.16,4.71,10.54Z"/>
    <path class="cls-13" d="m231.97,483.74c-3.45,4-16.32,9.82-63.83,3.87-.06,0-5.88-.06-16.64-4.45-1.53-.62-2.95-1.5-4.22-2.6-3.31-2.87-9.57-8.67-14.68-15.57.05-1.96.08-4.17.1-6.59l14.72,14.77c1.35,1.36,2.93,2.44,4.68,3.23l10.73,4.78c2.09.93,4.29,1.56,6.54,1.87,4.95.68,16.35,2.01,29.38,2.01,11.32,0,23.87-1.02,34.5-4.33,0,.62-.18,1.73-1.28,3.01Z"/>
    <path class="cls-12" d="m198.3,462.01c.47-.21,18.51-8.05,30.69,4.12.05.06,4.43,5.64,4.2,13.59-14.54,4.58-32.81,4.77-46.5,3.98.66-5.83,2.32-10.26,4.2-13.55.14-.08.24-.23.25-.41,0,0,0-.02,0-.02,3.25-5.49,7-7.62,7.16-7.71Z"/>
    <path class="cls-31" d="m196.83,461.76c-1.44,1.01-4.17,3.3-6.6,7.43-3.45-.19-7.36-1.17-11.64-2.93-6.19-2.55-11.17-7.28-14.04-13.33-2.97-6.27-4.5-9.22-5.16-10.45.03,0,.06,0,.09,0,2.96,0,5.84-.12,8.53-.3.08,2.57,2.15,12.82,28.81,19.57Z"/>
    <path class="cls-28" d="m186.26,363.22c-.04.34-4.31,34.46-5.07,53.57-.01.33.02.66.07.98-4.77,1.51-12.94-.13-13.02-.15-.27-.06-.53.12-.59.39s.12.54.39.59c.24.05,4.05.82,8.05.82,1.9,0,3.82-.19,5.43-.7.13.35.29.7.51,1.02l.9,1.36c.29.43.3.97.04,1.42l-4.79,8.2c-11.36,2.41-19.43.31-19.51.29-.27-.07-.54.09-.61.35-.07.27.09.54.35.61.21.06,3.51.92,8.86.92,3.07,0,6.82-.29,11.04-1.18l5.26,6.19c.21.24.27.57.16.87-.11.3-.36.51-.67.56-7.05,1.26-31.07,4.83-47.43-1.51l3.23-3.58c.78-.86,1.2-1.97,1.2-3.13v-32.96c0-.8.06-1.61.17-2.4l20.66-137.81c.65.05,1.32.09,2.02.09,2.96,0,6.26-.51,9.71-1.92.26-.1.38-.4.27-.65-.1-.26-.4-.38-.65-.27-4.07,1.67-7.91,2.02-11.2,1.78.97-6.03,1.27-11.14.96-15.98h18.41l8.91,11.11c-1.13,2.62-1.87,5.81-1.67,9.6-.02.28-.42,6.84,4.32,12.18,0,3.09-.25,45.01-5.73,89.31Z"/>
    <path class="cls-29" d="m199.03,297.46c-1.03-.59-1.3-1.91-1.37-2.45-.15-1.19.05-2.34.59-3.24,3.03-5.13,1.55-13.25,1.01-15.69.87.08,1.85.13,2.9.13.78,0,1.6-.03,2.45-.1.81,3.85-.23,7.87-.96,9.97-.33.95-.83,1.82-1.47,2.83-1.95,3.05-1.04,7.21-.66,8.59-1,.34-1.84.33-2.48-.04Z"/>
    <path class="cls-29" d="m206.06,297.46c-1.41,1.5-3.08.38-3.51.05-.24-.77-1.43-5.12.45-8.06.59-.93,1.19-1.93,1.57-3.04.76-2.19,1.84-6.35,1.01-10.4,1.15-.14,2.33-.36,3.51-.69.25,1.5,1.47,9.89-2.06,13.96-.45.52-.75.98-.94,1.46-.62,1.53-1.38,4.33.04,6.66-.03.02-.06.03-.08.06Z"/>
    <path class="cls-29" d="m219.18,266.29l-.17-.13-.21.04c-.41.07-10.11,1.71-14.06-6.95-.12-.25-.41-.36-.66-.25-.25.11-.36.41-.25.66,3.75,8.2,12.43,7.83,14.63,7.59,1.4,11.57-1.13,22.24-1.15,22.32-1.87,6.53-4.76,8.43-6.86,8.88-1.14.25-2.36-.18-3.1-1.09-1.64-2.03-.9-4.78-.3-6.24.15-.38.4-.75.77-1.18,3.97-4.57,2.5-13.65,2.27-14.91,2.62-.87,5.17-2.33,7.23-4.68.18-.21.16-.52-.05-.71-.21-.18-.52-.16-.71.05-3.1,3.54-7.49,4.91-11.43,5.33-.08-.02-.16-.03-.25,0-.03,0-.05.03-.08.04-2.33.22-4.5.12-6.11-.05,0,0,0,0,0,0-1.74-.18-2.85-.44-2.89-.45-.27-.07-.54.1-.6.37-.06.27.1.54.37.6.15.04,1.14.26,2.65.45.39,1.69,1.92,9.2-.29,14.27-.04.03-.09.05-.12.09-.23.25-.45.34-.88.05-.48-.33-.76-.92-.75-1.59.11-6.81-1.44-11.18-2.28-13.53l-.16-.45c-.18-.51-.47-.99-.87-1.42-4.59-5.04-4.2-11.53-4.19-11.66-.63-12.06,8.51-17.81,8.6-17.86l.26-.16-.02-.3c-1.35-20.52-12.18-51.53-12.44-52.28-.31-1.62-.63-3.26-.97-4.9-.04-.21-2.01-10.91-4.85-23.47,1.17-.2,4.07-.86,7.27-2.75,1.69,4.46,13.08,35.2,16.85,62.48.09.65,2.26,15.8,4.44,19.13.18.54,1.32,3.6,4.61,4.38h.35c2.78.01,5.36,1.52,6.74,3.94,1.65,2.88,4.35,6.63,7.88,8.12.17.06,4.16,1.51,6.99,1.87,1.07.14,1.88.98,1.97,2.03.17,2.02-.41,4.2-5.86,6.5-.05.02-5.48,2.19-11.31-2.16Z"/>
    <path class="cls-1" d="m39.35,122.63c-7.5,8.37-6.01,19.78-5.99,19.9.03.25.25.43.49.43.02,0,.05,0,.07,0,.27-.04.46-.29.43-.56-.02-.11-1.44-11.07,5.75-19.09.18-.21.17-.52-.04-.71-.21-.18-.52-.17-.71.04Z"/>
    <path class="cls-1" d="m49.05,126.3c-.21.18-.23.5-.04.71.05.05,4.74,5.42,5.62,10.83.04.25.25.42.49.42.03,0,.05,0,.08,0,.27-.04.46-.3.41-.57-.93-5.69-5.66-11.1-5.86-11.33-.18-.21-.5-.23-.71-.04Z"/>
    <path class="cls-5" d="m114.86,33.13c.1,0,.21-.03.29-.1.22-.16.27-.48.11-.7-.01-.02-1.18-1.68-.61-2.92.43-.92,1.77-1.48,3.89-1.64l.63-.05-.19-.6c-.45-1.41-.82-3.71-.2-4.15.14-.1.73-.31,2.55,1.05.22.17.54.12.7-.1.17-.22.12-.53-.1-.7-1.72-1.28-2.94-1.63-3.73-1.06-1.18.84-.68,3.41-.35,4.67-2.19.25-3.57.98-4.12,2.16-.83,1.79.65,3.84.71,3.93.1.13.25.21.4.21Z"/>
    <path class="cls-5" d="m169.88,28.01c.47-.11,1.94-.28,2.5.34.33.36.34,1,.04,1.91l-.29.88.89-.23c1.42-.37,3.72-.61,4.16.06.1.15.32.8-1.16,2.67-.17.22-.13.53.08.7.09.07.2.11.31.11.15,0,.29-.06.39-.19,1.37-1.73,1.77-2.99,1.21-3.83-.77-1.18-3.12-.92-4.44-.67.15-.88,0-1.57-.46-2.07-1.05-1.16-3.22-.7-3.47-.64-.27.06-.44.33-.38.6.06.27.33.44.6.38Z"/>
  </g>
  <g id="detalles_andres" data-name="detalles andres">
    <circle class="cls-7" cx="124.98" cy="53.07" r="8.68"/>
    <circle class="cls-7" cx="170.98" cy="59.89" r="8.68"/>
    <ellipse class="cls-3" cx="145.24" cy="52.02" rx="7.67" ry="5.91" transform="translate(65.68 184.19) rotate(-78.66)"/>
    <ellipse class="cls-3" cx="159.89" cy="53.07" rx="5.91" ry="7.67" transform="translate(-3.86 13.5) rotate(-4.78)"/>
  </g>
  <g id="cara_andres" data-name="cara andres">
    <path class="cls-25" d="m126.43,50.42c1.89-.86,4.15-.78,6.72.22.19.08.41-.02.49-.21.08-.19-.02-.41-.21-.49-2.77-1.08-5.23-1.15-7.31-.2-3,1.37-4.09,4.34-4.14,4.47-.07.19.03.41.23.48.04.02.08.02.13.02.15,0,.3-.1.35-.25.01-.03,1.04-2.81,3.75-4.04Z"/>
    <path class="cls-25" d="m167.73,64.46c-1.37-1.94-3.52-2.26-3.61-2.28-.2-.03-.39.11-.42.32-.03.2.11.39.32.42.02,0,1.93.3,3.11,1.97.94,1.35,1.17,3.21.69,5.53-.04.2.09.4.29.44.03,0,.05,0,.08,0,.17,0,.33-.12.37-.3.53-2.54.26-4.61-.81-6.13Z"/>
    <path class="cls-27" d="m148.11,58.41c.14.15.38.16.53.02.14-.13,3.4-3.08,5.59-.87.78.78,1.08,2.01.78,3.2-.24.96-.91,1.73-1.8,2.07-1.15.44-2.56.13-4.08-.9-.17-.12-.4-.07-.52.1s-.07.4.1.52c1.37.92,2.52,1.22,3.42,1.22.54,0,.99-.1,1.35-.24,1.11-.43,1.96-1.39,2.26-2.59.36-1.45-.01-2.95-.98-3.92-2.17-2.17-5.29-.39-6.63.85-.15.14-.16.38-.02.53Z"/>
    <path class="cls-37" d="m157.98,67.11c-1.24-.94-2.79-1.25-4.67-.93-.12.04-1.06.35-2.47.51-.07,0-.13,0-.19.02-1.58.16-3.69.13-5.89-.62-.02,0-.03-.02-.05-.02-2.55-.88-5.22-2.72-7.32-6.35-.17-.45-1.77-4.52-6.13-4.39-2.2.07-4.27,1.29-5.54,3.27-2.1,3.27-4.78,10.31.79,20.66.25.47.57.89.87,1.3l.09.12c1.77,2.4,6.12,5.48,11.87,6.14,0,0,0,0,0,0,0,0,0,0,0,0,.72.08,1.47.13,2.23.13,2.64,0,5.51-.55,8.53-1.86.02,0,.05,0,.07-.02.02,0,.03-.02.04-.03,1.39-.62,2.81-1.38,4.25-2.35.23-.14,5.56-3.48,5.63-10.87.02-1.97-.76-3.69-2.12-4.72Z"/>
    <path class="cls-2" d="m127.46,79.37c-.1-.15-.2-.3-.28-.45-5.39-10.01-2.83-16.77-.82-19.9,1.13-1.77,2.98-2.87,4.93-2.93.06,0,.12,0,.19,0,3.84,0,5.17,3.76,5.23,3.92l.03.07c.07.13.15.25.23.37-1.64,1.03-8.98,6.4-9.49,18.92Z"/>
    <path class="cls-2" d="m128.16,80.35c.14-12.91,7.65-18.3,9.19-19.27,1.98,2.99,4.39,4.65,6.74,5.52-1.65,1.94-8.34,10.58-5.3,19.41-5.11-.76-8.96-3.48-10.63-5.66Z"/>
    <path class="cls-2" d="m139.63,86.12c-3.38-9,4.11-17.98,5.23-19.25,1.98.61,3.87.7,5.37.6-.86,2.24-3.71,10.67-.72,17.1-3.57,1.5-6.92,1.86-9.89,1.55Z"/>
    <path class="cls-2" d="m154.07,82.07c-1.31.89-2.61,1.6-3.87,2.18-3.02-6.5.32-15.49.87-16.87,1.47-.17,2.42-.48,2.43-.48,1.61-.28,2.96,0,4.03.8,1.18.89,1.84,2.39,1.83,4.12-.07,6.96-5.22,10.21-5.28,10.25Z"/>
    <path class="cls-37" d="m165.83,47.38c.04.2.22.34.42.34h.01l.36-.05.05-.31c.11-.66.28-1.98.21-3.36-.08-1.55-1.06-2.82-2.56-3.32-1.49-.49-3.03-.06-4.01,1.13l-.41.51.5.17s4.71,1.64,5.44,4.88Z"/>
    <path class="cls-40" d="m164.07,41.4c.94.31,1.97,1.17,2.05,2.64.03.67,0,1.34-.04,1.91-1.18-2.2-3.8-3.48-4.93-3.95.91-.84,2.07-.88,2.92-.6Z"/>
    <ellipse class="cls-37" cx="148.35" cy="52.35" rx="1.42" ry="1.97"/>
    <ellipse class="cls-18" cx="148.35" cy="52.35" rx=".67" ry="1.22"/>
    <path class="cls-37" d="m156.86,55.04c.8,0,1.42-.87,1.42-1.97s-.62-1.97-1.42-1.97-1.42.87-1.42,1.97.62,1.97,1.42,1.97Z"/>
    <path class="cls-18" d="m156.86,51.85c.32,0,.67.5.67,1.22s-.35,1.22-.67,1.22-.67-.5-.67-1.22.35-1.22.67-1.22Z"/>
    <path class="cls-37" d="m135.1,43.34l.36.09.17-.26c1.78-2.8,6.72-2.74,6.77-2.76h.53s-.22-.61-.22-.61c-.52-1.45-1.82-2.38-3.39-2.42-1.6-.04-2.94.82-3.53,2.26-.55,1.32-.84,2.7-.94,3.23-.04.2.07.4.26.47Z"/>
    <path class="cls-40" d="m136.47,39.92c.55-1.33,1.77-1.8,2.74-1.8.03,0,.05,0,.08,0,.89.02,1.98.45,2.54,1.55-1.22.06-4.12.39-5.97,2.06.15-.55.34-1.18.61-1.81Z"/>
    <circle class="cls-2" cx="148.35" cy="51.52" r=".57"/>
    <circle class="cls-2" cx="156.86" cy="52.09" r=".57"/>
  </g>
  <g id="carol">
    <path class="cls-11" d="m439.02,190.56c-.52-.71-1.33-1.13-2.2-1.16l-12.07-.9,8.72-10.64v-.16c.11-1.15-.15-2-.77-2.53-.92-.79-2.25-.49-2.31-.47l-12.65,8.44c-.37.24-.85.21-1.18-.09-.33-.31-.42-.8-.21-1.2l6.07-11.4c.29-.54.43-1.11.4-1.66-.03-.82-.29-1.45-.76-1.88-.49-.45-1.17-.65-2.05-.6-.91.05-1.78.48-2.4,1.19l-9.81,11.18c-.33.38-.87.54-1.35.39-.47-.14-.8-.55-.84-1.04-.55-6.03-2.29-11.44-3.01-13.49-.35-.99-1.06-1.74-1.94-2.05-.76-.27-1.54-.21-2.3.18-1.22.62-2,1.92-2.03,3.39l-.33,15.33c-.02.72-.16,1.47-.43,2.23-4.14,11.84.96,17.46,2.45,18.79-14.79,21.72-21.5,19.3-21.56,19.27l-.12-.04c-5.4-1.01-7.84-15.07-8.19-17.29,1.85-1.22,2.86-1.98,2.89-2l.39-.3-2.65-3.53-.4.3c-.16.12-.33.24-.49.36-.74-1.85-1.71-4.13-2.79-6.6h17.73l-1.46-.92c-8.97-5.67-10.57-29.4-10.58-29.62l-.53-36.35c1.32-1.18,2.79-2.87,3.96-5.17.57-.18,1.13-.41,1.67-.71,1.74-.98,2.65-2.91,2.21-4.71-.25-1.02-.98-2.27-2.95-2.69l-.02-.12c-.51-3.6-2.13-6.18-4.35-6.88-1.76-.56-3.25-.63-4.52-.43-1.6-13-6.63-22.87-14.96-29.32-12.01-9.31-27.32-8.54-30.61-8.25.09-1.17.04-3.64-1.69-5.06-1.74-1.43-4.62-1.36-8.56.2l-2.33.92,2.5.04s4.33.1,5.92,2.06c.42.52.61,1.12.57,1.82-3.27-.48-20.84-2.06-33.86,16.29-.09.1-7.65,9.02-8.63,25.79,0,.05-.01.09,0,.14-.13,2.33-.14,4.81.02,7.44,0,0,0,.01,0,.02,0,0,0,.04,0,.07.04.63.08,1.26.14,1.9l4.26,27.02c.07.35,6.79,35.68-3.77,49.56l-.61.8h8.79c.08.53.28,1.5.7,2.83-.5,2.19-7.01,29.76-18.03,44.12l-27.77,40.03-1.18-.79-2.75,4.4,1.6,1.04-7.96,6.55c-1.59,1.31-2.69,3.15-3.09,5.17-.35,1.8-.76,4.6-.68,7.73.05,1.7.31,3.44.81,5.34l2.09,7.91c.67,2.55,1.03,5.19,1.06,7.84l.08,7.85c.01.96.77,1.77,1.72,1.84.09,0,.18,0,.28,0,1.15,0,2.74-.49,4.26-2.58.63-.86,1.02-1.89,1.14-2.96l.35-3.13,3.14,4.78.06.08c.07.07.68.66,1.44.66.1,0,.2-.01.3-.03.58-.12,1.03-.59,1.33-1.39l.05-.12-.02-.13c-.02-.12-1.7-12.45-4.45-20.62l.13-1.19c.04-.06.06-.08.06-.09.01,0,.05.02.1.06l6,11.2c.5.96,1.52,1.5,2.6,1.39,1.06-.11,1.89-.81,2.19-1.91.2-.79.2-1.81,0-3.02-.66-3.94-.94-7.17-.89-10.16.02-1.11,0-2.16-.05-3.13-.13-2.42-.67-4.81-1.63-7.18-.49-1.21-.18-2.6.74-3.5l1.58,1.03,2.61-4.24-1.22-.82s0,0,0,0c4.26-8.38,25.77-30.07,30.72-35,.02,1.03.7,1.95,1.71,2.23.21.06.44.11.65.17-.76,2.21-3.87,11.67-6.21,23.97-.03.07-.05.15-.04.23-1.72,9.08-3,19.68-2.6,30.04,0,.17.77,17.54,4.02,32.69,1.53,7.12,2.41,14.33,2.62,21.43l2.35,79.78-1.54-.12-1.11,8.1,2.83.24c-1.53,2.09-3.84,3.47-6.47,3.81l-1.24.16c-3.3.42-8.28,1.04-12.76,2.19-4.49,1.15-8.22,3.98-10.51,7.96-2.23,3.89-2.79,8.4-1.56,12.7l.12.41c.79,2.58,3.19,4.34,5.97,4.38,10.45.15,34.36.49,36.74.49.09,0,.14,0,.17,0,.06,0,.12-.02.18-.04.95,1.53,2.79,2.5,4.82,2.5.14,0,.28,0,.42-.01l41.86-2.78c2.07-.14,3.81-1.44,4.58-3.3.02-.04.04-.08.06-.13.13-.34.24-.69.3-1.06.75-4.48,1.08-11.01-1.62-16.62-.03-.08-2.97-7.91-2.41-13.71l2.93-.72-2.04-8.18-3.99,1.03c.13-20-5.49-60.18-5.55-60.61-1.5-7.52,5.2-16.86,5.27-16.97,8.41-12.43,16.15-33.29,16.21-33.45,5.99-12.36,4.89-34.84,4.88-35.07-.3-6.73-2.81-14.28-5.78-21.01-.01-.07-.04-.14-.09-.19-3.92-8.88-8.61-16.29-10-18.43,1.22-.27,2.04-1.4,1.91-2.65l-.61-5.71c-.06-.54-.35-1.01-.81-1.3-.41-.26-.9-.33-1.38-.22-6.07-8.5-1.59-35.29-.39-41.8l2.19,4.33c-.51.2-.8.32-.82.33l-.42.16,1.25,4.49.51-.2c.56-.21,1.09-.43,1.63-.65,1.38,3.28,9.77,22.74,18.01,31.03,2.15,2.17,4.97,3.39,7.8,3.39.16,0,.31,0,.47-.01,1.88-.09,3.76-.63,5.6-1.61,1.29-.69,2.52-1.62,3.77-2.85,4.11-4.05,18.1-18.73,26.43-38.23,5.73.35,7.88-2.33,8.59-3.7,4.2,4.14,8.22,4.57,8.39,4.58h.05s.05,0,.05,0c1.13-.13,1.94-.57,2.41-1.3.75-1.2.25-2.7.23-2.76l-4.68-7.17c9.12,1,13.63-1.26,13.83-1.36l.08-.05c1.98-1.59,1.76-3.41.89-4.59Z"/>
    <path class="cls-14" d="m379.6,191.59h-14.93c-2.33-5.28-5.02-11.16-6.81-15.03-1.97-4.26-5.06-7.65-8.93-9.81-4.89-2.73-9.36-3.26-11.59-3.34-.88-.03-1.68-.38-2.25-.98-3.73-3.9-2.41-11.55-2.11-13.02,1.15-.36,2.29-.78,3.4-1.25,7.07-3.01,15.14-8.52,20.13-18.54.39.06,1.1.15,2.16.23-.02.87.19,2.59,1.93,3.43.58.28,1.21.42,1.85.42.98,0,1.96-.32,2.76-.95,1.1-.85,1.78-2.11,1.98-3.65.05-.41.06-.83.04-1.24.4-.21,1.15-.64,2.05-1.34l.52,35.57c.06.95,1.51,22.38,9.81,29.5Z"/>
    <path class="cls-16" d="m310.64,149.76c3.52.96,7.11,1.44,10.67,1.44s7.16-.5,10.59-1.47c-.38,2.11-1.09,7.85,1.35,11.9l-18.84,9.45-5.6-10.22c.06-.06.14-.11.2-.18,3.22-3.46,2.21-8.8,1.64-10.92Z"/>
    <path class="cls-16" d="m280.35,108.2c.01-.06,0-.12,0-.17,7.19-3.08,20.23-9.49,27.48-17.99-1.21,6.73,2.16,10.46,2.32,10.63l.98,1.04-.12-1.42c-.73-9.11,3.13-14.48,4.48-16.06,13.84,25.65,40.55,26.31,44.71,26.27-1.2,22.34-13.81,32.31-24.22,36.75-8.28,3.53-17.74,3.91-26.64,1.1-33.91-10.74-29.05-39.84-29-40.13Z"/>
    <path class="cls-15" d="m282.82,128.66c-.69.43-1.33.61-1.87.52-.65-.11-.97-.56-1.01-.62-1.39-1.67-.94-4.43-.7-5.52.46.13.95.21,1.46.23.53,1.75,1.22,3.56,2.11,5.38Z"/>
    <path class="cls-21" d="m313.99,172.4l19.83-9.94c.18.23.35.46.55.67.42.44.94.76,1.51.98l-23.12,12.24-7.01-13.73c.85-.24,1.62-.61,2.29-1.09l5.96,10.88Z"/>
    <path class="cls-15" d="m362.76,124.54c-.01-.07-.03-.12-.03-.15,0-.35.04-.8.29-.98.26-.18.72-.09.94-.02.25.22.49.46.71.7,1.18,1.31,1.75,3.13,1.52,4.87-.16,1.28-.7,2.29-1.6,2.98-1.03.8-2.43.97-3.57.42-1.16-.56-1.36-1.67-1.37-2.36,1.09.22,1.95.05,2.55-.5,1.36-1.27.76-4.05.56-4.96Z"/>
    <path class="cls-16" d="m367.09,126.78c-.25-1.23-.83-2.39-1.69-3.35-.26-.29-.55-.58-.86-.84l-.14-.08c-.12-.05-1.16-.45-1.95.09-.5.35-.75.96-.73,1.82,0,.08.02.17.06.35.56,2.59.17,3.62-.26,4.02-.42.39-1.14.43-2.14.14l-.25-.06-.03.02c-.97-.07-1.68-.14-2.14-.2,1.54-3.3,2.74-7.08,3.49-11.39.49-.53,3.38-3.54,6.65-4.34.03.1.07.21.11.33-1.3.58-3.48,2.39-2.52,5.15.25.72.8,1.33,1.53,1.74-.3.5-.73,1.08-1.12,1.26-.25.11-.37.41-.25.66.08.19.27.3.46.3.07,0,.14-.01.2-.04.75-.33,1.34-1.24,1.64-1.78.1.03.21.06.32.09.84.19,2.04.38,3.37.38.67,0,1.38-.05,2.1-.18-1.97,3.42-4.65,5.25-5.83,5.93Z"/>
    <path class="cls-23" d="m375.29,113.48c1,.3,1.61.91,1.84,1.87.33,1.37-.38,2.85-1.73,3.61-2.7,1.52-6,1.1-7.73.72-1.02-.23-1.78-.81-2.05-1.57-.79-2.26,1.23-3.51,1.83-3.83.09.42.17.88.2,1.37.06.9.71,1.63,1.57,1.78.61.1,1.31.18,2.01.18,1.13,0,2.27-.2,3.1-.82,1.01-.75,1.06-2.14.96-3.3Z"/>
    <path class="cls-16" d="m370.49,106.38c1.84.58,3.21,2.85,3.66,6.06l.02.16s-.05.1-.05.16c-.02.15.03.29.13.4.13,1,.19,2.29-.51,2.82-1.12.84-3.2.65-4.34.46-.41-.07-.71-.42-.74-.85-.07-1.14-.35-2.17-.55-2.79.54-.05,1.07-.03,1.57.07.27.05.53-.12.59-.39.05-.27-.12-.53-.39-.59-.78-.15-1.6-.15-2.44,0-.04,0-.08.01-.12.02-.13.02-.26.04-.39.07-2.6.61-4.9,2.44-6.19,3.64.25-1.75.42-3.58.51-5.51.25-.6,2.6-5.83,9.27-3.71Z"/>
    <path class="cls-14" d="m284.05,84.31c13.98-19.7,33.21-15.88,33.4-15.84l.5.11.09-.5c.23-1.21-.01-2.26-.72-3.12-1.04-1.28-2.92-1.89-4.41-2.17,2.5-.7,4.33-.58,5.47.35,1.83,1.5,1.27,4.73,1.27,4.76l-.12.68.68-.09c.17-.02,17.39-2.19,30.5,7.99,8.13,6.3,13.03,15.98,14.58,28.74-3,.89-4.47,3.39-4.89,4.28-3.08.08-30.57.01-44.36-26.35l-.3-.58-.48.45c-.24.22-5.55,5.32-5.33,15.58-.99-1.81-2.17-5.33-.63-10.41,1.07-1.49,1.96-3.03,2.6-4.62.1-.26-.02-.55-.28-.65-.26-.1-.55.02-.65.28-5.46,13.7-30.7,23.9-35.29,25.66,1.12-15.94,8.27-24.4,8.38-24.53Z"/>
    <path class="cls-16" d="m275.6,109.94c.59-.22,1.9-.71,3.7-1.46-.2,1.57-.7,7.11,1.11,13.78-.48-.05-.94-.13-1.35-.29-2.87-1.1-3.37-4.61-3.42-4.94-.16-2.5-.15-4.86-.04-7.08Z"/>
    <path class="cls-14" d="m283.3,195.44h-6.64c10.02-14.69,3.66-48.11,3.39-49.53l-3.95-25.05c.52.73,1.24,1.4,2.2,1.86-.28,1.16-.86,4.4.85,6.46.02.03.55.8,1.61,1,.16.03.33.05.5.05.64,0,1.32-.23,2.02-.65,3.96,7.53,11.52,15.22,25.77,19.73.15.05.3.09.46.13.37,1.2,1.99,7.1-1.23,10.57-.93,1-2.32,1.68-3.89,1.89-4.29.58-17.34,2.34-18.06,20.68-2.36,3.61-3.82,7.94-3.01,12.87Z"/>
    <path class="cls-16" d="m241.39,333.48c-.12.29-.31.59-.56.65-.29.07-.65-.19-.79-.32l-3.77-5.74,1.41-12.73c2.17,7.45,3.54,16.93,3.71,18.15Z"/>
    <path class="cls-16" d="m245.56,299.27c.89,2.2,1.41,4.48,1.53,6.79.05.95.07,1.98.05,3.06-.05,3.06.24,6.34.91,10.34.18,1.08.19,1.96,0,2.68-.17.62-.65,1.02-1.3,1.09-.54.06-1.24-.14-1.61-.86l-6.05-11.3-.12-.14c-.33-.28-.66-.4-.99-.34-.33.06-.6.28-.82.67l-.16,1.42c-.05.1-.07.23-.04.35l-1.69,15.04s0,.05,0,.08l-.51,4.5c-.1.9-.43,1.76-.96,2.48-1.39,1.9-2.77,2.23-3.66,2.16-.44-.03-.79-.4-.79-.85l-.08-7.85c-.03-2.73-.39-5.45-1.09-8.08l-2.09-7.91c-.48-1.82-.74-3.5-.78-5.11-.08-3.03.31-5.76.66-7.51.35-1.79,1.33-3.42,2.74-4.59l8.21-6.75,9.43,6.13c-1.09,1.18-1.42,2.92-.78,4.5Z"/>
    <polygon class="cls-21" points="248.46 294.95 247.39 294.26 247.39 294.26 235.8 286.72 237.49 284.03 250.03 292.41 248.46 294.95"/>
    <path class="cls-16" d="m281.62,251.28l-.52,3.39c-2.08,2.05-26.89,26.63-31.77,36.07l-10.13-6.77,27.75-39.99c9.97-13,16.27-36.63,17.84-43.01.69,1.73,1.72,3.82,3.26,6.14.39.6.6,1.26.6,1.94v12.16c0,5.31-.56,10.63-1.67,15.82l-2.68,12.88c-.15-.04-.31-.08-.45-.11-.5-.13-1.02-.04-1.45.24-.43.28-.71.73-.79,1.24Z"/>
    <path class="cls-39" d="m282.88,257.56c-.66-.19-1.08-.85-.97-1.54l.7-4.59c.04-.23.16-.42.35-.55.13-.09.29-.13.44-.13.07,0,.14,0,.21.03,1.2.31,2.9.72,5,1.15l-.7,6.86c-1.7-.35-3.38-.75-5.03-1.22Z"/>
    <path class="cls-38" d="m284.23,258.94c2.01.52,4.05.95,6.12,1.32l-1,7.91c-.62,4.93-3.3,9.23-7.34,11.8-1.16.74-2.45,1.42-3.83,2.05,2.34-11.97,5.36-21.08,6.05-23.07Z"/>
    <path class="cls-42" d="m288.89,258.97l.7-6.86c.4.08.82.16,1.25.24l-.41,6.91c-.52-.09-1.03-.19-1.55-.29Z"/>
    <path class="cls-17" d="m282.04,367.02c-.21-7.17-1.1-14.44-2.64-21.61-3.24-15.06-3.99-32.35-4-32.52-.4-10.23.86-20.69,2.55-29.68,1.67-.72,3.21-1.52,4.59-2.4,4.3-2.73,7.14-7.29,7.8-12.52l.99-7.87c5.62.92,11.37,1.33,16.96,1.39l-1.06,34.97c-.15,4.76,1.66,9.45,4.96,12.89l3.23,3.36c-5.16,12.45-12.11,31.08-15.18,47.54-.06.25-5.39,25.8,4.21,57.75.23.51,3.19,7.04,6.89,14.14-.35,1.34-2.68,9.9-5.85,16.05l-21.1-1.61-2.35-79.89Z"/>
    <path class="cls-39" d="m308.89,260.82s-.04-.02-.07-.02h-.02s-.05.01-.07.01c-5.7-.05-11.58-.45-17.31-1.39l.41-6.9c9.34,1.63,23.97,3.05,39.47.14l.18,6.75c-5.19.65-11.39,1.22-18.01,1.37-.02,0-.04-.01-.07-.01-.03,0-.06.01-.08.02-1.46.03-2.94.04-4.43.03Z"/>
    <path class="cls-38" d="m312.91,261.8v14.84h-4.06l.45-14.82c.25,0,.5,0,.75,0,.96,0,1.92-.01,2.87-.03Z"/>
    <path class="cls-2" d="m319.55,459.4c-.56.12-9.13,1.99-16.1,4.54-.33-3.28-.1-6.09.01-7.16l3.63.31.7-8.4-1.24-.09c2.65-5.27,4.68-12.08,5.45-14.83,3.06,5.79,6.52,11.72,9.33,14.97l-3.45.89,1.56,8.02,3.61-.89c-.43.91-1.39,2.1-3.52,2.65Z"/>
    <path class="cls-19" d="m324.26,456.46l9.95-2.46-3.72,9.98c-.75,1.49-2.17,2.57-3.82,2.88l-14.86,2.78c-2.42-3.11-5.33-4.49-7.1-5.08,6.84-2.39,14.93-4.15,15.07-4.18,3.1-.8,4.13-2.8,4.47-3.91Z"/>
    <polygon class="cls-38" points="281.87 453.9 282.71 447.78 306.72 449.61 306.18 456.01 281.87 453.9"/>
    <path class="cls-22" d="m292.61,483.29l-18.71-.24c1.33-7.88-.84-13.04-1.97-15.07l10.84-1.25c3.74-.43,7.13-2.61,9.08-5.84l2.92-4.87,7.69.67c-.12,1.16-.36,4.12.02,7.61-3.59,1.38-6.61,2.94-7.65,4.51-.06.06-5.01,5.43-2.23,14.48Z"/>
    <path class="cls-19" d="m263.34,462.19c4.42-1.13,9.17-1.73,12.64-2.17l1.24-.16c3.11-.4,5.83-2.12,7.49-4.71l8.95.78-2.67,4.45c-1.78,2.96-4.9,4.97-8.33,5.37l-11.31,1.3s-.03-.04-.03-.05c-2.77-3.5-5.99-4.5-8.36-4.69.13-.04.25-.08.38-.12Z"/>
    <path class="cls-12" d="m252.46,482.78h0s-.02,0-.03,0c-.12-.25-.23-.51-.31-.78l-.12-.39c-1.15-4.04-.63-8.28,1.46-11.93,1.54-2.68,3.78-4.79,6.47-6.18.69-.19,6.16-1.5,10.6,4.11.04.06,4.09,5.59,2.37,15.44l-20.43-.26Z"/>
    <path class="cls-19" d="m257.13,485.68c-1.61-.02-3.06-.74-4.03-1.89l39.85.51c.22.61.48,1.23.77,1.87-2.11,0-15.53-.19-36.59-.49Z"/>
    <path class="cls-12" d="m294.81,486.15c-4.99-10.37.52-16.39.81-16.72.97-1.47,3.92-2.95,7.45-4.28.74.11,4.94.93,8.16,5.26.01.02.03.04.04.06,2.15,2.92,3.84,7.42,3.74,14.34l-20.2,1.34Z"/>
    <path class="cls-19" d="m341.24,485.83l-41.86,2.78c-1.56.1-3.04-.49-3.94-1.51l49.16-3.27c-.73,1.13-1.95,1.9-3.36,1.99Z"/>
    <path class="cls-12" d="m345.26,482.18c-.04.22-.09.42-.16.63l-7,.47c-.7-3.39-.33-6.27,1.12-8.57,1.8-2.85,4.79-4.03,5.93-4.4.97,4.26.65,8.62.11,11.87Z"/>
    <path class="cls-22" d="m343.71,466.12c.5,1.04.89,2.12,1.19,3.21-1.24.38-4.51,1.64-6.52,4.83-1.58,2.49-2,5.58-1.29,9.18l-21.08,1.4c.08-6.63-1.49-11.15-3.56-14.21l14.4-2.69c1.95-.36,3.64-1.64,4.55-3.46l3.98-10.67,5.8-1.43c-.44,5.97,2.38,13.48,2.52,13.85Z"/>
    <path class="cls-38" d="m342.38,444.34l1.56,6.23-1.81.45c-.07-.07-.16-.13-.27-.14-.24-.03-.46.12-.54.34l-5.86,1.45s-.11-.09-.17-.11c-.26-.1-.55.03-.64.29v.02s-10.29,2.54-10.29,2.54c-.08-.14-.22-.24-.39-.26-.27-.02-.52.18-.54.46,0,0,0,.02,0,.03l-3.18.79-1.18-6.07,23.32-6.02Z"/>
    <path class="cls-17" d="m353.32,277.64c2.88,6.58,5.3,13.92,5.6,20.46.01.22,1.1,22.45-4.8,34.63-.08.21-7.77,20.96-16.11,33.27-.29.4-7.02,9.79-5.44,17.71.06.41,5.71,40.87,5.53,60.71l-15.68,4.05c-6.4-6.97-16.97-30.31-17.06-30.48-9.5-31.63-4.22-56.94-4.16-57.21,5.15-27.53,21.19-61.18,21.35-61.52.12-.25.01-.55-.24-.67-.25-.12-.55-.02-.67.24-.06.13-2.53,5.31-5.83,13.21l-2.93-3.05c-3.11-3.24-4.82-7.67-4.68-12.16l.58-19.17h5.1v-15.86c6.43-.16,12.44-.71,17.51-1.34-.26,1.89-.1,4.03.54,6.53.81,3.18,2.97,5.84,5.92,7.31,4.57,2.27,9.49,3.37,15,3.37.14,0,.29,0,.43,0Z"/>
    <path class="cls-38" d="m352.88,276.63c-5.33,0-10.12-1.06-14.55-3.26-2.69-1.33-4.66-3.76-5.4-6.66-.64-2.49-.78-4.58-.49-6.41,4.46-.58,8.11-1.21,10.56-1.68.98,1.48,5.79,8.91,9.88,18Z"/>
    <path class="cls-42" d="m332.3,252.47c.42-.08.84-.16,1.25-.25l.35,6.88c-.46.06-.94.13-1.42.19l-.18-6.82Z"/>
    <path class="cls-39" d="m343.32,249.52c.24-.08.48-.05.69.08.2.13.33.33.35.57l.61,5.7c.08.75-.42,1.43-1.16,1.58-1.96.39-5.05.95-8.91,1.51l-.36-6.96c2.92-.66,5.85-1.47,8.78-2.48Z"/>
    <path class="cls-35" d="m342.36,203.69l-.29,1.41c-.28,1.38-6.74,33.43.1,43.75-2.65.88-5.31,1.61-7.96,2.2-.07-.03-.14-.04-.22-.03-.14,0-.26.07-.35.16-16.56,3.6-32.42,2.02-42.14.28-.03,0-.07-.02-.1-.03,0,0-.02,0-.03,0-2.46-.44-4.52-.9-6.1-1.28l2.68-12.91c1.12-5.26,1.69-10.65,1.69-16.03v-12.16c0-.87-.27-1.73-.77-2.49-3.22-4.85-4.15-8.75-4.4-10.13h.03l-.12-.6c-2.99-14.86,16.13-24.34,16.33-24.43.25-.12.35-.42.23-.67-.12-.25-.42-.35-.67-.23-.12.06-7.82,3.87-12.88,10.5,1.37-16.01,13.14-17.6,17.1-18.13.08-.01.15-.04.22-.05l7.59,14.87,25.11-13.29c2.18.09,6.39.63,11.01,3.21,3.68,2.05,6.63,5.29,8.51,9.36,2.78,6.01,7.75,16.88,10.11,22.79-7.12,4.91-17.15,9.26-21.16,10.9l-3.53-6.99Z"/>
    <path class="cls-21" d="m345.64,214.71l-.71-2.56c2.49-.99,15.43-6.26,23.65-12.22l1.46,1.94c-1.94,1.41-10.87,7.6-24.4,12.84Z"/>
    <path class="cls-16" d="m437.54,194.34c-.49.23-5.25,2.3-14.27,1.1l-1.08-.14,5.78,8.81c.07.23.29,1.17-.15,1.86-.29.45-.83.73-1.61.83-.48-.06-4.38-.71-8.24-4.81l-.62-.66-.22.88c-.05.21-1.39,5.06-10.25,3.41-.27-.05-.53.13-.58.4-.05.27.13.53.4.58.5.09.98.16,1.44.22-8.27,19.18-22.02,33.61-26.08,37.61-1.18,1.16-2.33,2.04-3.53,2.68-1.7.91-3.45,1.41-5.17,1.49-2.68.13-5.44-.99-7.51-3.08-7.99-8.05-16.43-27.5-17.78-30.69,8.71-3.56,15.34-7.4,19.19-9.86.55,3.35,3.08,16.52,8.88,17.67.15.05.51.16,1.09.16,2.61,0,9.65-2.1,21.9-20.19l.27-.4-.39-.28c-.07-.05-6.92-5.21-2.47-17.96.3-.86.46-1.71.48-2.54l.33-15.33c.02-1.1.59-2.07,1.49-2.52.52-.26,1.01-.31,1.51-.13.6.21,1.08.74,1.33,1.44.71,2.01,2.42,7.34,2.96,13.25.08.91.69,1.66,1.56,1.91.86.25,1.8-.02,2.39-.69l9.81-11.18c.44-.5,1.06-.81,1.7-.85.6-.03,1.04.08,1.32.34.27.24.41.64.43,1.18.02.37-.08.76-.29,1.15l-6.07,11.4c-.43.8-.26,1.79.41,2.41.67.61,1.66.69,2.41.18l12.4-8.31c.23-.04.92-.1,1.35.28.33.29.48.81.44,1.54l-8.77,10.7c-.06.07-.09.16-.1.24l-2.22-.16c-.27-.03-.52.19-.54.46-.02.28.19.52.46.54l15.43,1.15c.58.02,1.1.29,1.44.75.77,1.05.52,2.2-.67,3.18Z"/>
    <path class="cls-1" d="m407.86,184.35c-.2.19-.21.5-.03.71.03.04,3.36,3.7,2.74,9.26-.03.27.17.52.44.55.02,0,.04,0,.06,0,.25,0,.47-.19.5-.44.67-6.03-2.85-9.89-3-10.05-.19-.2-.5-.21-.71-.03Z"/>
  </g>
  <g id="detalles_carol" data-name="detalles carol">
    <ellipse class="cls-3" cx="302.95" cy="108.47" rx="5.4" ry="6.75"/>
    <ellipse class="cls-3" cx="317.36" cy="107.85" rx="5.4" ry="6.75"/>
    <circle class="cls-6" cx="337.12" cy="114.48" r="8.46"/>
    <path class="cls-10" d="m302.63,101.74s-1.55-.14-2.96,1.08c-.06.06-.13.11-.19.18-.45.43-.87,1.02-1.22,1.8-.43.97-.59,2.04-.59,3.1,0,3.21,1.33,8.21,7.34,6.95"/>
    <path class="cls-9" d="m299.8,102.71c-1.61,1.75-5.3,1.12-5.3,1.12,0,0,1.81.72,3.92.62"/>
    <path class="cls-9" d="m298.37,104.92c-1.58,1.07-3.48.74-3.48.74,0,0,1.62.66,2.93.53"/>
    <path class="cls-10" d="m317.84,101.11s1.55-.14,2.96,1.08c.06.06.13.11.19.18.45.43.87,1.02,1.22,1.8.43.97.59,2.04.59,3.1,0,3.21-1.33,8.21-7.34,6.95"/>
    <path class="cls-9" d="m320.68,102.09c1.61,1.75,5.3,1.12,5.3,1.12,0,0-1.81.72-3.92.62"/>
    <path class="cls-9" d="m322.1,104.29c1.58,1.07,3.48.74,3.48.74,0,0-1.62.66-2.93.53"/>
    <circle class="cls-6" cx="289.73" cy="119.25" r="8.46"/>
    <path class="cls-8" d="m309.11,110.59s.9-.47,2.09-.31"/>
  </g>
  <g id="cara_carol" data-name="cara carol">
    <path class="cls-37" d="m307.05,117.31c.9.33,2,.5,3.17.5.4,0,.81-.02,1.22-.06,3.49-.34,6.09-2.02,5.91-3.81-.09-.91-.85-1.67-2.16-2.15-1.21-.45-2.77-.6-4.39-.44-3.49.34-6.09,2.02-5.91,3.81.09.91.85,1.67,2.16,2.15Z"/>
    <path class="cls-41" d="m310.88,112.09c.39-.04.77-.06,1.15-.06,1.08,0,2.08.16,2.91.46,1,.37,1.61.92,1.67,1.52.12,1.19-1.96,2.67-5.24,3-1.5.15-2.95,0-4.05-.4-1-.37-1.61-.92-1.67-1.52-.12-1.19,1.96-2.67,5.24-3Z"/>
    <path class="cls-37" d="m336.08,112.97c-.93-1.88-3.03-1.99-4.01-1.79-.2.04-.33.24-.29.44.04.2.24.33.44.29.05-.01.77-.14,1.55.07l-.37.53c-13.34,19.29-29.76,11.72-29.92,11.64-.18-.09-.41-.01-.5.18s-.01.41.18.5c.05.03,1.71.79,4.38,1.26,0,0,0,0,0,0,.05.03,5,3.19,6.44,11.53-.67-.5-1.3-1.11-1.88-1.88-.13-.17-.36-.2-.53-.07-.17.13-.2.36-.07.53.83,1.1,1.77,1.91,2.75,2.52,0,0,0,0,0,0,1.87,1.16,3.91,1.55,5.78,1.55.93,0,1.8-.1,2.6-.23,0,0,0,0,0,0,.01,0,.03,0,.04,0,.01,0,.03,0,.04-.01.53-.09,1.03-.2,1.46-.31,1.81-.48,3.44-1.56,4.61-3.05,2.11-2.69,3.43-5.88,4.25-9.03.03-.05.04-.11.04-.17.88-3.45,1.16-6.86,1.21-9.53.02-.06.02-.12,0-.18.04-2.99-.21-5.03-.22-5.08l-.08-.63c.53.19,1.06.56,1.4,1.25.07.13.2.21.34.21.06,0,.11-.01.17-.04.19-.09.26-.32.17-.5Z"/>
    <path class="cls-33" d="m328.22,136.21c-1.07,1.36-2.56,2.35-4.21,2.78-.31.08-.65.16-1.01.23-.09-1.86.12-9.4,9.2-11.27-.81,2.9-2.05,5.79-3.98,8.25Z"/>
    <path class="cls-20" d="m332.41,127.15c-10.04,1.86-10.23,10.35-10.15,12.21-2.17.33-4.94.29-7.41-1.15-.51-3.55-1.61-6.23-2.8-8.2,1.85-.02,7.04-.36,12.61-3.35,3.47-1.86,6.45-4.42,8.87-7.61-.1,2.39-.4,5.22-1.12,8.1Z"/>
    <path class="cls-2" d="m324.31,125.99c-5.98,3.2-11.65,3.27-12.73,3.25-.93-1.38-1.86-2.34-2.55-2.95,6.06.66,15.81-.66,24.41-12.53.07.87.14,2.26.12,3.97-2.46,3.51-5.57,6.29-9.26,8.26Z"/>
    <path class="cls-37" d="m306.31,110.79c.73,0,1.3-.81,1.3-1.84s-.57-1.84-1.3-1.84-1.3.81-1.3,1.84.57,1.84,1.3,1.84Z"/>
    <path class="cls-18" d="m306.31,107.85c.26,0,.55.47.55,1.09s-.29,1.09-.55,1.09-.55-.47-.55-1.09.29-1.09.55-1.09Z"/>
    <path class="cls-37" d="m315.43,109.87c.73,0,1.3-.81,1.3-1.84s-.57-1.84-1.3-1.84-1.3.81-1.3,1.84.57,1.84,1.3,1.84Z"/>
    <path class="cls-18" d="m315.43,106.93c.26,0,.55.47.55,1.09s-.29,1.09-.55,1.09-.55-.47-.55-1.09.29-1.09.55-1.09Z"/>
    <path class="cls-37" d="m320.12,96.64c1.06.26,3.64,1.06,4.78,2.97.1.17.28.26.46.26.03,0,.07,0,.1,0,.21-.04.38-.21.41-.43.08-.51.14-1.3-.08-2.21-.48-2.01-2.51-3.37-4.54-3.02-.73.13-1.29.42-1.67.88-.21.25-.27.59-.17.91.11.33.37.57.7.65Z"/>
    <path class="cls-14" d="m320.16,95.56c.26-.32.67-.52,1.22-.62.17-.03.35-.04.52-.04,1.46,0,2.82,1.03,3.16,2.5.12.49.14.94.13,1.32-1.33-1.71-3.59-2.48-4.9-2.8-.08-.02-.14-.08-.17-.16-.01-.04-.03-.12.03-.19Z"/>
    <path class="cls-37" d="m299.59,96.07c-2.02-.35-4.06,1-4.54,3.02-.22.92-.16,1.71-.08,2.21.04.22.2.39.41.43.03,0,.07,0,.1,0,.19,0,.36-.1.46-.26,1.14-1.91,3.72-2.71,4.78-2.97.33-.08.6-.32.7-.65.1-.31.04-.65-.17-.91-.38-.46-.94-.75-1.67-.88Z"/>
    <path class="cls-14" d="m300.72,97.62c-.03.08-.09.14-.17.16-1.3.32-3.57,1.09-4.9,2.8-.01-.36.01-.82.13-1.32.34-1.46,1.7-2.5,3.16-2.5.17,0,.35.01.52.04.55.09.96.3,1.22.62.06.07.05.15.03.19Z"/>
    <circle class="cls-2" cx="306.31" cy="108.03" r=".44"/>
    <circle class="cls-2" cx="315.32" cy="107.15" r=".44"/>
  </g>
</svg>