<?xml version="1.0" encoding="UTF-8"?>
<svg id="Capa_2" data-name="Capa 2" xmlns="http://www.w3.org/2000/svg" xmlns:xlink="http://www.w3.org/1999/xlink" viewBox="0 0 213.06 274.52">
  <defs>
    <style>
      .cls-1 {
        fill: #fff;
      }

      .cls-2 {
        fill: #020202;
      }

      .cls-3 {
        fill: #ffc533;
      }

      .cls-4 {
        fill: #512f18;
      }

      .cls-5 {
        clip-path: url(#clippath-1);
      }

      .cls-6 {
        fill: none;
        stroke: #aa8b75;
        stroke-linecap: round;
        stroke-miterlimit: 10;
        stroke-width: 1.26px;
      }

      .cls-7 {
        fill: #005959;
      }

      .cls-8 {
        fill: #e5c0a8;
      }

      .cls-9 {
        clip-path: url(#clippath);
      }

      .cls-10 {
        fill: #014947;
      }

      .cls-11 {
        fill: #152809;
      }
    </style>
    <clipPath id="clippath">
      <path class="cls-11" d="m99.93,165.28l.74,4.74s-5.56,3.9-5.37,9.38c0,0-.68,3.38,2.21,7.94.69,1.09,1.14,2.34,1.26,3.62.1,1.08,0,2.23-.69,2.92,0,0-4.09,5.11.19,11.05,0,0,7.89,9.29,17.55,0,0,0,3.81-5.57.37-11.33,0,0-2.6-3.69-.55-6.6.5-.71.81-1.52,1.07-2.34.88-2.83,1.88-8.31-1.59-12.55-.56-.68-1.28-1.21-2.09-1.58l-.09-.04.56-5.2h-13.56Z"/>
    </clipPath>
    <clipPath id="clippath-1">
      <path class="cls-11" d="m109.53,252.86v9.34c0,1.46-.48,2.88-1.41,4-1.17,1.41-2.67,3.72-2.9,6.5-.08.98.69,1.83,1.68,1.81l36.88-.89s4.6-10.89-5.93-14.71c-1.63-.59-3.36-.88-5.09-.88-2.76,0-7.03.58-10.06,3.73l1.48-7.79-14.65-1.11Z"/>
    </clipPath>
  </defs>
  <g id="Capa_1-2" data-name="Capa 1">
    <g id="NIÑO_3" data-name="NIÑO 3">
      <path class="cls-4" d="m137.16,46.38c3.05,19.16,7.76,28.33,10.63,32.36,1.79,2.51,3.38,5.16,4.67,7.96,10.69,23.14,26.07,26.18,26.07,26.18-25.33,19.91-54.33,4.25-54.33,4.25-31.51-16.05-42.92-46.21-42.92-46.21l55.87-24.55Z"/>
      <g>
        <ellipse class="cls-8" cx="102.7" cy="48.11" rx="31.18" ry="30.02"/>
        <path class="cls-8" d="m125.76,37.13s3.42-6.02,8.51-5.61c2.79.22,4.98,2.49,5.43,5.25.67,4.16.26,10.99-9.69,10.99"/>
        <path class="cls-8" d="m74.23,54.83s-4.25.77-2.13,6.38c0,0,.77,3.29,4.83,3.29"/>
      </g>
      <path class="cls-4" d="m93.29,18.09s-4.43-5.54-3.03-10.62c.2-.73.9-1.22,1.66-1.22h6.99c.55,0,.8.68.38,1.03-2.53,2.15-7.73,7.21-5.39,10.81"/>
      <path class="cls-4" d="m89.65,32.62l-2.43-.38c-2.19-.34-4.26,1-4.78,3.06-1.22,4.86-4.14,13.64-10.45,20.75,0,0-7.79-14.5.42-28.99,0,0,2.2-4.2,6.64-8.17,2.19-1.95,5.07-3.05,8.06-3.05h5.46l3.44-2.49c3.64-2.64,8.19-3.93,12.74-3.48,3.35.33,7.13,1.01,9.8,2.4,0,0,9.74,4.06,16.31,19.36,0,0-7.79-.5-9.97,7.55,0,0-8.62.79-15.27-6.36,0,0-3.88-3.62-8.22-6.81-1.69-1.24-4.02-1.54-5.9-.57s-3.92,2.96-5.83,7.19Z"/>
      <path class="cls-8" d="m116.57,75v12.18s7.08.77,9.2-5.99l-.04-12.83-9.15,6.65Z"/>
      <path class="cls-8" d="m136.97,76.35l23.36-21.42c.66-.61,1.23-1.31,1.69-2.08l23.38-39.15v-3.1c0-2.4,1.24-4.63,3.28-5.89l5.22-3.23c2.35-1.45,5.19-1.86,7.85-1.13l10.46,2.87c1.06.29,1.14,1.77.11,2.16l-11.95,4.61c-.88.34-1.67.89-2.3,1.6l-5.72,6.46-19.55,39.1c-.31.61-.69,1.19-1.13,1.71l-28.62,33.43-6.09-15.95Z"/>
      <path class="cls-8" d="m111.06,88.72l-26.55-.19c-1.37,0-2.73-.2-4.04-.6l-50.09-15.11c-3.21-.97-6.66-.81-9.77.45L.69,81.34c-1.14.46-.78,2.16.45,2.12l14.03-.53-.24,3.47c-.07,1.03.91,1.81,1.9,1.52l12.08-3.65c1.62-.49,3.36-.46,4.96.09l42.54,14.64c1.82.63,3.74.95,5.66.95l41.7-.82-12.71-10.39Z"/>
      <polygon class="cls-8" points="100.72 153.49 100.72 166.25 112.32 166.25 112.32 151.46 100.72 153.49"/>
      <path class="cls-8" d="m130.88,197.86l-3.33,16.9c-.27,1.39-.82,2.71-1.63,3.88-2.99,4.33-10.81,17.01-13.6,34.91l9.28,1.45,18.13-32.36c.53-.95,1-1.93,1.38-2.94,1.45-3.8,4.72-13.43,4.27-21.83h-14.5Z"/>
      <path class="cls-7" d="m88.06,157.74s25.71-5.61,40.21,3.67c0,0-3.78-7.86-3.85-18.51-.06-8.64-2.52-17.17-7.67-24.1-.41-.55-.84-1.1-1.29-1.64-3.69-4.46-10.54-5.11-14.72-1.11-1.9,1.82-3.27,4.59-3.21,8.81.19,13.15-9.47,32.87-9.47,32.87Z"/>
      <path class="cls-10" d="m122.47,130.91l1.55,18.55,8.23,7.52c2.03,2.34,2.96,5.48,2.5,8.59-1.33,9.1-4.59,28.1-9.38,33.94h39.44s-10.63-24.13-7.93-50.05c0,0-7.15-25.52-34.41-18.55Z"/>
      <path class="cls-3" d="m111.06,88.72l5.8-4.06s7.35,3.09,8.7-4.64c0,0,2.9-3.09,12.18-3.87,0,0,18.02,32.85,18.87,56.4.15,4.04,1.4,7.92,3.37,11.45.2.37.39.74.54,1.12,1.1,2.68-1.89,5.13-4.29,3.5-1.07-.73-2.32-1.98-3.72-4.07-2.61-3.88-6.03-7.2-10.22-9.29-4.46-2.22-10.79-4.04-19.24-3.63l-.97-5.03s11.02-18.75-11.02-37.89Z"/>
      <g>
        <path class="cls-11" d="m99.93,165.28l.74,4.74s-5.56,3.9-5.37,9.38c0,0-.68,3.38,2.21,7.94.69,1.09,1.14,2.34,1.26,3.62.1,1.08,0,2.23-.69,2.92,0,0-4.09,5.11.19,11.05,0,0,7.89,9.29,17.55,0,0,0,3.81-5.57.37-11.33,0,0-2.6-3.69-.55-6.6.5-.71.81-1.52,1.07-2.34.88-2.83,1.88-8.31-1.59-12.55-.56-.68-1.28-1.21-2.09-1.58l-.09-.04.56-5.2h-13.56Z"/>
        <g class="cls-9">
          <path class="cls-1" d="m96.78,202.09s9.48-7.8,20.25.24c10.77,8.04,0,0,0,0l-.24,5.67-11.56,2.79-8.92-3.9.47-4.8"/>
        </g>
      </g>
      <g>
        <path class="cls-11" d="m109.53,252.86v9.34c0,1.46-.48,2.88-1.41,4-1.17,1.41-2.67,3.72-2.9,6.5-.08.98.69,1.83,1.68,1.81l36.88-.89s4.6-10.89-5.93-14.71c-1.63-.59-3.36-.88-5.09-.88-2.76,0-7.03.58-10.06,3.73l1.48-7.79-14.65-1.11Z"/>
        <g class="cls-5">
          <path class="cls-1" d="m139.6,259.69s-10.47,1.29-8.52,14.24,0,0,0,0l10.98.58,3.75-.98-1.05-12.65-5.17-1.19"/>
        </g>
      </g>
      <g>
        <ellipse class="cls-2" cx="91.3" cy="54.55" rx="1.21" ry="2.08" transform="translate(-9.8 21.53) rotate(-12.77)"/>
        <ellipse class="cls-2" cx="98.47" cy="51.75" rx="1.21" ry="2.08" transform="translate(-9 23.05) rotate(-12.77)"/>
        <path class="cls-6" d="m96.73,65.11s11.67.73,12.54-11.17"/>
        <path class="cls-6" d="m106.81,53s3.7-1.09,6.45,2.25"/>
      </g>
    </g>
  </g>
</svg>