<?xml version="1.0" encoding="UTF-8"?>
<svg id="Capa_2" data-name="Capa 2" xmlns="http://www.w3.org/2000/svg" xmlns:xlink="http://www.w3.org/1999/xlink" viewBox="0 0 189.95 309.52">
  <defs>
    <style>
      .cls-1 {
        fill: #54491b;
      }

      .cls-2 {
        fill: #f4874a;
      }

      .cls-3 {
        fill: #0f0f0e;
      }

      .cls-4 {
        fill: none;
        stroke: #8e7262;
        stroke-linecap: round;
        stroke-miterlimit: 10;
        stroke-width: 1.04px;
      }

      .cls-5 {
        fill: #f7f1da;
      }

      .cls-6 {
        fill: #3e89af;
      }

      .cls-7 {
        fill: #4498cc;
      }

      .cls-8 {
        fill: #3f350d;
      }

      .cls-9 {
        fill: #e8c0aa;
      }

      .cls-10 {
        clip-path: url(#clippath);
      }

      .cls-11 {
        fill: #494846;
      }
    </style>
    <clipPath id="clippath">
      <circle class="cls-5" cx="23.9" cy="222.18" r="23.9"/>
    </clipPath>
  </defs>
  <g id="Capa_1-2" data-name="Capa 1">
    <g id="NIÑO_4" data-name="NIÑO 4">
      <ellipse class="cls-9" cx="150.57" cy="53.12" rx="31.71" ry="38.13"/>
      <path class="cls-9" d="m181,43.45s7.33-2.23,8.92,6.69c0,0,.96,8.29-7.65,12.43s-7.33-15.3-7.33-15.3l6.05-3.82Z"/>
      <polygon class="cls-9" points="154.87 90.64 154.87 102.09 165.49 101.02 165.49 85.36 154.87 90.64"/>
      <path class="cls-9" d="m168.04,137.14l4.43,14.16c.47,1.57.3,3.26-.46,4.71-3.99,7.57-16.68,31.63-16.96,31.72s6.11,18.24,8.33,24.51c.3.84,1.44.96,1.91.2l.85-1.38c2.51-4.08,3.61-8.86,3.13-13.62l-.91-9.19c-.07-.71.19-1.42.72-1.9,2.52-2.32,10.33-10.43,17.63-27.56,1.46-3.43,1.96-7.19,1.41-10.88-.68-4.53-3.26-11.72-6.39-15.97l-13.7,5.2Z"/>
      <path class="cls-9" d="m154.87,121.84l.18,19.59c0,3-2.57,5.35-5.56,5.08l-8.48-.77-45.57-6.21-9.47-.44c-2.76-.13-5.28-1.57-6.79-3.88l-8.55-13.08c-.82-1.25.44-2.81,1.83-2.28l16.13,6.13,4.31-.37c.84-.07,1.68.03,2.48.31l11.58,3.98c1.97.68,4.06.9,6.13.65l41.79-8.71Z"/>
      <path class="cls-1" d="m118.86,58.63s-1.91-11.79-9.24-15.93l11.47-10.83s-13.06.32-16.89,7.97c0,0,2.55-13.06,18.16-15.61,0,0-6.69-7.33-11.47-6.69,0,0,7.65-4.86,14.66-.04,0,0,.96-13.98,16.57-17.49,0,0-9.24,9.24-6.69,18.16,0,0,16.25-14.66,52.58-9.56,0,0-15.93-.96-27.09,10.2,0,0,16.89-4.46,23.26-1.27,0,0-10.52,2.87-14.34,7.97,0,0,7.01-4.46,18.16-.64l-7.97,2.87,2.55,16.25-6.69,11.79-6.05-19.44-8.29,5.74,4.14-8.29-18.16,1.91.32,9.24-5.1-6.37-5.74,8.92.64-14.34-3.82,5.42-9.24-2.23,3.51,3.82-8.42,4.36-.82,14.12Z"/>
      <path class="cls-8" d="m38.39,255.29l-5.41,7.55s.42-13.24-11.67-16.36c-4.42-1.14-9.12.17-12.59,3.13l-4.68,3.99,31.87,37.12s7.97-17.1,19.07-20.98l-16.58-14.46Z"/>
      <path class="cls-8" d="m83,281.12l1.99,10.68s-10.52-8.08-20.32-.34c-3.58,2.83-5.38,7.36-5.13,11.92l.35,6.14,48.84-2.91s-4.29-16.38-.67-27.56l-25.06,2.07Z"/>
      <path class="cls-6" d="m95.6,161.83l-8.58,18.14c-.86,1.81-2.02,3.46-3.44,4.87l-25.77,25.65c-3.65,3.63-6.46,8.03-8.22,12.87l-8.89,24.42c-.61,1.69-2.22,2.81-4.01,2.81h-3.7l26.13,22.78-1.6-8.53c-.2-1.09-.08-2.21.34-3.23l11.94-28.46c1.23-2.93,3.48-5.32,6.33-6.73l7.21-3.56,19.12-38.72-5.26-23.26-1.59.96Z"/>
      <path class="cls-7" d="m97.19,160.88l3.35,22.62s-14.54,12.24-22.26,29.59c-2.97,6.68-4.13,14.04-3.5,21.33.77,8.98,2.63,23.49,6.95,34.89.7,1.86.72,3.91.04,5.77l-2.73,7.51,31.87-1.12-3.66-5.49c-.71-1.06-.93-2.38-.59-3.62l.82-3.03-2.42-2.12c-.68-.6-1.22-1.33-1.58-2.16-1.81-4.13-7.13-17.6-6.06-31.25.25-3.14,1.43-6.14,3.33-8.66l22.91-30.51s7.97-10.43,8.29-26.29c0,0-11.15-16.89-34.73-7.49Z"/>
      <path class="cls-2" d="m154.55,98.42s4.14,5.1,11.31.96c0,0,7.04-.8,9.02,4.94,0,0,5.96,23.42,12.81,26.93,0,0-20.39,6.53-25.65,10.04l-1.09-20.44s-22.97,11.09-23.92,53.26c0,0-16.73-17.37-44.77-12.75,0,0,19.12-45.25,53.38-62.14,0,0,3.82-1.75,8.92-.8Z"/>
      <g>
        <circle class="cls-5" cx="23.9" cy="222.18" r="23.9"/>
        <g class="cls-10">
          <polygon class="cls-11" points="17.15 197.27 10.31 199.44 8.77 206.46 14.07 211.3 20.92 209.13 22.46 202.11 17.15 197.27"/>
          <polygon class="cls-11" points="27.24 216.46 20.06 216.75 16.72 223.11 20.56 229.18 27.74 228.89 31.08 222.53 27.24 216.46"/>
          <polygon class="cls-11" points="34.59 234.88 28.14 238.03 27.64 245.2 33.6 249.21 40.05 246.06 40.55 238.89 34.59 234.88"/>
          <polygon class="cls-11" points="18.12 236.75 11.9 233.16 5.68 236.75 5.68 243.94 11.9 247.53 18.12 243.94 18.12 236.75"/>
          <polygon class="cls-11" points="10.03 217.91 3.44 215.04 -2.34 219.31 -1.53 226.45 5.06 229.32 10.83 225.05 10.03 217.91"/>
          <polygon class="cls-11" points="51.54 225.08 45.32 228.67 39.1 225.08 39.1 217.9 45.32 214.3 51.54 217.9 51.54 225.08"/>
          <polygon class="cls-11" points="37.12 198.56 30.28 200.73 28.74 207.75 34.04 212.59 40.89 210.41 42.43 203.4 37.12 198.56"/>
        </g>
      </g>
      <g>
        <ellipse class="cls-3" cx="142.44" cy="61.72" rx="1.17" ry="2.34"/>
        <ellipse class="cls-3" cx="148.07" cy="61.3" rx="1.17" ry="2.34"/>
        <path class="cls-4" d="m128.38,60.81s3.35,17.89,16.53,17.43c3.29-.11,5.96-.9,8.11-2.01,5.05-2.6,8.14-7.89,8.48-13.56l.33-5.49"/>
        <path class="cls-4" d="m125.88,63.51s1.73-4.07,5.73-4.15"/>
        <path class="cls-4" d="m158.76,56.88s3.58-1.67,6.32,1.43"/>
      </g>
    </g>
  </g>
</svg>