<?xml version="1.0" encoding="UTF-8"?>
<svg id="Capa_2" data-name="Capa 2" xmlns="http://www.w3.org/2000/svg" xmlns:xlink="http://www.w3.org/1999/xlink" viewBox="0 0 254.26 255.91">
  <defs>
    <style>
      .cls-1 {
        fill: #fff;
      }

      .cls-2 {
        fill: #d8d7d6;
      }

      .cls-3 {
        clip-path: url(#clippath-2);
      }

      .cls-4 {
        fill: #f98abf;
      }

      .cls-5 {
        fill: #5b5957;
      }

      .cls-6 {
        fill: none;
        stroke: #aa8672;
        stroke-linecap: round;
        stroke-miterlimit: 10;
        stroke-width: 1.17px;
      }

      .cls-7 {
        clip-path: url(#clippath-1);
      }

      .cls-8 {
        fill: #4c4642;
      }

      .cls-9 {
        fill: #dd1d47;
      }

      .cls-10 {
        fill: #ea183c;
      }

      .cls-11 {
        fill: #191817;
      }

      .cls-12 {
        fill: #f9f9f9;
      }

      .cls-13 {
        clip-path: url(#clippath);
      }

      .cls-14 {
        fill: #383431;
      }

      .cls-15 {
        fill: #898685;
      }

      .cls-16 {
        fill: #e8c8af;
      }
    </style>
    <clipPath id="clippath">
      <path class="cls-10" d="m33.37,109.54l1.7,6.7s-11.89-14.54-28.29-7.95C2.93,109.84.13,113.44,0,117.6c-.04,1.52.19,3.27.86,5.26.3.88.77,1.71,1.38,2.41,3.26,3.69,15.6,16,35.39,15.89,0,0,5.52-.61,8.2-6.54.96-2.12,1.23-4.48,1.01-6.79-.31-3.18-.57-9.12,1.28-11.92l-14.76-6.36Z"/>
    </clipPath>
    <clipPath id="clippath-1">
      <path class="cls-10" d="m219.64,31.85l-.37-6.9s8.85,16.57,26.22,13.28c4.08-.77,7.53-3.77,8.45-7.82.34-1.48.45-3.24.18-5.33-.12-.93-.42-1.83-.89-2.63-2.48-4.25-12.2-18.71-31.64-22.44,0,0-5.53-.47-9.31,4.83-1.35,1.89-2.07,4.15-2.3,6.47-.32,3.18-1.21,9.05-3.57,11.45l13.25,9.1Z"/>
    </clipPath>
    <clipPath id="clippath-2">
      <path class="cls-11" d="m47.02,199.07c8.55-2.85,35.81-9.14,37.95,25.76,0,0-11.67-9.12-15.56,8.98,0,0,5.23-23.48-22.4-34.74"/>
    </clipPath>
  </defs>
  <g id="Capa_1-2" data-name="Capa 1">
    <g id="NIÑO_1" data-name="NIÑO 1">
      <path class="cls-16" d="m133.94,173.48h5.23c1.96,0,3.52,1.66,3.39,3.62l-4.11,63.04c-.05.69.45,1.31,1.14,1.39,3.36.41,13.12.76,22.77-6.85.88-.7.93-2.03.07-2.75-1.74-1.43-5.6-2.79-13.6.83l12.6-55.48c.11-.47.17-.94.17-1.42,0-1.08-.08-3.13-.71-5.38-1.21-4.29-4.89-7.43-9.29-8.18-3.25-.56-7.69-1.26-10.42-1.41l-7.24,12.61Z"/>
      <path class="cls-16" d="m79.4,57.39s-6.83-9.61-20.38-11.51c-3-.42-6.07-.2-8.9.86-3.66,1.37-8.16,4.36-10.5,10.9-.67,1.86-1,3.83-1.14,5.81l-3.33,47.17,15.42,4.02,8.58-42.37,3.08,2.41,17.16-17.3Z"/>
      <path class="cls-16" d="m166.81,68.25s10.91,1.25,17.7-3.04c-1.62-.12,4.37-.03,7.35-8.28,1.13-3.13,11.19-29.76,13.39-30.16l11.62,7.69c-4.32,17.45-8.82,31.63-13.62,40.58-1.73,5.16-6.22,8.92-11.6,9.73l-17.5,2.62-7.33-19.13Z"/>
      <g>
        <g>
          <path class="cls-10" d="m33.37,109.54l1.7,6.7s-11.89-14.54-28.29-7.95C2.93,109.84.13,113.44,0,117.6c-.04,1.52.19,3.27.86,5.26.3.88.77,1.71,1.38,2.41,3.26,3.69,15.6,16,35.39,15.89,0,0,5.52-.61,8.2-6.54.96-2.12,1.23-4.48,1.01-6.79-.31-3.18-.57-9.12,1.28-11.92l-14.76-6.36Z"/>
          <g class="cls-13">
            <path class="cls-1" d="m15.45,106.58s11.73,19.03-5.9,25.29c-17.63,6.26-8.76-21.75-8.76-21.75l10.86-5.57,3.8,2.03"/>
            <path class="cls-1" d="m46.92,129.64s-7.1-.07-12.74,11.4,11.11,1.93,11.11,1.93l1.63-13.33"/>
            <path class="cls-2" d="m.06,119.13s16.37,17.69,42.22,20c25.85,2.31,0,0,0,0l-5.84,5.51-32.73-9.81-5.13-12.35,1.48-3.35"/>
          </g>
        </g>
        <polygon class="cls-1" points="34.32 106.08 32.63 111.02 49.29 117.16 51.02 111.56 34.32 106.08"/>
      </g>
      <g>
        <g>
          <path class="cls-10" d="m219.64,31.85l-.37-6.9s8.85,16.57,26.22,13.28c4.08-.77,7.53-3.77,8.45-7.82.34-1.48.45-3.24.18-5.33-.12-.93-.42-1.83-.89-2.63-2.48-4.25-12.2-18.71-31.64-22.44,0,0-5.53-.47-9.31,4.83-1.35,1.89-2.07,4.15-2.3,6.47-.32,3.18-1.21,9.05-3.57,11.45l13.25,9.1Z"/>
          <g class="cls-7">
            <path class="cls-1" d="m236.64,38.23s-7.82-20.94,10.69-23.67c18.51-2.73,4.38,23.04,4.38,23.04l-11.73,3.36-3.33-2.72"/>
            <path class="cls-1" d="m210.24,9.51s6.96,1.44,14.71-8.72c7.75-10.16-10.53-4.04-10.53-4.04l-4.18,12.76"/>
            <path class="cls-2" d="m254.18,28.9s-12.63-20.53-37.54-27.8c-24.91-7.27,0,0,0,0l6.79-4.28,30.21,15.97,2.64,13.11-2.1,3"/>
          </g>
        </g>
        <polygon class="cls-1" points="218.04 35.06 220.65 30.55 205.5 21.3 202.71 26.45 218.04 35.06"/>
      </g>
      <g id="pantaloneta">
        <path class="cls-15" d="m100.41,113.63c17.43,2.96,34.83-.64,52.21-8.94-.15-.29,5.77-7.38,16.45-7.87l-11.24-30.91c-14.6,3.48-28.54,8.07-41.48,14.32,0,0-8.42-13.81-24.16-23.82,0,0-18.59,13.59-27.18,26.82,0,0,32.54,13.59,35.4,30.4Z"/>
        <path class="cls-5" d="m155.93,65.08c6.12,11.55,9.61,23.21,10.41,34.98l9.12-1.74c-1.39-12.72-4.86-24.95-11.26-36.48l-8.26,3.24Z"/>
        <path class="cls-5" d="m64.58,85.28c8.65-11.51,18.7-20.79,30.18-27.76l-6.2-7.04c-12.15,8-22.78,17.56-31.28,29.32l7.3,5.49Z"/>
      </g>
      <g>
        <g>
          <path class="cls-16" d="m24.44,223.83c-1.41-13.28.8-37.43,34.37-40.9,0,0,21.19-1.88,30.57,15.29,0,0,12.07,21.99-4.83,41.3,0,0-27.87,26-53.19-.58-3.92-4.12-6.32-9.45-6.92-15.11Z"/>
          <path class="cls-16" d="m43.12,187.36s-4.76.47-7.97-4.81c-.74-1.22-.62-2.82.23-3.97,1.13-1.52,3.78-2.88,9.98-1.15,0,0,5.21.87,6.78,6.54"/>
          <polyline class="cls-16" points="83.36 190.68 87.64 186.56 95.55 194.33 90.06 199.61"/>
        </g>
        <path class="cls-9" d="m54.6,254.13s-17.7,6.44-32.53-5.22c0,0-16.82-11.94-11.28-32.86,0,0,.85-9.12,8.38-17.88"/>
        <path class="cls-10" d="m23.87,192.33l2.63-.91c3.41-1.18,7.04,1.04,7.54,4.61,1.6,11.41,6.75,34.48,22.99,51.35,1.69,1.76,1.27,4.64-.85,5.85l-.48.27c-.75.43-1.69.82-2.48.46-5.11-2.4-30.96-11.95-34.06-55.13-.21-2.93,1.93-5.54,4.71-6.5Z"/>
      </g>
      <path class="cls-14" d="m85.78,187.38s6.12.24,7.11,7.45c.15,1.06.69,2.03,1.57,2.62,3.24,2.21,11.27,6.68,16.96,1.25.65-.62,1.36-1.15,2.08-1.68,7.5-5.51,41.73-34,37.19-92.63l-19.64,5.15c-4.24,1.11-8.58,1.78-12.96,2l-17.63.87c-2.15.11-3.83,1.98-3.66,4.16.13,1.66.65,3.28,2.12,3.65l4.42,2.7c2.38,1.45,3.79,4.11,3.68,6.93-.35,9.23-3.39,30.08-22.52,45.21-1.31,1.04-1.83,2.81-1.31,4.41l2.59,7.9Z"/>
      <path class="cls-16" d="m191.24,221.04c-5.54,0-12.87,10.55-12.87,10.55-5.01,11.62,1.61,10.2,1.61,10.2,7.15-1.6,18.24-13.6,18.24-13.6,2.15-2.68,1.07-8.76,1.07-8.76-2.5-18.24-28.79-76.7-28.79-76.7-5.54-6.79-13.95-5.19-13.95-5.19-11.26,1.61-39.51,10.37-39.51,10.37v17.88l37.01-11.44s4.83-3.04,6.44,1.61l26.58,66.62"/>
      <path class="cls-8" d="m114.26,141.15s-11.19,4.59-21.16,4.39c-5.21-.1-10.35,1.9-13.7,5.89-2.35,2.79-3.99,6.6-3.16,11.59,1.04,6.19,5.7,11.13,11.68,13.06,7.01,2.26,18.14,4.63,28.31,1.54,0,0,5.01-19.31-1.97-36.47Z"/>
      <g>
        <ellipse class="cls-11" cx="53.13" cy="219.58" rx="2.11" ry="1.19" transform="translate(-102.67 55.98) rotate(-30)"/>
        <ellipse class="cls-11" cx="56.16" cy="224.15" rx="2.11" ry="1.19" transform="translate(-104.55 58.11) rotate(-30)"/>
        <g>
          <path class="cls-11" d="m47.02,199.07c8.55-2.85,35.81-9.14,37.95,25.76,0,0-11.67-9.12-15.56,8.98,0,0,5.23-23.48-22.4-34.74"/>
          <g class="cls-3">
            <path class="cls-12" d="m73.53,224.72s-3.98-19.47-21.78-27.53l-6.07,1.21,24.14,36.68,3.89-8.58-.17-1.78"/>
            <path class="cls-4" d="m60.36,196.72l2.32,2.32c3.84,3.85,9.05,6.04,14.49,6.09l1.79.02-5.92-7.61-8.72-.82h-3.96"/>
          </g>
        </g>
        <path class="cls-6" d="m47.69,202.78s-2.5-4.79,2.16-7.23"/>
      </g>
    </g>
  </g>
</svg>