<?xml version="1.0" encoding="UTF-8"?>
<svg id="Capa_2" data-name="Capa 2" xmlns="http://www.w3.org/2000/svg" xmlns:xlink="http://www.w3.org/1999/xlink" viewBox="0 0 282.66 350.87">
  <defs>
    <style>
      .cls-1 {
        fill: #2fd3b4;
      }

      .cls-2 {
        fill: #fff;
      }

      .cls-3 {
        fill: #f4531c;
      }

      .cls-4 {
        fill: #ffc533;
      }

      .cls-5 {
        fill: #fbf6d2;
      }

      .cls-6 {
        fill: #e5461c;
      }

      .cls-7 {
        fill: #776840;
      }

      .cls-8 {
        fill: none;
        stroke: #c68a73;
        stroke-linecap: round;
        stroke-miterlimit: 10;
        stroke-width: 1.1px;
      }

      .cls-9 {
        fill: #d8ae9a;
      }

      .cls-10 {
        fill: #f78db3;
      }

      .cls-11 {
        fill: #c69e8f;
      }

      .cls-12 {
        fill: #a0906b;
      }

      .cls-13 {
        clip-path: url(#clippath);
      }

      .cls-14 {
        fill: #6d541d;
      }
    </style>
    <clipPath id="clippath">
      <path d="m126.63,127.51s6.28,3.65,15.89-.96c0,0,2.13,6.98-3.58,10.48-2.89,1.77-6.65,1.78-9.32-.31-2-1.57-3.58-4.34-2.99-9.22Z"/>
    </clipPath>
  </defs>
  <g id="Capa_1-2" data-name="Capa 1">
    <g id="VALERY">
      <g>
        <polygon class="cls-9" points="131.56 145.57 131.56 156.48 138.39 156.48 138.39 144.06 131.56 145.57"/>
        <g>
          <path class="cls-12" d="m150.58,9.24l54.57,52.89,4.7-5.88L153.1,5.88s.17-7.05-6.05-5.71c-.88.19-4.2,2.02-2.85,6.72,0,0,2.33,4.35,6.38,2.35Z"/>
          <path class="cls-9" d="m158.49,145.74l19.98-39.8,7.05-46.85,9.74,1.01-5.37,42.7c-.71,5.67-2.17,11.23-4.36,16.51-4.05,9.77-11.15,25.31-17.81,31.97l-9.24-5.54Z"/>
          <path class="cls-11" d="m189.67,41.16l-6.73,8.1c-1.36,1.63-1.87,3.81-1.34,5.87.69,2.69,2.65,6.03,7.96,7.51,2.16.6,4.48-.12,5.87-1.88l7.52-9.48c1.03-1.29,1.3-3.04.66-4.56-1.04-2.49-3.6-5.91-9.86-7.09-1.52-.29-3.08.34-4.07,1.53Z"/>
        </g>
        <g>
          <path class="cls-12" d="m109.66,9.56l-52.41,55.04-4.93-5.68L107.01,6.31s-.45-7.04,5.81-5.95c.89.16,4.28,1.85,3.12,6.6,0,0-2.15,4.44-6.28,2.6Z"/>
          <path class="cls-9" d="m105.56,146.02l-21.56-38.96-8.93-46.53-9.69,1.4,7.08,42.45c.94,5.64,2.62,11.13,5.02,16.32,4.44,9.6,12.15,24.84,19.07,31.23l9.01-5.91Z"/>
          <path class="cls-11" d="m70.71,43.02l7.05,7.82c1.42,1.58,2.02,3.73,1.58,5.81-.58,2.71-2.4,6.13-7.65,7.83-2.13.69-4.48.05-5.94-1.64l-7.89-9.17c-1.08-1.25-1.42-2.99-.85-4.53.94-2.53,3.36-6.05,9.56-7.48,1.51-.35,3.09.21,4.13,1.37Z"/>
        </g>
        <path class="cls-1" d="m107.49,138.33c2.78,4.02,6.7,7.7,11.43,11.15,1.53,1.12,3.38,1.72,5.28,1.72h20.42c2.74,0,5.34-1.22,7.06-3.35s3.77-5.15,5.85-9.53l16.01,13.99s-13.66,3.81-17.02,13.77c0,0-2.46,24.52,5.82,55.19l-33.02,15.45-21.83-13.66s7.95-32.35,1.12-53.51c0,0-4.93-17.13-18.36-15.45l17.24-15.78Z"/>
        <path class="cls-7" d="m116.47,144.83s-7.03,2.44-6.91,11.78c.04,2.85.86,5.63,2.17,8.16,1.9,3.69,5.07,11.47,3.25,19.59,0,0,2.66-1.75,5.3-5.73,3.2-4.83,4.39-10.71,3.73-16.46-.6-5.2-1.19-12.68-.07-15.48,1.79-4.48-7.48-1.86-7.48-1.86Z"/>
        <path class="cls-1" d="m115.5,136.73s-2.18,6.43,2.52,9.45c0,0,4.75,3.34,8.75-1.86l-6.74-6.99-4.54-.61Z"/>
        <g>
          <ellipse class="cls-9" cx="134.58" cy="121.14" rx="24.79" ry="24.43"/>
          <path class="cls-9" d="m157.48,119.04s2.61-4.99,6.51-2.67c2.03,1.2,2.9,3.67,2.45,5.98-.63,3.22-2.65,7.51-8.96,6.76-9.91-1.18,0-10.08,0-10.08Z"/>
          <path class="cls-9" d="m114.83,121.14s-5.48-4.59-9.81-3.18c-2.24.73-3.64,2.95-3.7,5.3-.09,3.28.94,7.91,7.27,8.56,9.92,1.02,6.24-10.68,6.24-10.68Z"/>
        </g>
        <path class="cls-7" d="m109.79,118.26s16.05.92,24.9-14.98c0,0,10.73,14.74,24.61,13.62l1.36-.86s-.23-6.47-7.61-16.43c0,0-6.6-6.49-13.43-4.59,0,0-.45-4.37,3.58-6.38,0,0-5.04-.11-6.27,3.02,0,0-3.92-2.8-6.49-.9,0,0,4.81,2.46,4.81,4.81,0,0-23.4-3.06-26.53,22.35l1.07.32Z"/>
      </g>
      <g>
        <circle class="cls-3" cx="138.25" cy="302.73" r="48.14"/>
        <circle class="cls-5" cx="138.25" cy="302.73" r="41.09"/>
      </g>
      <g>
        <polyline class="cls-14" points="75.13 319.48 78.47 341.53 81.46 315.73 87.65 316.01 86.8 304.2 38.29 305.26 32.07 336.83 41.64 315.67 74.56 315.67 75.13 319.48"/>
        <path class="cls-6" d="m97.28,271.36c-7.24,8.99-10.48,20.42-10.48,32.84,0,2.04.12,4.04.35,6h-42.45c-5.99,0-10.88-4.79-11-10.78l-.89-43.37c34.48,5.42,64.47,0,64.47,0v15.31Z"/>
        <ellipse class="cls-5" cx="64.67" cy="255.16" rx="32.6" ry="6.49"/>
      </g>
      <g>
        <polyline class="cls-14" points="201.57 321.26 198.23 343.31 195.24 317.51 189.05 317.78 189.9 305.97 238.42 307.04 244.63 338.61 235.06 317.45 202.15 317.45 201.57 321.26"/>
        <path class="cls-6" d="m179.34,271.36c7.24,8.99,10.48,20.42,10.48,32.84,0,2.04-.12,4.04-.35,6h42.45c5.99,0,10.88-4.79,11-10.78l.89-43.37c-34.48,5.42-64.47,0-64.47,0v15.31Z"/>
        <ellipse class="cls-5" cx="211.94" cy="255.16" rx="32.6" ry="6.49"/>
      </g>
      <g>
        <path class="cls-3" d="m138.25,226.34v23.95c-10.42.54-20.08,3.84-28.17,9.15h-.02l-7.21.16v-3.54c0-.13-.03-.25-.05-.38.02-.16.05-.34.05-.51,0-5.58-7.34-7.69-13.75-8.9-3.14-.59-6.74-1.05-10.64-1.39v-18.53c19.31,5.16,59.78,0,59.78,0Z"/>
        <ellipse class="cls-5" cx="108.36" cy="226.81" rx="29.89" ry="5.66"/>
      </g>
      <g>
        <path class="cls-3" d="m138.25,226.34v23.95c10.51.54,20.24,3.84,28.41,9.15h.02l7.27.16v-3.54c0-.13.03-.25.05-.38-.02-.16-.05-.34-.05-.51,0-5.58,7.41-7.69,13.86-8.9,3.17-.59,6.8-1.05,10.73-1.39v-18.53c-19.47,5.16-60.28,0-60.28,0Z"/>
        <ellipse class="cls-5" cx="168.39" cy="226.81" rx="30.14" ry="5.66"/>
      </g>
      <g>
        <polygon class="cls-14" points="18.17 226.81 15.95 308.95 0 343.82 18.14 320.04 21.49 335.15 23.51 320.04 36.27 335.82 22.5 307.11 23.51 227.97 50 200.99 50 194.6 18.17 226.81"/>
        <ellipse class="cls-4" cx="58.16" cy="193.04" rx="9.42" ry="34.09" transform="translate(-142.02 217.07) rotate(-80.08)"/>
        <path class="cls-14" d="m56.96,187.86s-.41,3.69,3.78,2.46l5.74-11.33c.13-.27-.21-.51-.42-.3l-9.1,9.17Z"/>
      </g>
      <g>
        <polygon class="cls-14" points="251.38 229.45 253.6 311.59 269.54 346.46 251.41 322.68 248.05 337.79 246.04 322.68 233.27 338.46 247.04 309.75 246.04 230.61 194.27 193.77 194.27 187.38 251.38 229.45"/>
        <ellipse class="cls-4" cx="192.81" cy="186.71" rx="35.04" ry="9.68" transform="translate(-53.57 80.25) rotate(-20.71)"/>
        <ellipse class="cls-4" cx="249.75" cy="223.84" rx="32.91" ry="6.82"/>
        <path class="cls-14" d="m245.71,218.61l2.14-16.17c.08-.61.96-.64,1.08-.03l3.17,16.21s-3.35,1.49-6.38,0Z"/>
        <path class="cls-14" d="m188.97,179.97s1.31,3.48-3.05,3.32l-7.91-9.01c-.28-.32.11-.78.47-.57l10.49,6.26Z"/>
      </g>
      <g>
        <g>
          <path d="m126.63,127.51s6.28,3.65,15.89-.96c0,0,2.13,6.98-3.58,10.48-2.89,1.77-6.65,1.78-9.32-.31-2-1.57-3.58-4.34-2.99-9.22Z"/>
          <g class="cls-13">
            <path class="cls-2" d="m126.5,129.27s7.25,4.99,16.39,0,0,0,0,0v-2.47s-16.4.22-16.4.22v2.25"/>
            <path class="cls-10" d="m141.17,135.05h-.71c-2.38-.05-4.59,1.21-5.75,3.28h0s3.02.56,3.02.56l2.46-1.4.98-2.44"/>
          </g>
        </g>
        <path class="cls-8" d="m122.05,120.4s2.46,8.87,12.93,8.87c3.79,0,9.01-2.04,12.93-9.32"/>
        <path class="cls-8" d="m120.48,122.66s.11-3.37,3.13-2.7"/>
        <path class="cls-8" d="m146,119.97s3.58-.34,3.47,2.13"/>
        <ellipse cx="133.41" cy="121.15" rx=".85" ry="1.29"/>
        <ellipse cx="138.13" cy="121.15" rx=".85" ry="1.29"/>
      </g>
    </g>
  </g>
</svg>