<?xml version="1.0" encoding="UTF-8"?>
<svg id="Capa_2" data-name="Capa 2" xmlns="http://www.w3.org/2000/svg" viewBox="0 0 262.17 489.85">
  <defs>
    <style>
      .cls-1 {
        fill: #e8ad8d;
      }

      .cls-2, .cls-3 {
        fill: #fff;
      }

      .cls-4 {
        fill: #2f2e28;
      }

      .cls-5 {
        fill: #e57fb9;
        opacity: .59;
      }

      .cls-6 {
        fill: #d3d0c1;
      }

      .cls-7 {
        fill: #ccc08f;
      }

      .cls-8 {
        fill: #ceab8d;
      }

      .cls-9 {
        fill: #ded8ce;
      }

      .cls-10 {
        fill: #540e19;
      }

      .cls-11 {
        fill: #303b5a;
      }

      .cls-12 {
        fill: #1b1614;
      }

      .cls-13 {
        fill: #dbb191;
      }

      .cls-14 {
        fill: #2b150d;
      }

      .cls-3 {
        opacity: .82;
      }

      .cls-15, .cls-16 {
        stroke: #b56e55;
      }

      .cls-15, .cls-16, .cls-17 {
        fill: none;
        stroke-linecap: round;
      }

      .cls-15, .cls-16, .cls-17, .cls-18 {
        stroke-miterlimit: 10;
      }

      .cls-15, .cls-17 {
        stroke-width: 1px;
      }

      .cls-19 {
        fill: #eadb0c;
      }

      .cls-16 {
        stroke-width: .97px;
      }

      .cls-20 {
        fill: #d33454;
      }

      .cls-17 {
        stroke: #c18267;
      }

      .cls-21 {
        fill: #1c1b19;
      }

      .cls-22 {
        fill: #a18060;
      }

      .cls-23 {
        fill: #937054;
      }

      .cls-24 {
        fill: #f9aad2;
      }

      .cls-18 {
        stroke: #000;
        stroke-width: 1.72px;
      }
    </style>
  </defs>
  <g id="Capa_3" data-name="Capa 3">
    <g>
      <path class="cls-18" d="m261.09,367.53l-1.12-2.09c-.57-1.08-.95-2.24-1.11-3.45l-1.21-9.41c-.44-3.35-2-6.49-4.41-8.85l-6.1-5.97c-1.17-1.15-1.77-2.75-1.63-4.4,1.68-19.89-4.97-45.88-5.82-49.13l4.35-2.82-14.94-26.41c4.53-2.62,5.5-9.22,5.55-9.56.16-2.77-.43-4.76-1.76-5.9-1.13-.97-2.46-1.05-3.2-1.01-.15-1.99-.46-3.41-.49-3.57-1.45-4.13-4.68-4.34-5.93-4.27-.21-1.48-.83-2.82-1.81-3.79-2.82-2.79-6.51-1.46-7.63-.96-1.96-2.32-4.31-2.34-4.27-2.33-3.74-.62-6.23,3.95-6.91,5.37l-5.19-1.66c-.17-2.36.33-3.94.52-4.44,6.06-2.33,11.99-5.14,17.77-8.45,7.49-4.28,11.65-12.82,10.54-21.42,1.31.45,2.53.53,3.25.53.42,0,.66-.03.67-.03,6.44.47,9.49-5.36,10.5-7.9.36-.89.62-1.85.79-2.85,1.25-7.83-1.95-11.76-3.99-13.42,4.93-22.08-.12-37.81-3.58-45.23-1.75-3.74-4.36-6.78-7.56-8.79-4.63-2.88-9.52-3.25-13.61-2.73-.51-4.05-2.99-7.41-7.4-9.97-3.63-2.1-7.97-3.21-12.58-3.21h-.15c-3.13,0-6.27.17-9.31.48-10.22,1-20.26,4.51-29.07,10.15,1.08-2.09,2.08-4.78,3.03-7.85,20.63-16.66,18.82-51.69,18.47-56.44,9.76-.05,13.66-12.3,13.71-12.43l.29-.95-.93.36c-6.37,2.44-15.22-.46-19.15-2.01,12.55-.85,15.76-10.42,15.79-10.51l.35-1.11-1.03.52c-14.51,7.34-26.84-.23-30.3-2.74,22.72-2.09,24.48-12.97,24.55-13.43l.14-1.02-.87.53c-8.02,4.88-20.55,4.35-27.31,3.6-1.98-.21-4.07-.61-6.41-1.2C124.35.21,106.61.5,93.42,1.33c-5.73.36-11.05,1.73-15.81,4.07-8.54,4.22-11.89,9.48-13.2,12.84-.86-4.18-3.81-8.26-3.97-8.48l-.17-.23-.28.04c-6.86.91-11.31,10.33-11.49,10.73l.84.47c2.72-4.31,9.91-1.17,13.01.45-12.96,1.02-15.57,11.08-15.58,11.19l-.02,40.38c-.81,0-2.44.15-4.19,1.07-2.2,1.17-4.96,3.87-5.59,10.05-.02.16-1.67,15.25,11.54,21.25.07.04.91.42,2.09.42.8,0,1.76-.17,2.73-.76-1.78,12.97,6.13,25.27,18.8,28.94,3.1.89,6.43,1.81,9.88,2.71-.07,1.44-.49,6.85-3.39,10.96-2.42-.46-18.19-2.72-31.63,11.31l-33.98,37.36.12.28c.04.11,1.71,4.29,4.89,9.44-1.7,2.98-20.91,37.69-12.28,73.95l-4.41,17.18c-.76,2.93-.59,5.97.47,8.81l4.45,11.85c.42,1.12.65,2.28.69,3.47l.16,4.68.31.11c.58.21,1.41.4,2.3.4,1.55,0,3.32-.55,4.33-2.46.1-.24,1.4-3.86,1.13-8.15.68.47,1.54.84,2.49.84.54,0,1.11-.12,1.68-.42.26-.1,1.19-.49,1.55-1.71.75-2.54-1.53-6.75-6.75-12.49l3.55-9.97c1.3,2.3,4.8,7.91,8.47,8.78,1.18.28,2.27.06,3.26-.66.4-.21,2.68-1.6,1.53-5.01l-.09-.16c-.07-.08-7.01-8.2-8.77-18.14.44-2.09,8.33-39.48,19.3-51.89.74.15,1.49.25,2.26.32-2.91,18.54-7.27,41.49-12.49,53.82l-.23.54.57.13c.07,0,.9.19,2.34.48l-6.56,72.51c-.24,2.74-1.17,5.41-2.68,7.72l-5.06,7.76.53.22c.13.06,5.32,2.22,13.15,4.68l1.01,66.03c-3.39.33-5.54.69-5.61.71l-.48.08,1.53,8.9-11.95,21.33c-.77,1.36-1.21,2.91-1.3,4.47-.6,11.06,5.1,12.51,5.33,12.57,5.84,1.44,11.53,1.91,16.53,1.91,9.93,0,17.12-1.88,17.21-1.91,3.18-.76,5.34-3.51,6.59-5.69,1.22-2.14,1.71-4.67,1.34-7.14l-2.88-19.63,4.1-13.7-.48-.14c-1.2-.34-2.42-.63-3.67-.88l7.95-59.89c1.55.09,3.1.14,4.65.14,1.99,0,3.96-.08,5.89-.24l.48-.04-.8-11.73c-.22-3.26.02-6.53.72-9.71l2.73-12.5c2.02,4.16,8.32,18.44,8.14,33.74v.49s.49,0,.49,0c.12,0,4.17-.06,10.2-.29l8.67,55.58c-2.45.41-3.95.73-3.98.74l-.61.14,3.78,7.37c.51,1.01.79,2.13.79,3.26v8.86c0,4.31,1.63,8.41,4.6,11.54l10.5,11.11c2.19,2.31,5.12,3.68,8.25,3.83,1.32.07,2.58.1,3.78.1,13.25,0,19.98-3.64,20.29-3.8,4.75-2.73,5.33-8.89,5.25-12.34-.02-1.18-.47-2.32-1.26-3.18l-2.91-3.14c1.77-5.15,1.15-9.95.61-12.37-.28-1.22-.37-2.5-.27-3.81l.56-7.87-.81.52c-.48.31-.99.55-1.54.76l8.53-41.22,3.97,1.49,6.25-28.01,6.58,27.87,7.55-.54c2.65,14.39,7.41,30.8,13.46,46.39-1.01-.31-1.62-.56-1.65-.57l-.43.87c1.6.88,2.64,13.89,2.87,22.84v.24l8.64,6.31c2.25,1.64,4.96,2.54,7.64,2.54h.02c6.05,0,11.89-1,15.73-1.83,3.04-.66,5.46-2.9,6.3-5.86,2.19-7.66-.62-13.45-3.37-16.96-1.54-1.96-3.7-3.61-6.42-4.88-4.72-2.21-8.51-7.69-8.54-7.74l-.44-.64-.39.67c-.16.26-.32.51-.48.77-2.15-12.31-6.97-40.14-7.47-43.97l5.25-.37-7.06-58.12c.67-.18,1.33-.37,2-.57l.33-.11.9-39.25.97,2.13,1.7-1.1c6.7,9.03,11.43,31.61,11.71,32.89l-.74,20.67c-.03.85.16,1.71.53,2.47l3.05,6.08c2.11,3.69,5.33,2.82,6.62,2.27.66-.28,1.05-.97.95-1.68l-1.42-9.83,8.91,7.79c-.47,1.61-2.11,8.02.24,9.6.18.19.81.76,1.78.77h.05c.86,0,1.75-.43,2.64-1.26l.22.58c.84,1.48,1.89,2.4,3.1,2.72.33.09.66.13.98.13,1.08,0,2.05-.43,2.73-.83.8-.48,1.08-1.52.63-2.36Zm-123.04,66.93c-.96-.13-1.95-.24-2.96-.34l-2.4-50.42,10.08,3.79c-.66,2.98-4.65,22.04-4.72,46.97Zm7.97-188.97l-18.37,12.4c-.8-7.64-1.53-16.12-1.93-24.22,2.96,1.96,13.4,8.76,20.3,11.81Zm-18.97-102.87c-1.22,2.48-4.59,10.76-2.62,22.35-6.15-10.23-18.32-13.54-20.62-14.08-.16-2.69.21-5.9,1.69-9.51,5.83.88,11.51,1.44,16.65,1.44,1.7,0,3.33-.08,4.9-.19Zm10.1,212.92c-.38-1.37-.68-2.75-.91-4.17-1.71-10.66-5.15-33.4-6.66-51.75l14.63-11.46,4.5,5.27-6.4,33.94.34.16s.41.19,1.07.48l-6.57,27.53Z"/>
      <path class="cls-1" d="m232.29,240.27c1.08.93,1.55,2.65,1.41,5.06-.01.08-1.13,7.74-6.37,9.41-.53.17-1.12.06-1.53-.29-.63-.53-1.33-1.52-1.3-3.22,1.26-.37,2.4-1.21,3.18-2.42,1.84-2.87,2.18-6.5,2.08-9.32.57-.03,1.65.02,2.53.78Z"/>
      <path class="cls-1" d="m228.28,235.23c.02.08,1.81,8.02-1.42,13.07-1.07,1.68-2.98,2.51-4.73,2.07-.81-.2-1.33-.62-1.63-1.24.49-.38.89-.91,1.15-1.53,2.2-5.35,2-12.63,1.76-15.95,1.02-.07,3.65.11,4.87,3.58Z"/>
      <path class="cls-1" d="m220.79,227.59c.92.91,1.5,2.22,1.61,3.67.24,3,.56,10.55-1.66,15.96-.36.87-1.08,1.49-1.88,1.6-1.1.16-2.03-.57-2.78-2.14,1.25-4.65.37-12.82.23-14.01-.28-2.72-1.01-4.62-1.88-5.95,1.13-.49,4.07-1.41,6.36.86Z"/>
      <path class="cls-1" d="m203.21,230.18l.17-.41c.02-.06,2.45-5.8,6.12-5.19.16.01,5.02.05,5.85,8.21.67,5.73.81,15.16-1.72,16.1-.03.01-.78.33-1.64-.13-.76-.41-1.79-1.54-2.35-4.54v-6.46l-.37-.09c-1.21-.31-4.52-1.43-5.3-2.91l-.09-.18-4.79-1.51c-.83-1.75-1.27-3.32-1.48-4.69l5.6,1.79Z"/>
      <path class="cls-8" d="m201.04,238.07c-1.5,1.22-7.7,5.88-15.11,5.42-4.82-.29-9.23-2.68-13.13-7.07,1.97-3.76,1.95-6.07,1.77-7.08,7.57-1.29,15.01-3.3,22.27-6.01-.61,2.2-1.23,7.64,4.21,14.73Z"/>
      <path class="cls-20" d="m201.68,238.8l2.98,3.1c-4.43,3.49-9.42,6.31-12.83,7.23-3.25.87-6.71.7-10.01-.48-6.87-2.47-11.5-7.14-12.68-8.42l3.05-3.02c4.05,4.51,8.66,6.95,13.69,7.25,7.88.47,14.26-4.37,15.8-5.66Z"/>
      <path class="cls-13" d="m130.88,283.73c-.03-.17-.82-5.45-1.79-13.3l14.49,16.99-14.1,11.05c-.39-5.04-.64-9.71-.64-13.67h-.24c.65-.17,1.31-.34,1.94-.53l.4-.12-.06-.41Z"/>
      <path class="cls-19" d="m149.01,292.28l-20.13-23.6c-.36-2.96-.74-6.24-1.1-9.7l32.64-22.04c5.16-2.57,10.33-2.28,12.07-2.08-.19.43-.41.88-.67,1.36l-4.01,3.97.29.34c.18.21,3.8,4.46,9.93,7.55l-24.05,26-4.98,18.21Z"/>
      <path class="cls-11" d="m126.3,208.22c.1.16.19.31.3.47.05.07,4.23,5.71,9.85,5.71,1.23,0,2.53-.27,3.87-.93.08-.02,1.74-.5,3.35-1.79l.59,1.65c.58,1.62,1.33,3.14,2.19,4.56-4.42,5.13-17.74,11.29-20.85,12.68-.33-8.6-.21-16.57.71-22.36Z"/>
      <path class="cls-13" d="m139.12,198.94c-1.38-.85-3.14-1.19-5.21-.97-2.03.21-3.62.86-3.69.89-.25.1-.36.39-.26.63.1.25.39.37.63.26.01,0,.77-.31,1.88-.56-.01,1.56.29,5.52,3.51,7.06.07.03.14.05.21.05.18,0,.35-.1.44-.27.12-.24.01-.53-.23-.65-2.83-1.36-2.98-5.18-2.95-6.37.18-.03.37-.05.56-.07,2.55-.26,4.49.35,5.75,1.8l3.56,9.97c-1.53,1.33-3.24,1.83-3.34,1.87-6.81,3.33-12.53-4.37-12.58-4.43-6.36-9.61-1.23-15.05-1-15.28,3.27-3.45,8.72-1.11,10.47-.22l2.25,6.31Z"/>
      <path class="cls-1" d="m173.61,229.5c.11.62.18,2.06-.73,4.43-1.53-.21-7.15-.72-12.95,2.18l-12.95,8.74c-7.36-3.13-19.56-11.21-21.3-12.38-.01-.29-.02-.57-.04-.85,2.36-1.04,16.34-7.34,21.34-12.86,4.64,6.99,12.58,11.3,21.08,11.3,1.2,0,2.42-.09,3.64-.26.64-.09,1.27-.2,1.91-.3Z"/>
      <path class="cls-13" d="m215.29,213.6c-13.81,7.9-28.53,13.03-43.73,15.24-11.42,1.67-22.53-4.99-26.39-15.83l-.72-2.03s.03-.03.04-.04l-.09-.09-3.75-10.52s0,0,0,0l-2.85-7.98.14-.24s-.14-.08-.29-.16l-1.07-3c-.14-1.01-4.06-29.57,1.72-43.96.99,2.16,3.96,6.77,11.9,9.18l.79.24-.18-.81c-.01-.06-1.21-5.64.85-8.8.55-.85,1.31-1.45,2.25-1.79-.41,2.15-1.05,8.29,2.52,16.67l.51,1.19.4-1.23c.04-.12,3.91-11.79,10.3-13.71.59-.23,12.68-5.02,17.1-10.59-.91,4.25-3.37,11.97-9.34,13.48l-2.39.6,2.43.35c.23.03,20.49,2.65,30.36-17.61,12.93,11.94,16.51,41.98,16.55,42.3l2.92,18c1.37,8.44-2.64,16.94-9.98,21.13Z"/>
      <path class="cls-13" d="m240.56,182.61c-.15.93-.39,1.82-.72,2.65-1.16,2.9-3.93,7.72-9.62,7.29-.02,0-2,.2-4.05-.63l-1.45-8.93s0,0,0-.01c.52-1.89,2.04-3.27,4.5-4.11.18-.06.36-.12.54-.17.52,1.07,2,4.6-.01,7.02-.17.21-.14.51.06.68.09.07.2.11.31.11.14,0,.28-.06.37-.18,2.28-2.75.9-6.47.23-7.88,1.11-.24,1.93-.28,1.94-.28.27-.01.48-.24.47-.5-.01-.27-.19-.47-.5-.47-.07,0-1.79.08-3.72.74-2.08.71-3.6,1.83-4.48,3.29l-1.08-6.69c1.07-1.12,7.48-7.54,12.27-5.34.27.12,6.59,3.06,4.94,13.39Z"/>
      <path class="cls-14" d="m154.45,111.1c8.76-5.7,18.79-9.24,29-10.24,3.01-.3,6.11-.45,9.22-.47h.13c4.44,0,8.62,1.06,12.1,3.08,4.14,2.4,6.46,5.52,6.93,9.26-4.83.79-8.29,2.72-8.36,2.75l.48.84c.12-.06,11.77-6.52,21.92-.18,3.04,1.9,5.53,4.8,7.2,8.37,3.39,7.26,8.31,22.61,3.61,44.19-.39-.25-.65-.37-.66-.38-4.87-2.24-10.8,2.98-12.83,5-.74-5.49-4.77-31.14-16.95-42.09.9-1.97,1.71-4.13,2.39-6.53l-.93-.27c-6.33,22.34-23.42,24.48-29.73,24.48-.06,0-.12,0-.18,0,7.05-3.77,8.35-15.74,8.4-16.3l-.95-.18c-1.69,6.14-17.78,12.51-17.91,12.56-5.63,1.69-9.27,9.97-10.47,13.12-3.61-9.29-1.84-15.6-1.82-15.67l.23-.77-.79.16c-1.56.31-2.78,1.13-3.62,2.42-1.8,2.77-1.4,6.96-1.13,8.72-9.15-3.09-10.9-9.36-10.92-9.42l-.34-1.31-.57,1.23c-5.79,12.54-3.36,36.8-2.51,43.76-17.43-23.99-8.33-42.64-7.2-44.73h.09s.08-.35.08-.35c.02-.09,2.24-9.12,14.85-21.9,3.03-3.07,6.36-5.86,9.9-8.29.45-.3.89-.61,1.35-.9Z"/>
      <path class="cls-12" d="m50.78,18.22c1.74-2.76,4.97-6.93,9.06-7.64.79,1.15,4.1,6.21,3.83,10.24-1.64-.94-6.02-3.22-9.86-3.22-1.08,0-2.11.18-3.03.62Z"/>
      <path class="cls-12" d="m63.93,22.11l.48.3.06-.31h.05s.02-.45.02-.45c.02-.09.02-.18.03-.27.21-1.53,1.85-9.37,13.47-15.1,4.65-2.29,9.84-3.63,15.44-3.98,13.12-.82,30.76-1.11,50.88,4.01,2.38.61,4.52,1.01,6.54,1.23,6.59.73,18.59,1.24,26.85-3.13-1.14,2.82-5.89,10.22-24.57,11.61l-1.15.09.87.76c.14.13,14.05,12.03,31.18,4.19-1.29,2.61-5.46,8.75-16.17,8.75-.15,0-.29,0-.44,0l-2.2-.03,1.98.96c.52.25,12.29,5.85,20.99,3.24-1.23,3.2-5.94,13.24-15.98,10.32l-.27.93c.99.29,1.92.44,2.81.51.31,4.05,2.27,37.92-17,54.79,4.84-16.92,7.76-43.25,7.92-44.67l.1-.95-.83.47c-13.98,7.99-23.01-3.81-23.39-4.32l-.27-.36-.38.25c-16.94,10.91-33.31-7.14-33.47-7.33l-.26-.3-.34.2c-16.38,9.48-35.69-9.52-35.88-9.71l-.84-.84v1.18c.26,32.04-9.67,45.76-12.27,48.79-.63-2.59-2.99-9.59-10.18-10.1v-40.26c.24-.89,3.03-10.2,16.21-10.47Z"/>
      <path class="cls-1" d="m48.92,104.27c-12.56-5.71-11-20.11-10.99-20.26,1.12-10.92,8.92-10.27,9.29-10.24,8.17.27,9.77,9.34,9.9,10.18l-.94,5.15c-1.12-2.82-2.75-4.7-4.88-5.59-3.73-1.55-7.55.52-7.71.61l.47.85s1.81-.97,4.01-1.05c-.87,1.62-2.38,5.57.46,10l.82-.52c-2.92-4.57-.83-8.45-.19-9.44.59.06,1.18.2,1.78.45,2.24.93,3.88,3.16,4.89,6.62l-2.27,12.4c-2.19,1.91-4.53.87-4.63.83Z"/>
      <path class="cls-1" d="m54.47,103.79l3.59-19.59c1.4-1.39,13.11-14.08,13.09-48.93,3.92,3.54,20.93,17.58,35.89,9.27,1.68,1.75,10.97,10.88,22.44,10.87,3.71,0,7.66-.96,11.64-3.43,1.68,1.98,10.64,11.44,23.53,4.68-.75,6.43-5.39,44.26-12.17,54.58-3.56,2.45-6.91,5.26-9.96,8.35-11.6,11.76-14.5,20.22-15.01,22.02-15.52,1.41-38.49-4-55.1-8.81-12.58-3.64-20.29-16.12-17.93-29.03Z"/>
      <path class="cls-1" d="m104.53,141.23c-3.85,9.7-.14,16.65,1.06,18.51-7.12,3.35-13.59,4.04-19.23,2.05-6.91-2.43-10.52-8.25-11.41-9.87,7-3.58,7.91-12.75,8.03-15.23,6.93,1.76,14.34,3.4,21.55,4.53Z"/>
      <path class="cls-1" d="m19.96,314.05c-.24.87-.92,1.08-.94,1.08l-.11.04c-1.81.98-3.45-.48-3.89-.93-.33-2.28-1.16-4.65-2.89-6.75l1.63-4.6c6.14,6.86,6.53,9.93,6.19,11.15Z"/>
      <path class="cls-1" d="m21.11,276.59l-.02.09.02.09c1.69,9.72,8.22,17.75,8.94,18.61.89,2.79-1.02,3.73-1.1,3.77l-.09.05c-.77.57-1.58.73-2.49.52-4.1-.97-8.31-9.16-8.35-9.24l-.51-1-6.48,18.23.18.21c5.3,6.15,1.95,15.43,1.94,15.47-1.31,2.47-4.16,1.91-5.1,1.65l-.14-4.01c-.05-1.29-.3-2.57-.76-3.78l-4.44-11.85c-.99-2.64-1.14-5.49-.44-8.22l4.48-17.41-.03-.12c-8.31-34.65,9.13-67.93,11.9-72.91,4.54,7.06,11.83,15.52,21.68,17.85-11.21,13.27-18.86,50.41-19.19,52.01Z"/>
      <path class="cls-11" d="m48.53,196.68l-.96-.11c-.03.27-1.4,12.32-3.78,27.58-18.14-1.49-28.47-25.04-29.64-27.87l33.56-36.9c12.37-12.92,26.78-11.64,30.24-11.1-1.02,1.21-2.28,2.26-3.86,2.99l-.45.2.21.44c.15.32,3.77,7.82,12.18,10.79,2.21.78,4.53,1.17,6.96,1.17,4.21,0,8.74-1.17,13.54-3.5l.54-.26-.37-.47s-2.23-2.91-2.79-7.72c3.09.77,16.27,4.72,21.23,16.54h.03c1.58,6.24,4.74,13.3,10.51,20.85l.72,2.03c-2.48-1.1-7.42-2.61-10.71.85-.06.06-5.25,5.51-.16,14.75-3.77,20.32,3.57,71.38,4.33,76.52-30.52,9.14-91.08-3.29-97.6-4.68,9.58-23.3,16.2-81.51,16.27-82.1Z"/>
      <path class="cls-9" d="m61.25,480.9c-1.16,2.01-3.13,4.56-5.99,5.23-.16.04-16.1,4.22-33.27,0-.21-.05-5.12-1.38-4.6-11.51l1.05,1.05c2.02,2.04,4.7,3.36,7.54,3.72,3.79.48,10.13,1.16,16.11,1.16,1.95,0,3.86-.07,5.63-.24,3.41-.33,6.8-1.55,9.8-3.52l4.84-3.17.11.76c.33,2.25-.1,4.56-1.23,6.52Z"/>
      <path class="cls-4" d="m59.59,454.45l-.03.1,2.65,18.02-5.22,3.42c-2.87,1.88-6.11,3.04-9.36,3.36-7.11.7-16.54-.27-21.52-.91-2.63-.34-5.11-1.56-6.98-3.44l-1.59-1.6c.18-1.01.53-1.99,1.03-2.88l12.04-21.48.08-.15-1.43-8.28c1.29-.2,5.07-.73,10.06-.99v7.87l-10.08,17.22c-.29.49-.29,1.08,0,1.58.28.5.79.79,1.37.79h15.48c.63,0,1.19-.37,1.44-.95l7.72-17.73.04-8.38c2.76.33,5.52.83,8.17,1.55l-3.85,12.87Z"/>
      <path class="cls-9" d="m40.29,439.56c4.17-.19,9.07-.18,14.02.35v8.19l-7.68,17.64c-.1.22-.31.36-.55.36h-15.48c-.32,0-.47-.21-.52-.3-.05-.09-.16-.33,0-.61l10.21-17.45v-8.18Z"/>
      <path class="cls-1" d="m59.57,439.7c-8.86-1.66-18.28-1.31-24.37-.77l-1.01-65.64c9.05,2.8,21.3,5.87,33.31,6.66l-7.93,59.75Z"/>
      <path class="cls-23" d="m20.98,367.63l2.59-3.96c3.16,1.5,25.38,11.69,47.77,11.69,2.28,0,4.57-.12,6.84-.35l.27,3.96c-23.72,1.84-53.14-9.6-57.46-11.35Z"/>
      <path class="cls-22" d="m82.46,344.41l3.15-14.37,14.46-6.67-.41-.88-14.9,6.87-6.32,28.85c-.72,3.28-.97,6.63-.74,9.98l.4,5.86c-24.02,2.48-50.17-9.38-54.01-11.2l1.31-2c1.59-2.44,2.57-5.26,2.84-8.16l6.55-72.4c9.75,1.96,39.52,7.46,66.07,7.46,9.85,0,19.25-.77,27.02-2.75.06,18.63,5.2,52.71,7.41,66.53.66,4.1,1.95,8.05,3.84,11.74l2.82,5.5c-3.74,1.24-21.76,6.58-50.92,5.26-1.26-15.13-7.77-28.08-8.56-29.61Z"/>
      <path class="cls-23" d="m91.09,375c3.14.14,6.16.21,9.03.21,24.26,0,39.13-4.51,42.27-5.56l2.56,4.99c-17.77,3.78-49.39,4.46-53.72,4.54,0-1.4-.05-2.8-.14-4.17Z"/>
      <path class="cls-9" d="m120.66,435.08c4.88-.36,9.39-.38,13.47-.06v12.04l9.33,11.01c.3.36.39.81.26,1.26s-.47.77-.92.89l-9.95,2.76c-.48.13-1-.01-1.34-.38l-10.85-11.75v-15.76Z"/>
      <path class="cls-1" d="m101.94,379.82c8.06-.32,19.28-.94,29.51-2.12l2.67,56.34c-4.23-.32-8.91-.3-13.98.1-3.71.29-7.03.73-9.55,1.13l-8.65-55.46Z"/>
      <path class="cls-9" d="m156.56,477.73c-.08.04-8.1,4.36-23.55,3.59-2.88-.14-5.58-1.4-7.6-3.53l-5.2-5.5,2.27,1.03c2.73,1.23,5.73,1.88,8.72,1.88.18,0,.37,0,.55,0,5.51-.15,15.84-.72,23.12-2.86,1.89-.55,3.61-1.66,4.99-3.18l1.46-1.62c-.1,3.3-.96,8.04-4.75,10.21Z"/>
      <path class="cls-4" d="m161.29,466.09l-2.16,2.4c-1.26,1.39-2.83,2.4-4.54,2.9-7.17,2.11-17.41,2.67-22.87,2.82-3.01.08-6.07-.54-8.84-1.79l-4.43-2-3.54-3.75c-2.79-2.95-4.33-6.81-4.33-10.88v-8.86c0-1.28-.31-2.56-.89-3.7l-3.21-6.25c1.72-.35,6.84-1.31,13.21-1.84v16.06l11.11,12.03c.44.48,1.06.74,1.69.74.21,0,.41-.03.62-.08l9.95-2.76c.76-.21,1.36-.79,1.59-1.54.23-.76.07-1.57-.45-2.17l-9.1-10.74v-11.61c1.5.14,2.94.32,4.31.56l.09,5.64,20.81,22.43c.59.65.93,1.49.99,2.38Z"/>
      <path class="cls-7" d="m144.75,445.52v-7.52c2.04.45,4.49.84,6.89.86v8.04l-5.39.25-1.5-1.62Z"/>
      <path class="cls-6" d="m143.78,444.48l-3.32-3.58-.06-4.09c.7.23,1.9.6,3.38.96v6.7Z"/>
      <path class="cls-6" d="m157.77,447.76c.51,2.25,1.08,6.61-.41,11.35l-10.24-11.04,5.49-.25v-8.98c1.91-.07,3.76-.41,5.3-1.18l-.43,6c-.1,1.41,0,2.79.29,4.1Z"/>
      <path class="cls-2" d="m140.39,435.78v-.95s-.41-.07-.41-.07c-.31-.06-.63-.1-.95-.15,0-2.22.04-4.38.1-6.5l17.96,2.18-1.48,7.17c-5.55,1.38-13.55-1.13-15.22-1.69Z"/>
      <path class="cls-13" d="m157.28,429.34l-18.12-2.2c.7-20.84,3.88-36.29,4.53-39.3l20.58,7.74-6.99,33.76Z"/>
      <path class="cls-2" d="m235.62,472.58c-3.79.82-9.56,1.8-15.53,1.81h-.02c-2.48,0-4.99-.84-7.07-2.36l-8.25-6.03c-.03-1.16-.1-3.35-.24-5.95,4.29,4.21,8.84,7.12,13.55,8.62.13.04.25.07.38.09.79.14,2.99.48,6.15.48,4.27,0,10.3-.64,16.95-3.21-.09.45-.21.9-.34,1.36-.75,2.61-2.88,4.59-5.57,5.18Z"/>
      <path class="cls-6" d="m241.73,464.94c-11.82,4.73-21.99,3.08-23.12,2.88-.09-.02-.17-.04-.26-.07-4.84-1.55-9.53-4.62-13.93-9.14-.33-5.35-.95-11.84-2.1-14.68,2.72.88,9.03,2.48,14.55.5l11.88,12.81,9.49-5.59c2.22,2.95,4.36,7.46,3.48,13.29Z"/>
      <path class="cls-7" d="m223.43,439.24c1.15,1.53,4.43,5.57,8.5,7.47,2.38,1.11,4.29,2.52,5.71,4.17l-8.7,5.12-11.1-11.96c2.11-.94,4.06-2.45,5.59-4.8Z"/>
      <path class="cls-2" d="m204.16,443.46c-.93-2.38-1.82-4.79-2.69-7.2l18.9-3.88c.58,3.32,1.05,6.01,1.32,7.57-4.92,5.86-13.21,4.66-17.53,3.51Z"/>
      <path class="cls-13" d="m220.2,431.42l-19.06,3.91c-4.7-13.19-8.41-26.63-10.63-38.67l23.56-1.68c.47,3.68,3.96,23.91,6.14,36.44Z"/>
      <path class="cls-21" d="m219.18,393.65l-36.44,2.6-6.86-29.01.67-3.02,13.54-5.02-.34-.91-14.03,5.21-7.27,32.62-35.8-13.47-.24-5.06c4.86-.58,9.47-1.28,13.36-2.14l.61-.14-6.4-12.48c-.9-1.76-1.66-3.58-2.28-5.45l6.91-28.98c6.27,2.68,26.63,10.58,48.56,10.58,6.33,0,12.79-.66,19.08-2.3l6.92,56.96Z"/>
      <path class="cls-20" d="m143.4,326.81l.84-4.43c3.8,1.69,26.52,11.31,50.63,11.31,6.62,0,13.34-.73,19.8-2.55l-.09,3.89c-30.94,9.47-67.3-6.45-71.17-8.22Z"/>
      <path class="cls-20" d="m214.69,330.13c-30.23,8.64-66.4-6.99-70.27-8.73l5.28-28,5.15-18.85,24.09-26.04c.81.38,1.66.73,2.55,1.05,2.01.72,4.08,1.09,6.14,1.09,1.5,0,2.99-.19,4.45-.58,1.73-.46,3.85-1.4,6.1-2.65l17.84,25.28-1.32,57.44Z"/>
      <path class="cls-19" d="m216.49,294.26l.5-21.87-17.97-25.46c2.22-1.29,4.52-2.86,6.67-4.59l-.3-.38.35-.34-3.65-3.8c-.97-1.23-1.74-2.41-2.37-3.53l3.51,1.1c1.09,1.73,4.35,2.8,5.46,3.11v5.8c.52,2.8,1.49,4.59,2.88,5.32.51.27,1,.35,1.41.35.61,0,1.02-.18,1.03-.19.72-.27,1.26-.94,1.66-1.87.95,1.49,2.02,1.9,2.9,1.9.15,0,.3-.01.44-.03.23-.03.44-.1.66-.18.43.84,1.18,1.43,2.23,1.7.39.1.79.15,1.19.15.15,0,.3-.02.44-.03.02,1.96.88,3.13,1.65,3.78.46.39,1.05.59,1.66.59.27,0,.53-.04.79-.12.22-.07.42-.16.62-.25l14.51,25.66-24.94,16.12-1.33-2.94Z"/>
      <path class="cls-8" d="m250.79,367.59h-.01c-.71,0-1.12-.47-1.13-.49l-.12-.1c-1.39-.86-.8-5.1-.01-8.06.71.75,1.28,1.63,1.66,2.6l1.87,4.76c-.79.83-1.57,1.29-2.25,1.29Z"/>
      <path class="cls-13" d="m259.97,369.05c-.73.44-1.84.9-2.96.61-.95-.25-1.79-1.01-2.47-2.2l-2.46-6.27c-.53-1.35-1.39-2.58-2.49-3.53l-11.12-9.71,1.79,12.42c.04.27-.11.54-.37.65-1.59.67-3.82.89-5.39-1.83l-3.03-6.06c-.31-.62-.46-1.31-.44-2l.74-20.78v-.06c-.21-.98-4.89-23.83-11.86-33.28l18.93-12.24c1.11,4.25,7.33,29.27,5.71,48.49-.16,1.94.54,3.83,1.92,5.19l6.1,5.97c2.25,2.21,3.72,5.15,4.12,8.28l1.22,9.41c.17,1.33.58,2.61,1.21,3.79l1.11,2.08c.2.38.08.86-.27,1.07Z"/>
    </g>
    <circle class="cls-5" cx="209.43" cy="179.86" r="10.09"/>
    <circle class="cls-5" cx="153.87" cy="199.18" r="10.09"/>
    <circle class="cls-5" cx="144.12" cy="101.25" r="10.83"/>
    <circle class="cls-5" cx="76.69" cy="84.99" r="10.87"/>
    <g id="CARA_2" data-name="CARA 2">
      <path class="cls-16" d="m180.17,184.44c-.14-.01-5.06-1.24-6.4,1.88-.57,1.32-.11,2.91,1.05,3.75,1.39,1.01,3.84,1.55,7.35-2.13"/>
      <path d="m208.78,190.94c.08-8.78-11.32-9.83-11.43-9.84l-.29-.02-.16.25c-8.42,13.22-18.49,15.14-24.75,14.77-.08-.05-.19-.08-.29-.06-.05,0-.09.02-.14.03h-.05c-3.17-.26-5.26-1.07-5.5-1.17-.25-.1-.53.02-.63.27-.1.25.02.53.27.63.06.02,2.26.89,5.65,1.14,1.13,11,5.88,13.83,6.05,13.93,2.84,1.88,5.77,2.65,8.39,2.86,5.04.4,8.97-1.3,9.02-1.32,13.5-5.68,13.85-21.31,13.85-21.47Z"/>
      <path class="cls-2" d="m196.31,183.91l2.21,3.32c-8.19,15.2-23.08,14.02-25.42,13.73-.27-1.18-.51-2.49-.66-3.98,6.21.23,15.74-1.7,23.87-13.07Z"/>
      <path class="cls-10" d="m194.55,211.52c-.09.04-8.64,3.73-16.52-1.48-.04-.02-2.99-1.83-4.68-8.08.11.01.23.02.37.03,4.01.32,17.98.27,25.8-14.56l.14-.25-2.74-4.12c.22-.32.43-.64.65-.97,1.58.2,9.17,1.49,10.15,7.46-1.76.34-7.88,1.87-10.53,6.94-.16.27-3.87,6.55-.57,14.02-.65.36-1.33.7-2.05,1.01Z"/>
      <path class="cls-24" d="m197.44,210.01c-3-6.95.52-12.96.57-13.05,2.39-4.58,8.03-6.08,9.77-6.44,0,.14.03.26.03.4,0,.14-.3,12.81-10.37,19.08Z"/>
      <g>
        <path class="cls-14" d="m156.39,165.25c-1.89,1.26-3.01,3.28-3.06,5.52-.02.81.04,1.67.17,2.56l.19,1.26.69-1.07c2.79-4.3,5.63-7,8.44-8.02l1.14-.41-1.26-.55c-2.08-.81-4.44-.54-6.31.7Z"/>
        <path class="cls-14" d="m154.31,171.88c-.02-.37-.03-.73-.02-1.09.05-1.93,1.01-3.66,2.63-4.74,1.14-.76,2.45-1.1,3.75-.99.19.02.39.04.58.08-2.34,1.22-4.67,3.48-6.94,6.75Z"/>
      </g>
      <g>
        <path class="cls-14" d="m195.44,163.74c-.32-.84-.69-1.62-1.11-2.31-1.15-1.93-3.11-3.14-5.38-3.31-2.25-.17-4.43.76-5.85,2.49l-.7.95,1.01-.04c2.78-.12,6.4.78,11.39,2.85l1.04.43-.4-1.05Z"/>
        <path class="cls-14" d="m184.51,160.54c1.18-1.06,2.73-1.58,4.38-1.46,1.95.15,3.63,1.18,4.62,2.84.21.35.4.71.58,1.1-3.96-1.57-7.06-2.37-9.58-2.48Z"/>
      </g>
      <ellipse class="cls-3" cx="187.07" cy="175.44" rx="6.84" ry="9.14" transform="translate(-33 43.75) rotate(-12.27)"/>
      <ellipse class="cls-3" cx="167" cy="179.66" rx="6.84" ry="9.14" transform="translate(-14.33 14.48) rotate(-4.76)"/>
      <ellipse class="cls-14" cx="171.47" cy="179.52" rx="2" ry="3.03" transform="translate(-14.31 14.85) rotate(-4.76)"/>
      <ellipse class="cls-14" cx="183.04" cy="177.13" rx="2" ry="3.03" transform="translate(-27.48 33.73) rotate(-9.8)"/>
      <circle class="cls-2" cx="171.35" cy="178.13" r=".99"/>
      <circle class="cls-2" cx="182.82" cy="175.89" r=".99"/>
    </g>
    <g id="CARA_1" data-name="CARA 1">
      <path class="cls-15" d="m107.24,93.82s7.3-4.42,10.61.37c.93,1.34,1.14,3.05.78,4.64-.65,2.96-3,7.07-11.4,2.4"/>
      <path d="m83.86,87.29l-.62-2.22-.36,2.27c-1.44,9.2-.84,16.76-.09,21.48.69,4.3,1.56,6.74,1.62,6.89,2.8,5.94,7.08,9.32,11.12,11.24.07.07.17.12.28.13,4.9,2.25,9.38,2.39,10.34,2.39.11,0,.18,0,.19,0l.78-.03-.36-.7c-1.72-3.31-2.03-6.12-.92-8.33,1.87-3.73,7.19-4.63,7.25-4.64l2.7-.44-2.68-.54c-22.63-4.56-29.19-27.26-29.25-27.49Z"/>
      <path class="cls-24" d="m85.34,115.33s-.61-1.7-1.19-4.66c1.35.16,4.77.94,7.75,4.68,3.04,3.82,3.44,8.58,3.48,10.42-3.68-1.88-7.5-5.06-10.04-10.44Z"/>
      <path class="cls-10" d="m104.96,119.95c-1.18,2.34-.99,5.2.56,8.51-1.55-.06-5.19-.42-9.14-2.2.03-1.46-.13-7.03-3.7-11.52-3.46-4.35-7.43-4.99-8.73-5.08-.06-.32-.11-.64-.17-.98-.68-4.3-1.24-10.98-.2-19.13.68,1.78,1.91,4.6,3.85,7.76l-.54,7.15c-.09,1.25.36,2.47,1.26,3.34,2.46,2.41,7.94,7.1,17.07,11.73-.09.15-.19.29-.27.44Z"/>
      <path class="cls-2" d="m105.8,118.68c-9.09-4.59-14.52-9.23-16.95-11.61-.68-.67-1.03-1.6-.96-2.55l.44-5.82c4.24,6.4,11.35,13.72,22.6,16.61-1.56.53-3.69,1.56-5.14,3.38Z"/>
      <path class="cls-17" d="m75.51,89.65s2.63-10.1,11.87-5.88"/>
      <path class="cls-17" d="m134.4,94.84s7.99-1.26,8.1,7.19"/>
      <path d="m100.11,63.74c-3.08-.65-6.07.59-7.64,3.16-.98,1.61-1.44,3.49-1.36,5.6l.04,1.02.78-.66c3.7-3.11,8.05-4.76,12.93-4.91l.82-.03-.4-.72c-.06-.11-1.56-2.71-5.17-3.47Z"/>
      <path class="cls-12" d="m92.11,71.43c.09-1.49.49-2.84,1.21-4.01,1.11-1.81,3.05-2.85,5.18-2.85.46,0,.93.05,1.4.15,2.04.43,3.33,1.55,3.98,2.29-4.38.3-8.33,1.79-11.77,4.43Z"/>
      <path d="m138.47,71.79c-3.45-1.32-6.11.05-6.22.11l-.74.39.69.47c4.66,3.14,7.34,6.76,8.19,11.08l.22,1.15.67-.96c1.21-1.72,1.84-3.55,1.89-5.44.08-3-1.77-5.67-4.7-6.8Z"/>
      <path class="cls-12" d="m141.08,82.47c-1.06-3.83-3.54-7.12-7.54-9.99.95-.26,2.63-.5,4.57.24,2.53.97,4.13,3.26,4.06,5.84-.03,1.33-.4,2.64-1.09,3.9Z"/>
      <ellipse class="cls-3" cx="103.74" cy="83.1" rx="9.76" ry="7.22" transform="translate(3.22 170.07) rotate(-79.56)"/>
      <ellipse class="cls-3" cx="127.03" cy="89.52" rx="9.39" ry="7.03" transform="translate(15.98 198.23) rotate(-79.56)"/>
      <path class="cls-12" d="m108.47,82.7c-.99-.19-2.09,1.15-2.45,3.01-.37,1.86.14,3.52,1.13,3.71.99.19,2.09-1.15,2.45-3.01.37-1.86-.14-3.52-1.13-3.71Z"/>
      <path class="cls-12" d="m122.85,86.29c-.99-.19-2.09,1.15-2.45,3.01-.37,1.86.14,3.52,1.13,3.71.99.19,2.09-1.15,2.45-3.01.37-1.86-.14-3.52-1.13-3.71Z"/>
      <circle class="cls-2" cx="108.18" cy="84.66" r="1.13"/>
      <circle class="cls-2" cx="122.36" cy="88.3" r="1.13"/>
    </g>
  </g>
</svg>