<?xml version="1.0" encoding="UTF-8"?>
<svg id="Capa_2" data-name="Capa 2" xmlns="http://www.w3.org/2000/svg" xmlns:xlink="http://www.w3.org/1999/xlink" viewBox="0 0 153.78 294.61">
  <defs>
    <style>
      .cls-1 {
        fill: #513929;
      }

      .cls-2 {
        fill: none;
        stroke: #7f614c;
        stroke-linecap: round;
        stroke-miterlimit: 10;
        stroke-width: 1.17px;
      }

      .cls-3 {
        fill: #af8a71;
      }

      .cls-4 {
        fill: #f4e4d4;
      }

      .cls-5 {
        clip-path: url(#clippath-1);
      }

      .cls-6 {
        fill: #8e4896;
      }

      .cls-7 {
        fill: #e2c1e5;
      }

      .cls-8 {
        fill: #f0c9f2;
      }

      .cls-9 {
        clip-path: url(#clippath);
      }

      .cls-10 {
        fill: #f7a14b;
      }

      .cls-11 {
        fill: #a856af;
      }

      .cls-12 {
        fill: #d8883f;
      }
    </style>
    <clipPath id="clippath">
      <path class="cls-10" d="m35.8,58.77l-5.38,4.48s-1.3-18.11-13.23-21.53c-6.22-1.78-12.67,1.57-15.54,7.37-1.46,2.95-2.3,6.61-.98,10.58,0,0,10.58,27.25,22.77,34.42,0,0,2.84,2.01,7.27-.3,3.24-1.69,5.48-4.87,6.17-8.46.42-2.18,1.59-5.14,4.67-7.74l-5.74-18.82Z"/>
    </clipPath>
    <clipPath id="clippath-1">
      <path class="cls-10" d="m122.38,36l-5.03-4.87s17.86-3.24,19.98-15.47c1.11-6.37-2.92-12.43-8.99-14.66-3.09-1.13-6.82-1.58-10.62.16,0,0-25.95,13.45-31.77,26.34,0,0-1.7,3.04,1.08,7.19,2.03,3.04,5.43,4.92,9.07,5.23,2.22.19,5.28,1.03,8.19,3.81l18.1-7.73Z"/>
    </clipPath>
  </defs>
  <g id="Capa_1-2" data-name="Capa 1">
    <g id="NIÑO_2" data-name="NIÑO 2">
      <path class="cls-8" d="m101.95,174.22l10.58,30.12s44.82-27.25,22.77-87.67l-33.35,17.39s18.64,26.17,0,40.16Z"/>
      <path class="cls-3" d="m125.08,231.41l4.38,7.18c1.51,2.48,2.08,5.42,1.59,8.29l-5.47,32.37c-.32,1.91-1.39,3.62-2.98,4.74l-11.24,7.95c-1.17.83-.58,2.67.85,2.67h22.14c1.56,0,2.82-1.26,2.82-2.82v-3.94c0-.86.12-1.72.34-2.55l10.3-37.53c.94-3.42.54-7.07-1.12-10.2l-9.25-17.45-13.71,8.87,1.34,2.42Z"/>
      <path class="cls-7" d="m115.49,235.96s27.06-11.62,35.75-23.87c0,0-12.39-2.71-19.75-13.72-1.3-1.94-3.12-3.51-5.29-4.36-2.4-.93-5.85-2.19-9.71-.55-1.58.67-2.68,1.68-3.66,2.92-2.17,2.73-5.46,8.56-1.42,15.45,5.62,9.57,4.09,24.13,4.09,24.13Z"/>
      <path class="cls-3" d="m84.2,218.5s-.22,16.18,3.41,30.58c.77,3.04-.39,6.23-2.93,8.07l-6.79,4.9c-1.01.73-.46,2.32.78,2.27l20-.8c1.33-.05,2.21-1.41,1.72-2.65l-1-2.5c-.45-1.11-.67-2.3-.65-3.5l.51-38.25-15.06,1.88Z"/>
      <g>
        <ellipse class="cls-3" cx="79.18" cy="194.47" rx="33.61" ry="30.12"/>
        <path class="cls-1" d="m74.52,198.34s-7.8-12.1,2.69-12.64c0,0,4.3-.54,11.03,8.07,0,0,5.65,4.57,10.49-3.5,0,0,0,10.76,12.1,5.38,0,0,9.14,1.88,6.45-7.26,0,0,6.1-.27.5-5.92,0,0,6.77-6.72-2.38-9.14,0,0,3.76-5.11,1.61-7.8,0,0-2.33-2.87-8.07,0,0,0,1.25-4.48-2.96-5.92,0,0-3.76-1.34-5.92,2.96,0,0,.81-6.72-5.65-8.07,0,0-5.38-1.61-7.26,4.57,0,0-2.78-6.52-7.53-6.45,0,0-5.65-.81-5.92,5.92,0,0-5.47-5.98-10.76-4.03,0,0-6.45,1.08-2.96,11.03,0,0-5.38-9.14-12.37-2.96,0,0-4.03,2.96,0,11.03,0,0-5.55-3.64-9.71,1.52-1.93,2.39-2.72,5.58-1.96,8.56.64,2.49,2.39,5.24,6.82,6.32,0,0-9.94,3.87-8.27,12.19.41,2.04,1.49,3.91,3.01,5.34,1.87,1.77,4.93,3.6,8.23,1.29,0,0-2.99,4.38-.68,9.77.64,1.51,1.69,2.84,3.1,3.67,1.76,1.03,4.61,1.78,8.61,0,0,0-2.42,10.76,4.57,12.1,0,0,2.96,1.08,6.72,0,0,0,1.08,8.07,6.99,8.07,0,0,5.11.27,6.19-6.72,0,0-9.41,8.34-12.91-6.99,0,0-8.07,1.34-7.26-5.92,0,0,7.8-.54,9.14-5.65,0,0,1.97-4.12-4.57-8.61,0,0,8.34-3.05,3.14-10.04,0,0,3.41,1.88,5.74-.18Z"/>
      </g>
      <g>
        <path class="cls-10" d="m35.8,58.77l-5.38,4.48s-1.3-18.11-13.23-21.53c-6.22-1.78-12.67,1.57-15.54,7.37-1.46,2.95-2.3,6.61-.98,10.58,0,0,10.58,27.25,22.77,34.42,0,0,2.84,2.01,7.27-.3,3.24-1.69,5.48-4.87,6.17-8.46.42-2.18,1.59-5.14,4.67-7.74l-5.74-18.82Z"/>
        <g class="cls-9">
          <path class="cls-12" d="m24.15,46.37h0c-3.44,1.94-4.8,6.2-3.12,9.77l7.06,15,9.57-6.26-2.94-10.95-10.57-7.56"/>
          <path class="cls-4" d="m1.64,49.09s.99,26.37,27.52,45.81c26.53,19.45,0,0,0,0l-5.02,2.42L-.78,68.07l-.54-16.83,2.95-2.15"/>
        </g>
      </g>
      <path class="cls-6" d="m75.34,93.43s18.27-.91,26.61-15.03c0,0-6.08-16.88-14.44-28.12-3.96-5.33-9.61-9.27-16.08-10.78-3.65-.85-7.94-1.09-12.3.33-1.7.55-3.29,1.4-4.79,2.38-4.31,2.85-16.12,11-22.31,18.71l11.56,25.01s12.91-16.67,20.3-15.6c0,0,10.5,1.18,11.44,23.1Z"/>
      <g>
        <path class="cls-10" d="m122.38,36l-5.03-4.87s17.86-3.24,19.98-15.47c1.11-6.37-2.92-12.43-8.99-14.66-3.09-1.13-6.82-1.58-10.62.16,0,0-25.95,13.45-31.77,26.34,0,0-1.7,3.04,1.08,7.19,2.03,3.04,5.43,4.92,9.07,5.23,2.22.19,5.28,1.03,8.19,3.81l18.1-7.73Z"/>
        <g class="cls-5">
          <path class="cls-12" d="m133.45,23.09h0c-2.29-3.21-6.68-4.11-10.05-2.05l-14.15,8.63,7.25,8.84,10.57-4.1,6.38-11.32"/>
          <path class="cls-4" d="m128.34,1s-26.11,3.82-42.59,32.29c-16.48,28.47,0,0,0,0l-2.94-4.73L109.2.64l16.67-2.34,2.46,2.71"/>
        </g>
      </g>
      <path class="cls-11" d="m101.41,133.17l1.66,2.62,32.22-19.11-2.58-6.79c-.78-.83-.47-2.18.6-2.57,4.64-1.67,14.91-6.25,18.47-15.02,0,0,4.48-8.25,0-17.21,0,0-18-35.38-29.3-43.27l-22.45,13.61,16.52,25.22c1.28,1.96.1,4.58-2.21,4.92-8.14,1.19-23.96,3.94-29.96,8.12,0,0-11.82,6.03-10.97,20.24.39,6.54,3.51,12.64,8.43,16.97,2.29,2.02,5.2,3.98,8.64,5.1,0,0,6.99,1.25,10.94,7.17Z"/>
      <g>
        <ellipse cx="83.93" cy="220.25" rx="2.29" ry="1.28"/>
        <path class="cls-2" d="m99.66,219.06s-.94-9.1-9.01-11.2"/>
        <path class="cls-2" d="m90.07,210.06s-.45-4.84,3.85-5.24"/>
      </g>
    </g>
  </g>
</svg>